<?xml version="1.0" encoding="UTF-8"?>
<svg version="1.1" viewBox="0 0 1600 1600" width="500" height="500" xmlns="http://www.w3.org/2000/svg">
<path transform="translate(840,247)" d="m0 0h54l41 4 25 4 36 8 26 7 36 12 36 14 45 20 19 9 16 8 15 8 11 6 20 10 21 12 11 6 18 10 16 10 27 18 13 10 12 9 17 14 11 9 15 14 12 11 15 15 7 8 8 8 9 11 13 15 12 16 11 15 11 16 12 19 9 15 12 22 15 31 12 30 9 25 7 25 6 26 7 40 2 22 1 22v34l-2 28-3 21-7 32-8 29-6 17-11 27-13 27-12 22-14 22-10 14-9 12-9 11-12 14-14 15-11 11-8 7-14 12-16 13-19 13-19 12-24 13-26 12-20 7-20 6-29 7-41 5h-39l-26-3-20-2-42-9-36-9-45-14-36-12-22-7-30-10-28-9-36-10-40-9-34-5-22-2-21-1h-24l-30 4-31 6-33 9-38 13-49 20-27 12-26 11-21 9-32 13-24 9-32 10-33 8-34 5-16 2h-48l-39-6-33-11-16-7-13-7-13-9-11-9-7-6-7-8-10-11-11-17-8-14-8-21-5-17-6-29-1-7v-65l5-32 6-31 7-29 7-25 13-47 10-37 7-34 5-34 1-15v-42l-2-25-7-48-11-66-5-39-1-23v-15l1-17 6-36 10-30 10-21 12-17 11-12 4-5 17-13 20-12 20-8 21-6 28-5 31-3h23l39 3 40 4 14 1h51l18-3 33-8 36-12 24-11 16-7 23-11 49-21 30-11 44-14 27-7 27-6 32-6 34-4z" fill="#FAFAFB"/>
<path transform="translate(840,247)" d="m0 0h54l41 4 25 4 36 8 26 7 36 12 36 14 45 20 19 9 16 8 15 8 11 6 20 10 21 12 11 6 18 10 16 10 27 18 13 10 12 9 17 14 11 9 15 14 12 11 15 15 7 8 8 8 9 11 13 15 12 16 11 15 11 16 12 19 9 15 12 22 15 31 12 30 9 25 7 25 6 26 7 40 2 22 1 22v34l-2 28-3 21-7 32-8 29-6 17-11 27-13 27-12 22-14 22-10 14-9 12-9 11-12 14-14 15-11 11-8 7-14 12-16 13-19 13-19 12-24 13-26 12-20 7-20 6-29 7-41 5h-39l-26-3-20-2-42-9-36-9-45-14-36-12-22-7v-1l16-1 1-2 5-59 2-11 1-1h7l4 10 13 37 10 25 2 4 13-1 15-2-2-9-5-14-6-23-3-20v-6l1-1h39l80 1 1 1 5 47 2 7 9 6 5 1h91l9-2 4-4h2l4-36 5-48 4-53 1-7h38l-1 13-7 26-8 25-4 25h48l2-1-11-7-9-7 4-13 12-28 10-29 2-4h14l1 1 4 51v14l-1 23h51v-2l-5-2-14-9-4-3 1-13 1-9v-50l-3-30-4-38-1-3v-7l7-17 7-13 9-7 8-2 24-1 10-5 6-5 8-10 7-17 6-25 1-13-16-8-14-6-15-5-5-1h-16l-12 5-10 8-10 13-4 4 3 24 4 29v6l-1 1h-19l-42-1-3 7 1 5 5 5h3l-2 4-6-1-5-1-1 11-2 4-2 1h-7l-5-5-1-2v-8l3-8v-5l-5-3v-42l-3 5-25-8-6-1h-22l-14 3-16 4-6 1h-9l1 3-2 1 14 7 1 3-9 17-2 2-12 2-7 1 6 11v6l-7 3h-10l-6-4 1-6h-2v-10l1-1v-7l-2-6-3-36-1-32 6-3 1-13 1-28 1-2 4 1 7 10 7 16 1 3 6-1 9-5 5-3 3 8 8 17 4 8-1 2 3 1 8 5 14 7 11 2h9l18-3 17-6 5-1 1-7-9-3-6-1h-32l-17 4-8 2h-9l2-4 10-10 7-8 13-12 5 2 11 8 11 5 9 2h10l9-1 5-20-14-1h-11l-20 3h-12l1-3 10-7 12-10 7-5h2v2l4 2 11 7 13 3 7-18-30 2v-4l12-7 16-11 6 4 5 4 5-2 5-7v-1l-6 1h-12l4-4 9-4 2-2h4l1-5 3-2v-6l-5-9 1-5 5-5h5l6 5 1 2v8l10-3-2-10 1-8 5-4 9-2 11-1 7-4 6-8 7-9 1-2-16-2-14-8-11-5-10-4-4-1h-11l-10 3-6 1 2-6 5-9 6-11 9-16 8-17 10-19 6-13-15 4-19 7-29 12h-4v-34l1-1 52-6 19-1v-11l-36-4-44-5-58-6-32-3-24-3-15-1v-3l5-6-23 2-13 4-10 5-10 2h-9l9-19 4-6 6 1 8 3h18l15-6 16-9 6-3 1-2-11-1h-15l-17 4-23 11h-2l2-5 10-16 4-6 7 1 10 3h9l16-6 18-10 1-1-3-1h-22l-13 3-12 6-8 2 3-5 11-14 5-5 5 1 13 4 11-2 18-8 13-7-6-2h-16l-15 3-17 8-4-1 8-9 6-5h2l2-4 6-9 5-30-1-2-9 10-6 10-5 18-3 12-5 7h-2l-1-2v-30l-2-9-7-14-2-1v12l-1 12v10l2 10 6 9 3 3-1 5-8 10-8 11-2-4v-29l-4-13-5-9h-1l-2 16v22l4 9 7 9-1 4-7 10-6 10-4 4-2-12-1-17-4-13-8-14-4-5-2-1 1 27 2 11 5 12 8 10 4 4-2 6-10 19-3 6-5-1-1-4-1-21-5-13-7-13-8-11-2-1 1 5 2 29 2 12 5 10 5 6-1 4h-22l-7-11-8-7-8-5 4 14 3 12-58 6h-6l3-9 4-9-10 5-11 9-6 7-2 1h-8l-1-1-2-13-5-12-9-16-1-1-1 4v17l3 14 4 8v8l2 5 4 1 2 6-2 1-5-3-4-6-11-14-10-8-13-6-1 1 10 18 11 12 8 4 12 4 2 2v30l-4-4-9-13-9-10-8-6-13-6 1 3 9 16 9 11 8 6 5 2 11 2 1-1 1-21 1-9 9-3 8-4h4l-1 22-8 7-3 9 3 5 2 3v7l-3 8v15l-4 26v10l-4-2-19-19-10-7-11-5-13-4-1-2 3-14 1-12 16 16 11 7 3 1h7l3-2-1-5-17-17-8-5-8-4-7-2-8-16-9-13-8-8-12-7-15-5-6-1h-16l-10 2h-5l-8-16-5-9-11 3-13 5-3 3-26 1-10 2-18 8-7 3-1-2 18-22 6 1 7 2h17l12-5 21-12-3-1h-24l-14 4-16 8-3-1 9-10 8-6 6-10 8-35-5 3-8 10-7 15-7 24-4 6-2-1v-27l-2-10-5-12-3-7-3 11-1 7v21l4 8 9 12-3 5-9 10-6 10-2-1v-10l1-5v-13l-3-14-6-12-1-1v-11l2-31 1-24 1-5-5 3-15 14-8 7-15 14-20 20-7 8-10 10-9 11-9 10-5 1-16-12-7-7-5-14 1-26-3-10-4-6-7-6-11-7-11-9-3-6-1-33-7-13-9-10-17-10-25-10-2 5-7 11-6 14-4 14v18l5 12 11 13 6 9 2 5-1 9-7 25v10l5 10 9 11 9 10 3 9v12l-3 15-1 2-25 1h-19l-5-1v-48l-94 1h-41v47l-1 1h-55l-56 1-1 200-5 7-3 8-5-2-5-3 5 18v7l-2 7-3 1-8-2-12-12-10-6-9-4-13-1 7 8 13 12 10 5 19 2 4 15 3 10v4l-5-2-10-10-14-9-16-4-5-1 7 8 11 11 14 8 3 1 15 1 3 5 7 21v5l-6-3-5-4-10-7-14-6-15-2h-8v2l14 10 10 7 11 5 4 1h11l9-2 3 5 10 23 4 6-1 4-16-10-12-7-21-6-19-1 5 5 17 12 11 7 15 4h8l10-2h5l10 18 8 12 7 10 12 16 4 4v2l-36-1-14 2-10 4h46l12 1 2-4 3-1 2 4h72l73 1-8-24v-3l-7-1-15-8-1-2 9 3 12 6-2-11-6-28-15-60-4-17-6-20-9-25-3-8-8-18-9-16 1-3 8 13 10 22 11 29 5 16 4 16 10 39 8 33 4 19 7 25 6 18 1 4h21l11 1 1-18 3-33 3-49 6-73 3-46 3-41 4-3 13-5 17-5 21-7 20-4 37-5 38 1 46 6 17 4 16 7 19 7 20 9 18 10 10 6 12 7-1 8-9 20-10 24h-5l-19-10-11-5-16-6-19-7-18-5-8-6-14-5h-19l-15 5-9 7-6 9-2 7-1 15-3 3-11 5-6 3-6 5-2 4h-2l-1 4-2 3-1 5v10l2 7 6 8 7 6-2 4-5 6-8 20-4 14-9 34-4 23-1 10v12l3 14 4 7 1 3h2l7 8 7 6v1h-344v72l-54 1v55l26 1 1 1 1 53 2 1 335 1-3 2-18 8-70 30-32 13-24 9-32 10-33 8-34 5-16 2h-48l-39-6-33-11-16-7-13-7-13-9-11-9-7-6-7-8-10-11-11-17-8-14-8-21-5-17-6-29-1-7v-65l5-32 6-31 7-29 7-25 13-47 10-37 7-34 5-34 1-15v-42l-2-25-7-48-11-66-5-39-1-23v-15l1-17 6-36 10-30 10-21 12-17 11-12 4-5 17-13 20-12 20-8 21-6 28-5 31-3h23l39 3 40 4 14 1h51l18-3 33-8 36-12 24-11 16-7 23-11 49-21 30-11 44-14 27-7 27-6 32-6 34-4z" fill="#FCFCFD"/>
<path transform="translate(1192,429)" d="m0 0 2 1-4 28-3 8-7 9-9 7-6 7 5-1 15-7 15-3h16l7 2-2 3-16 8-17 7-8 1-15-5-4 1-9 10-8 11 11-4 11-5 10-2h22l4 2-5 4-17 9-14 5h-9l-17-5-2 5-10 15-4 7 25-12 17-4h15l11 2-1 3-17 9-14 7-6 2h-18l-11-4-4 1-9 19-2 3h8l12-3 16-7 12-2h16l-2 4-3 4 24 2 23 3 44 4 38 4 80 9 1 1v8l-1 3-71 8-1 34 11-4 15-6 13-5 16-6 13-3-5 12-8 15-9 19-8 15-9 16-6 11-2 4 11-4 5-1h11l10 3 16 8 13 7 17 2-3 6-9 11-4 5-6 3-17 2-6 3-2 4 1 10 1 5-7 3h-4l-2-10-5-4h-5l-5 6 1 5 4 7v6l-4 2-1 5-5 2-4 3-9 4h11l7-1-2 5-5 6-4 1-10-8-11 7-16 10-2 1v2l31-2-7 19-2 1-12-3-11-7-4-3v-2l-14 10-12 10-5 3-1 2 17-2 15-2h11l11 1 3 1-1 9-3 11-1 1-9 1h-10l-11-3-12-6-11-8-4 2-15 14-9 10-6 7 14-2 14-4 6-1h32l12 3 4 2-1 7-27 9-14 2h-9l-14-3-11-6-9-5-4-2 2-2-8-16-4-9-2-7-11 7-5 2-5-1-7-17-7-11-4-2-1 30-1 14-7 2 1 9 2 38 2 21 2 6v7l-1 1-1 10h2v6l5 3h10l4-2h3l-2-8-4-7v-2l11-3 8-1 4-6 6-12v-2l-15-8 2-4 21-3 17-5 7-1h22l16 4 15 5 3-5h1v43l5 3-1 8-2 5v8l3 5 2 1h7l2-1 2-12 1-2 11 1 1-2-4-2-5-6 2-9 2-2 42 1h19l-1-15-6-42 2-5 5-5 11-13 11-7 8-3h16l17 5 15 6 16 8 3 2-1 13-6 25-5 12-4 8-8 9-10 7-5 2-24 1-10 3-7 6-10 21-3 8v7l2 13 5 45 1 13v50l-2 16v6l22 14v2l-2 1h-49l-1-1 1-23v-14l-4-51h-14l-8 24-11 27-5 11-3 11 11 8 9 6-3 2h-45l-3-1 1-13 3-15 10-32 4-16 2-13h-38l-1 18-3 42-6 58-2 20-2 6-5 2-1 3-9 2h-91l-7-2-8-6-2-7-5-47-80-1h-39l1 15 5 23 5 18 5 13-1 4-21 3h-7l-6-12-13-35-10-29h-7l-3 21-4 49-2 3h-19l-27-9-28-9-36-10-40-9-34-5-22-2-21-1h-24l-30 4-31 6-33 9-38 13-27 11-3 1h-337l-3-2-1-53-26-1-1-1v-47l1-8 6-1h48v-72l275-1h68l-12-11-1-3h-2l-5-7-3-11-1-6v-12l3-22 4-19 8-31 3-9 6-15 3-6 6-7-2-4-8-7-4-7-1-5v-10l2-7 3-5h2l2-5 9-7 12-5 4-1 1-17 4-11 8-9 8-5 13-4h19l16 6 9 8 4 6 3 12-1 12-4 6-3 3-8 2h-8l-11-3-8-5-6-1-3 17-6 17-9 14-9 10-1 2 5 2 5 6 4 2 4 24v3h13l34 4 20 4v1h-7l-27-4-32-3 2 18v8h13l6 1v1h-17l1 15 4 4 13 6 6 2-2 5-5 5-5 3-6 9 5 2-1 5 21 9 27 12v-3l6 2 9 6 5 12 12 36 15 43 5 13h27l1-5 7-8 12-6 14-4 12 1 17 6 9 7 6 8 25 1h58l3-26 6-32 2-16 4-14h-7l-1-2 1-11 1-2 3-26 2-9 1-7h-7l-19 9-16 8-23 11-44 22-4 3h-2l-2-13-4-6-6-6-3-2 12-5 15-8 16-8 34-16h2l-3-3-6-4-3-5v-2h-2l2-4v-7l-14-41-3-10 5 1 6 18 11 32 3 6 9 1-3-11 4 4 8 11h16v-9l-5-12-3-6v-2l4 2 6 4 2 4 1 9h14l3-2 5-5 2-25 4-9 3-19h-6l4-2 1-3-1-2-5 1-6 2h-8l-7-8-3-9-12 2-38 12-15 6-16 7-2-1 16-8 18-7 28-9 17-4h2l-4-20v-5l-2-1 5-1 2 2-2-4-3-12v-12l3-11 4-6 5-5 4-3 13-3h9l14 3 11 7 7 7 8 16 1 3v20l-4 8h9l8 3 11 10 3 5 1 4v16l-5 8-7 7-8 4h-12l5 9 1 2 10-5 21-10 19-10 15-7 4 1 10 19 2 5-17 9-56 28 3 22 3 47v9h5v1h-5l1 5v7l-4 1 4 14v23l-6 48-1 5 73-1h47l-1-3-3-39-2-19-2-27v-19h18l-2-9-8-33-1-5 16-2 6-2v-12l-4-57-6-88-3-41-2-37-2-4 7-7h2l1-3 9-7 15-11-138-1-1-1-1-8-1 8-3 6-23-1 5-10 9-11 12-12h2v-84l-26-2-4 12-5 8-3 1-2-1v-39h-4l1 8-2 9-5 4-9 4h-5l-1 30-3 2-13-3-9-6-9-10-11-19-2-4 9 3 9 5 10 9 9 11 7 11v-29l-7-3-13-5-10-10-8-13-6-11 5 1 14 7 10 9 9 12 5 7 4 1-1-6-5-1-2-5v-8l-5-11-2-11v-17l1-5 5 5 10 19 3 10 1 9h8l5-5 11-10 7-4 6-2-1 6-6 12 27-3 29-3h8l-4-12-3-10v-4l5 2 9 7 8 10 1 4 22-1-1-4-7-10-3-9-2-21-1-21 3 1 10 14 8 17 2 6 1 21 1 4h4l11-23 3-5-1-4-5-5-6-7-5-12-2-11v-27l4 2 7 10 7 16 1 5 1 17 2 11 12-19 4-5-1-4-6-8-4-9v-22l2-16h3l7 14 2 8v29l1 2 9-11 7-10-1-4-7-9-2-5-1-7v-10l2-24 4 2 7 16 1 6v32l5-5 3-9 4-16 4-11 7-9zm-287 434 4 1-33 11-3-1 19-7z" fill="#427DA3"/>
<path transform="translate(481,384)" d="m0 0 5 1 20 8 14 8 10 9 6 9 4 8 1 33 3 6 17 13 9 6 6 7 3 7 1 5-1 26 5 14 8 8 14 10 5-1 9-10 9-11 15-15 7-8 24-24 8-7 14-13 8-7 4-1-2 47-1 13v11l6 10 3 12 1 5v13l-1 5v10l4-5 4-6 9-10 1-3-11-15-2-5v-21l3-16 2-3 7 14 3 9 1 7v27l3-3 5-16 5-15 7-13 9-10h3l-1 8-6 27-6 10-13 11-4 5 9-3 12-6 11-3h24l4 2-4 3-22 12-8 3h-17l-9-3-5 1-9 11-7 9v1l10-4 15-7 10-2h25l-2 4-9 6-12 6-10 4-5 1h-12l-10-3-4-1-2 4-9 14-4 7 6-2 17-8 12-4 11-1h16l7 2-1 3-17 9-15 7-13 3-10-1-16-4-14 28-1 5 10-4 5-4 14-8 17-5 14-1h7v3l-11 9-15 10-8 4-9 2h-9l-8-1h-10l-10 25-3 7 8-3 25-15 18-7 6-1h23l-2 4-9 7-21 14-8 4-6 2h-16l-16-2-3 3-6 25-1 4 11-6 16-10 8-4 15-6h27v3l-7 6-18 12-16 8-10 3h-9l-13-3-46-6-38-1-37 5-20 4-33 11-13 4-8 4-3 41-5 73-5 60-3 47-4 39h-32l-11-33-6-23-2-11-5-21-12-48-4-17-5-14-6-18-10-24-8-17-5-7 16 32 3 10 5 12 9 27 5 19 15 62 9 39-1 4-12-6-6-2 16 8 4 1 8 24v3h-145l-3-4-4 4h-59l3-3 13-4 9-1h12l24 2-11-14-8-11-11-16-9-16-2-4-10 1-5 1h-8l-15-4-21-14-12-9v-2h19l21 6 14 8 14 9-1-4-8-16-6-15-3-1-7 2h-11l-13-5-11-7-13-10-3-2 1-3 17 1 9 2 14 7 11 8 6 4-1-7-7-21-1-1-15-1-14-7-10-9-11-11v-2l11 1 12 4 14 10 8 8 5 3-6-22-1-7h-12l-10-2-9-6-15-14-4-5v-1h8l9 2 13 7 10 9 7 6 9 1 1-14-4-14v-4l5 2 5 3 3-9 4-6 1-200 1-1 65-1h46l1-47 41-1h94v48h49l3-17v-12l-3-9-12-13-9-13-2-5v-10l7-25 1-9-6-12-11-12-6-12-1-3v-18l5-17 8-16z" fill="#B2615A"/>
<path transform="translate(1192,429)" d="m0 0 2 1-4 28-3 8-7 9-9 7-6 7 5-1 15-7 15-3h16l7 2-2 3-16 8-17 7-8 1-15-5-4 1-9 10-8 11 11-4 11-5 10-2h22l4 2-5 4-17 9-14 5h-9l-17-5-2 5-10 15-4 7 25-12 17-4h15l11 2-1 3-17 9-14 7-6 2h-18l-11-4-4 1-9 19-2 3h8l12-3 16-7 12-2h16l-2 4-3 4 24 2 23 3 44 4 38 4 80 9 1 1v8l-1 3-71 8-1 34 11-4 15-6 13-5 16-6 13-3-5 12-8 15-9 19-8 15-9 16-6 11-2 4 11-4 5-1h11l10 3 16 8 13 7 17 2-3 6-9 11-4 5-6 3-17 2-6 3-2 4 1 10 1 5-7 3h-4l-2-10-5-4h-5l-5 6 1 5 4 7v6l-4 2-1 5-5 2-4 3-9 4h11l7-1-2 5-5 6-4 1-10-8-11 7-16 10-2 1v2l31-2-7 19-2 1-12-3-11-7-4-3v-2l-14 10-12 10-5 3-1 2 17-2 15-2h11l11 1 3 1-1 9-3 11-1 1-9 1h-10l-11-3-12-6-11-8-4 2-15 14-9 10-6 7 14-2 14-4 6-1h32l12 3 4 2-1 7-27 9-14 2h-9l-14-3-11-6-9-5-4-2 2-2-8-16-4-9-2-7-11 7-5 2-5-1-7-17-7-11-4-2-1 30-1 14-7 2 1 9 2 38 2 21 2 6v7l-1 1-1 10h2v6l5 3h10l4-2h3l-2-8-4-7v-2l11-3 8-1 4-6 6-12v-2l-15-8 2-4 21-3 17-5 7-1h22l16 4 15 5 3-5h1v43l5 3-1 8-2 5v8l3 5 2 1h7l2-1 2-12 1-2 11 1 1-2-4-2-5-6 2-9 2-2 42 1h19l-1-15-6-42 2-5 5-5 11-13 11-7 8-3h16l17 5 15 6 16 8 3 2-1 13-6 25-5 12-4 8-8 9-10 7-5 2-24 1-10 3-7 6-10 21-3 8v7l2 13 5 45 1 13v50l-2 16v6l22 14v2l-2 1h-49l-1-1 1-23v-14l-4-51h-14l-8 24-11 27-5 11-3 11 11 8 9 6-3 2h-45l-3-1 1-13 3-15 10-32 4-16 2-13h-37l-1-3 2-32 5-3v-11l-5-2h-7v7l-1 1h-10l1-17 4-28h2l-1-6 2-7-1-9-4-12-5-1h-2l-2 5-7 11-3 19-1 2-1 9-2 5-2 16-1 6-1 7h-17l-1-2 3-21 3-7 1-14 1-9 1-3-4-13-1-5h-6l-6 7-5 7 1 4 5 3 11 2v1l-7 1-6 39-1 9-4 1h-61l-2-9-8-33-1-5 16-2 6-2v-12l-4-57-6-88-3-41-2-37-2-4 7-7h2l1-3 9-7 15-11-138-1-1-1-1-8-1 8-3 6-23-1 5-10 9-11 12-12h2v-84l-26-2-4 12-5 8-3 1-2-1v-39h-4l1 8-2 9-5 4-9 4h-5l-1 30-3 2-13-3-9-6-9-10-11-19-2-4 9 3 9 5 10 9 9 11 7 11v-29l-7-3-13-5-10-10-8-13-6-11 5 1 14 7 10 9 9 12 5 7 4 1-1-6-5-1-2-5v-8l-5-11-2-11v-17l1-5 5 5 10 19 3 10 1 9h8l5-5 11-10 7-4 6-2-1 6-6 12 27-3 29-3h8l-4-12-3-10v-4l5 2 9 7 8 10 1 4 22-1-1-4-7-10-3-9-2-21-1-21 3 1 10 14 8 17 2 6 1 21 1 4h4l11-23 3-5-1-4-5-5-6-7-5-12-2-11v-27l4 2 7 10 7 16 1 5 1 17 2 11 12-19 4-5-1-4-6-8-4-9v-22l2-16h3l7 14 2 8v29l1 2 9-11 7-10-1-4-7-9-2-5-1-7v-10l2-24 4 2 7 16 1 6v32l5-5 3-9 4-16 4-11 7-9z" fill="#346D83"/>
<path transform="translate(493,1060)" d="m0 0h61l9 1 12 5 26 7 9 2 22 2 1 1h7l3 4 10 33 11 33 1 4 6 20 10 28v2l2 1-36 6-23 5-28 8-35 12-27 11-3 1h-337l-3-2-1-53-26-1-1-1v-47l1-8 6-1h48v-72z" fill="#7E82A2"/>
<path transform="translate(1159,724)" d="m0 0h39l106 2 1 4v3 9l-2 5v13l4 11 4 17 4 13-1 5-12 7-9 6-5 4h-2l1-7 6-15 4-13 1-7v-13l-1-4v-9l-4 2-2 5-9 17-4 13-2 9 1 8 4 12v7l-8 6-10 8-11 8h-1l1-10 5-15 2-13 1-9v-2l-4-20-5-9-4 9-6 21-3 14 1 15 4 9 5 11-1 5-15 13-11 11-6 7-1-4 6-31 1-11 1-3-2-7-2-13-5-16-3-4-6 18-6 24-1 15-1 4-11 7-5 2-5-1-7-17-7-11-4-2-1 30-1 14-7 2 1 9 2 38 2 21 2 6v7l-1 1-1 10h2v6l5 3h10l4-2h3l-2-8-4-7v-2l11-3 8-1 4-6 6-12v-2l-15-8 2-4 21-3 17-5 7-1h22l16 4 15 5 3-5h1v43l5 3-1 8-2 5v8l3 5 2 1h7l2-1 2-12 1-2 11 1 1-2-4-2-5-6 2-9 2-2 42 1h19l-1-15-6-42 2-5 5-5 11-13 11-7 8-3h16l17 5 15 6 16 8 3 2-1 13-6 25-5 12-4 8-8 9-10 7-5 2-24 1-10 3-7 6-10 21-3 8v7l2 13 5 45 1 13v50l-2 16v6l22 14v2l-2 1h-49l-1-1 1-23v-14l-4-51h-14l-8 24-11 27-5 11-3 11 11 8 9 6-3 2h-45l-3-1 1-13 3-15 10-32 4-16 2-13h-37l-1-3 2-32 5-3v-11l-5-2h-7v7l-1 1h-10l1-17 4-28h2l-1-6 2-7-1-9-4-12-5-1h-2l-2 5-7 11-3 19-1 2-1 9-2 5-2 16-1 6-1 7h-17l-1-2 3-21 3-7 1-14 1-9 1-3-4-13-1-5h-6l-6 7-5 7 1 4 5 3 11 2v1l-7 1-6 39-1 9-4 1h-61l-2-9-8-33-1-5 16-2 6-2v-12l-4-57-6-88-3-41-2-37-2-4 7-7h2l1-3 9-7z" fill="#437EA3"/>
<path transform="translate(481,384)" d="m0 0 5 1 20 8 14 8 10 9 6 9 4 8 1 33 3 6 17 13 9 6 6 7 3 7 1 5-1 26 5 14 8 8 14 10 5-1 9-10 9-11 15-15 7-8 24-24 8-7 14-13 8-7 4-1-2 47-1 13v11l6 10 3 12 1 5v13l-1 5v10l4-5 4-6 9-10 1-3-11-15-2-5v-21l3-16 2-3 7 14 3 9 1 7v27l3-3 5-16 5-15 7-13 9-10h3l-1 8-6 27-6 10-13 11-4 5 9-3 12-6 11-3h24l4 2-4 3-22 12-8 3h-17l-9-3-5 1-9 11-7 9v1l10-4 15-7 10-2h25l-2 4-9 6-12 6-10 4-5 1h-12l-10-3-4-1-2 4-9 14-4 7 6-2 17-8 12-4 11-1h16l7 2-1 3-17 9-15 7-13 3-10-1-16-4-14 28-1 5 10-4 5-4 14-8 17-5 14-1h7v3l-11 9-15 10-8 4-9 2h-9l-8-1h-10l-10 25-3 7 8-3 25-15 18-7 6-1h23l-2 4-9 7-21 14-8 4-6 2h-16l-16-2-3 3-6 25-1 4 11-6 16-10 8-4 15-6h27v3l-7 6-18 12-16 8-10 3h-9l-13-3-46-6-38-1-13 1v-55l-1-75-58-1-4-1 3-17v-12l-3-9-12-13-9-13-2-5v-10l7-25 1-9-6-12-11-12-6-12-1-3v-18l5-17 8-16z" fill="#437EA4"/>
<path transform="translate(323,747)" d="m0 0 4 1 10 10 7 9 11 12 9 12 11 14 14 18 12 19 4 4 40 1-1 30-6 85-3 44-1 10-2 1h-19l-11-33-6-23-2-11-5-21-12-48-4-17-5-14-6-18-10-24-8-17-5-7 16 32 3 10 5 12 9 27 5 19 15 62 9 39-1 4-12-6-6-2 16 8 4 1 8 24v3h-145l-3-4-4 4h-59l3-3 13-4 9-1h12l24 2-11-14-8-11-11-16-9-16-2-4-10 1-5 1h-8l-15-4-21-14-12-9v-2h19l21 6 14 8 14 9-1-4-8-16-6-15-3-1-7 2h-11l-13-5-11-7-13-10-3-2 1-3 17 1 9 2 14 7 11 8 6 4-1-7-7-21-1-1-15-1-14-7-10-9-11-11v-2l11 1 12 4 14 10 8 8 5 3-6-22-1-7h-12l-10-2-9-6-15-14-4-5v-1h8l9 2 13 7 10 9 7 6 9 1 1-14-4-14v-4l5 2 5 3 3-9 4-6 1-6 1 2 8-5 2 1-2 16-2 10v6l5 3 6-1 1 2v4l16 10 6 4h76l1-75z" fill="#437FA4"/>
<path transform="translate(1263,1086)" d="m0 0h38l-1 13-7 26-8 25-4 25h48l2-1-11-7-9-7 4-13 12-28 10-29 2-4h14l1 1 4 51v14l-1 23h51l1-2 2 4 4 4 8 6 3 4v6l-4 5-2 1v3l-11 9-13 11-17 12-17 11-15 9-23 12-23 10-20 7-21 6-25 6-41 5h-39l-26-3-20-2-42-9-36-9-45-14-36-12-22-7v-1l16-1 1-2 5-59 2-11 1-1h7l4 10 13 37 10 25 2 4 13-1 15-2-2-9-5-14-6-23-3-20v-6l1-1h39l80 1 1 1 5 47 2 7 9 6 5 1h91l9-2 4-4h2l4-36 5-48 4-53z" fill="#eee"/>
<path transform="translate(576,728)" d="m0 0 38 1 46 6 17 4 16 7 19 7 20 9 18 10 10 6 12 7-1 8-9 20-10 24h-5l-19-10-11-5-16-6-19-7-18-5-8-6-14-5h-19l-15 5-9 7-6 9-2 7-1 15-3 3-11 5-6 3-6 5-2 4h-2l-1 4-2 3-1 5v10l2 7 6 8 7 6-2 4-5 6-8 20-4 14-9 34-4 23-2 18-91-1v-18l3-33 3-49 6-73 3-46 3-41 4-3 13-5 17-5 21-7 20-4z" fill="#FAFAFB"/>
<path transform="translate(803,570)" d="m0 0 4 2 11 21v3l15-3h16l16 4 14 7 10 9 8 10 8 15 3 6 8 2 11 6 10 9 12 12v5l-4 2h-7l-10-5-12-11-7-8-2 16-2 10 18 6 12 7 12 11 13 13 2 1-1-10 4-28v-13l3-8v-7l-4-5-1-4 3-8 7-7h2v-22l-1-3 1-10v-5h4v39h2v2l4 2 5 4v2h2l2-5 8-5h2l-1 6-9 21-5 10v9l5-3 12-10h1v6l-7 24-5 11-1 2h-2v8l-2 2h-6l-14 7h-3l1 7h-4l-2-5-21-3-9-4-10-8-9-9-9-12-3-1-2 7-8 10-9 9-10 6-15 6-11 2h-10l-13-2-4 7v8l-4 11-7 15-10 24-22 50-5 12-4 2-18-8-1-2 10-24 9-20 4-10 1-5-5-2-16-9-17-10-17-8-24-9-9-4-7-3v-1l15-4 16-8 22-15 3-4h-27l-15 6-10 5-22 14h-3l1-8 5-21 4-4 16 2h16l12-5 16-10 11-8 6-5 1-2-23 1-8 2-20 8-16 10-9 5h-4l3-9 9-23 1-1h10l8 1h9l9-2 10-5 17-12 7-6-2-1h-9l-14 2-15 5-15 9-6 4-7 2 1-6 8-16 7-13 16 4 10 1 16-4 16-8 13-7 1-2-7-1h-16l-15 2-21 9-5 3h-5l2-5 7-12 6-8 3-1 6 3 5 1h12l10-3 10-4 14-8 8-9z" fill="#7D82A2"/>
<path transform="translate(1245,962)" d="m0 0 5 1 4 10 2 6v6l-2 7v6h-2v9l-3 19-2 17 10-1 1-7 7-1 6 3v11l-5 3-2 35-3 32-3 37-7 69-2 6-5 2-1 3-9 2h-91l-7-2-8-6-2-7-5-47-80-1-40-1-1-2-1-16 2-4 72-1h47l-1-3-3-39-2-19-2-27v-19l40-1h43v-9l6-39 1-2-8-3-3-3 1-4 8-11 3-3 6 1 5 13 1 6-1 2-2 16v8l-3 6-3 21v1l17 1v-11l1-2 2-16 2-5 1-9 3-12 1-9 10-16z" fill="#FCC173"/>
<path transform="translate(493,1060)" d="m0 0h61l9 1 12 5 26 7 9 2 22 2 1 2v54l-102 1-5-1h-300l-8-1v-71z" fill="#B26159"/>
<path transform="translate(914,889)" d="m0 0 4 1 3 9 6 7h8l7-3 5 1 1 4-2 2 2 1-1 13-3 12-2 3-2 25-4 5-2 2-3 1h-14l-2-7-1-6-10-7 6 12 3 8v9l-1 1h-16l-8-10-3-4 2 5v4h-9l-3-5-5-14-9-26-4-12-4-1 6 15 12 36v7l-3 4h2l5 8 7 4v2l-31 15-20 9-10 6-13 6-4 1 8 7 4 5 2 8v7l14-8 40-20 25-12 16-8 13-6h7l1 3-2 12-1 2-3 26-1 2-1 12 7 1-1 7-2 10-5 29-4 23-2 19-2 1h-63l-19-1-4-5-5-6-8-5-15-5-9-2v-65h-17v-2l5-4 7-11 4-2 1-50-1-8-1-2 15-27 14-24 8-15 5-1 15-7 16-6 33-11z" fill="#FAFBFC"/>
<path transform="translate(940,807)" d="m0 0h9l14 3 11 7 7 7 8 16 1 3v20l-4 8h9l8 3 11 10 3 5 1 4v16l-5 8-7 7-8 4h-12l5 9 1 2 10-5 21-10 19-10 15-7 4 1 10 19 2 5-17 9-56 28 3 22 3 47v9h5v1h-5l1 5v7l-7 1-13 1-54 2-7-1-1-2 1-11 1-2 3-26 2-9 1-7h-7l-19 9-16 8-23 11-44 22-4 3h-2l-2-13-4-6-6-6-3-2 12-5 15-8 16-8 34-16h2l-3-3-6-4-3-5v-2h-2l2-4v-7l-14-41-3-10 5 1 6 18 11 32 3 6 9 1-3-11 4 4 8 11h16v-9l-5-12-3-6v-2l4 2 6 4 2 4 1 9h14l3-2 5-5 2-25 4-9 3-19h-6l4-2 1-3-1-2-5 1-6 2h-8l-7-8-3-9-12 2-38 12-15 6-16 7-2-1 16-8 18-7 28-9 17-4h2l-4-20v-5l-2-1 5-1 2 2-2-4-3-12v-12l3-11 4-6 5-5 4-3zm-35 56 4 1-33 11-3-1 19-7z" fill="#FC9C68"/>
<path transform="translate(912,720)" d="m0 0 10 1 5 4 3 7v7l-8 16-7 11-13 24-26 46-16 29-18 32-8 14-10 18-14 25-9 16-8 14 1 1 1 9-1 50-5 2-2 5-7 9-3 1v2l15-1 2 1 1 64-9 3-16 6-8 6-4 6-1 3-27 1-4-9-9-25-16-47-6-18-4-7-11-6-2-1v3l-5-1-35-16-9-4 1-5-4-2 2-4 4-6 5-3 5-5 2-4 21 2 37 6 5-1 4-2v3h-2v2l19 4 16 4h4l4-16 6-10 6-12h2l2-5 8-16 4-6 4-8 5-8 6-12 5-9 5-8 6-11 5-8 4-8 6-11 9-15 6-11 11-20 5-10h2l2-7h2l1-5 4-6 5-11h2l2-5 4-9h2l2-6 10-19 6-10 8-7z" fill="#FBFBFC"/>
<path transform="translate(1192,429)" d="m0 0 2 1-4 28-3 8-7 9-9 7-6 7 5-1 15-7 15-3h16l7 2-2 3-16 8-17 7-8 1-15-5-4 1-9 10-8 11 11-4 11-5 10-2h22l4 2-5 4-17 9-14 5h-9l-17-5-2 5-10 15-4 7 25-12 17-4h15l11 2-1 3-17 9-14 7-6 2h-18l-11-4-4 1-9 19-2 3h8l12-3 16-7 12-2h16l-2 4-3 4 24 2 23 3 44 4 38 4 80 9 1 1v8l-1 3-108 12-31 4-66 6h-19l-64-6-62-7-19-2-16-1-4 12-5 8-3 1-2-1v-39h-4l1 8-2 9-5 4-9 4h-5l-1 30-3 2-13-3-9-6-9-10-11-19-2-4 9 3 9 5 10 9 9 11 7 11v-29l-7-3-13-5-10-10-8-13-6-11 5 1 14 7 10 9 9 12 5 7 4 1-1-6-5-1-2-5v-8l-5-11-2-11v-17l1-5 5 5 10 19 3 10 1 9h8l5-5 11-10 7-4 6-2-1 6-6 12 27-3 29-3h8l-4-12-3-10v-4l5 2 9 7 8 10 1 4 22-1-1-4-7-10-3-9-2-21-1-21 3 1 10 14 8 17 2 6 1 21 1 4h4l11-23 3-5-1-4-5-5-6-7-5-12-2-11v-27l4 2 7 10 7 16 1 5 1 17 2 11 12-19 4-5-1-4-6-8-4-9v-22l2-16h3l7 14 2 8v29l1 2 9-11 7-10-1-4-7-9-2-5-1-7v-10l2-24 4 2 7 16 1 6v32l5-5 3-9 4-16 4-11 7-9z" fill="#588CA9"/>
<path transform="translate(1388,752)" d="m0 0h2l2 3v20l-3 12-7 14-5 7 12 5 6 4-3 2-19 4-8 1h-9l1 4 3 9 7 48 3 19 3 24 4 29v6l-1 1h-19l-42-1-3 7 1 5 5 5h3l-2 4-6-1-5-1-1 11-2 4-2 1h-7l-5-5-1-2v-8l3-8v-5l-5-3v-42l-3 5-25-8-6-1h-22l-14 3-16 4-6 1h-9l1 3-2 1 14 7 1 3-9 17-2 2-12 2-7 1 6 11v6l-7 3h-10l-6-4 1-6h-2v-10l1-1v-7l-2-6-3-36-1-32 6-3 1-13 1-28 1-2 4 1 7 10 7 16 1 3 6-1 9-5 5-3 3 8 8 17 4 8-1 2 3 1 8 5 14 7 11 2h9l18-3 17-6 5-1 1-7-9-3-6-1h-32l-17 4-8 2h-9l2-4 10-10 7-8 13-12 5 2 11 8 11 5 9 2h10l9-1 5-20-14-1h-11l-20 3h-12l1-3 10-7 12-10 7-5h2v2l4 2 11 7 13 3 7-18-30 2v-4l12-7 16-11 6 4 5 4 5-2 5-7v-1l-6 1h-12l4-4 9-4 2-2h4l1-5 3-2v-6l-5-9 1-5 5-5h5l6 5 1 2v8l10-3-2-10 1-8 5-4 9-2z" fill="#FCC173"/>
<path transform="translate(195,1189)" d="m0 0h384l27 1v29l-40 13-32 13-3 1h-337l-3-2v-53z" fill="#CB3C3D"/>
<path transform="translate(323,747)" d="m0 0 4 1 10 10 7 9 11 12 9 12 11 14 14 18 12 19 4 4 40 1-1 30-6 85-3 44-1 10-2 1h-19l-11-33-6-23-2-11-5-21-12-48-4-17-5-14-6-18-10-24-8-17-5-7 16 32 3 10 5 12 9 27 5 19 15 62 9 39-1 4-12-6-6-2 16 8 4 1 8 24v3h-19l-4-12-13-28-13-21-14-19-12-14-7-8v-2l-4-2-8-8-8-7-10-9-11-9-10-8-17-12-10-7-4-4 74-1 1-75z" fill="#41BCAF"/>
<path transform="translate(988,306)" d="m0 0h8l9 3 10 6 7 8 5 11 3 12 4-1 8-7 13-6 4-1h11l13 4 11 6v2l4 2 8 10 4 15v13l-2 6v5h15l10 3 8 7 4 6 1 3v11l-6 1-45 1h-104l-111-2-2-1 2-9 8-5 3-1h9l11 2v-15l3-9 8-6 9-4h16l16 5 6 3h2l-9-30v-16l3-12 6-9 9-8z" fill="#E2F1F9"/>
<path transform="translate(1159,724)" d="m0 0h39l106 2 1 4v3 9l-2 5v13l4 11 4 17 4 13-1 5-12 7-9 6-5 4h-2l1-7 6-15 4-13 1-7v-13l-1-4v-9l-4 2-2 5-9 17-4 13-2 9 1 8 4 12v7l-8 6-10 8-11 8h-1l1-10 5-15 2-13 1-9v-2l-4-20-5-9-4 9-6 21-3 14 1 15 4 9 5 11-1 5-15 13-11 11-6 7-1-4 6-31 1-11 1-3-2-7-2-13-5-16-3-4-6 18-6 24-1 15-1 4-11 7-5 2-5-1-7-17-7-11-4-2-1 30-1 14-7 2-2-16-5-60-2-35v-7h-12l-1-8-2-4 7-7h2l1-3 9-7z" fill="#41BCAE"/>
<path transform="translate(481,384)" d="m0 0 5 1 20 8 14 8 10 9 6 9 4 8 1 33 3 6 17 13 9 6 6 7 3 7 1 5-1 26 5 14 8 8 14 10 3 2-10 11-5 5-5 8-5 5-4 6-2 4-5 5-3 5-4 6h-1l-2-20-57-1-6-1 3-16v-12l-3-9-12-13-9-13-2-5v-10l7-25 1-9-6-12-11-12-6-12-1-3v-18l5-17 8-16z" fill="#43BDB0"/>
<path transform="translate(338,782)" d="m0 0 4 5 6 10 9 20 11 29 5 16 4 16 10 39 8 33 4 19 7 25 6 18 1 4h21l11 1v-7h1v7h90l2 5 3 14 4 7 1 3h2l7 8 7 6v1h-344v5h-1v-5h-25l-1-1-1-8-1-26-5-1 3-3 12-6h47l12 1 2-4 3-1 2 4h72l73 1-8-24v-3l-7-1-15-8-1-2 9 3 12 6-2-11-6-28-15-60-4-17-6-20-9-25-3-8-8-18-9-16z" fill="#FCC173"/>
<path transform="translate(623,792)" d="m0 0h19l16 6 9 8 4 6 3 12-1 12-4 6-3 3-8 2h-8l-11-3-8-5-6-1-3 17-6 17-9 14-9 10-1 2 5 2 5 6 4 2 4 24v3h13l34 4 20 4v1h-7l-27-4-32-3 2 18v8h13l6 1v1h-17l1 15 4 4 13 6 6 2-2 5-5 5-5 3-6 9 2 1-3 1-1 2-11-1-8-2-1 3-25 9-28 11-9 2-3-7-2-11v-12l3-22 4-19 8-31 3-9 6-15 3-6 6-7-2-4-8-7-4-7-1-5v-10l2-7 3-5h2l2-5 9-7 12-5 4-1 1-17 4-11 8-9 8-5z" fill="#42BCAF"/>
<path transform="translate(724,507)" d="m0 0 2 1 7 16 2 6 1 7v27l3-3 5-16 5-15 7-13 9-10h3l-1 8-6 27-6 10-13 11-4 5 9-3 12-6 11-3h24l4 2-4 3-22 12-8 3h-17l-9-3-5 1-9 11-7 9v1l10-4 15-7 10-2h25l-2 4-9 6-12 6-10 4-5 1h-12l-10-3-4-1-2 4-9 14-4 7 6-2 17-8 12-4 11-1h16l7 2-1 3-17 9-15 7-13 3-10-1-16-4-14 28-1 5 10-4 5-4 14-8 17-5 14-1h7v3l-11 9-15 10-8 4-9 2h-9l-8-1h-10l-10 25-3 7 8-3 25-15 18-7 6-1h23l-2 4-9 7-21 14-8 4-6 2h-16l-16-2-3 3-6 25-1 4 11-6 16-10 8-4 15-6h27v3l-7 6-18 12-16 8-10 3h-9l-13-3-30-4v-2l-4-1-7-8-10-12-9-14v-3h-2v2h-2l1-6-4-4v-4l5 1 3 1 10-17 7-11 4-7-1-9-1-6 4 2 3 3h2l6-9 3-7 10-18 6-5h6l7 12 5 15 3 23 1 5h2l1-4 4-2 2-10 3-12v-6l-7-11-7-15-2-2h2l-1-28 1-3 3-1 6 8 3 5v2l3-1 3 1v5l-1 4 3 7 2-1 3-14 3-30 2-17h1l1 8 6 10 3 12 1 5v13l-1 5v10l4-5 4-6 9-10 1-3-11-15-2-5v-21l3-16z" fill="#41BBAE"/>
<path transform="translate(1406,873)" d="m0 0h16l17 5 15 6 16 8 3 2-1 13-6 25-5 12-4 8-8 9-10 7-5 2-24 1-10 3-7 6-10 21-3 8v7l2 13 5 45 1 13v50l-2 16v6l22 14v2l-2 1h-49l-1-1 1-23v-14l-3-41v-9l2-2 7-2v-55l-1-30-19-1v2l-18-1-1-1-1-16-6-2-6-7 2-9 2-2 42 1h19l-1-15-6-42 2-5 5-5 11-13 11-7z" fill="#356D83"/>
<path transform="translate(803,570)" d="m0 0 4 2 11 21v4l-12 6-9 7-10 10-8 15-3 11v27l2 9 7 14 8 10 10 8 4 3-2 4-3 8h-4l-2 6-10 23-9 20-4 10-1-3-5-2-16-9-17-10-17-8-24-9-9-4-7-3v-1l15-4 16-8 22-15 3-4h-27l-15 6-10 5-22 14h-3l1-8 5-21 4-4 16 2h16l12-5 16-10 11-8 6-5 1-2-23 1-8 2-20 8-16 10-9 5h-4l3-9 9-23 1-1h10l8 1h9l9-2 10-5 17-12 7-6-2-1h-9l-14 2-15 5-15 9-6 4-7 2 1-6 8-16 7-13 16 4 10 1 16-4 16-8 13-7 1-2-7-1h-16l-15 2-21 9-5 3h-5l2-5 7-12 6-8 3-1 6 3 5 1h12l10-3 10-4 14-8 8-9z" fill="#FCC173"/>
<path transform="translate(1e3 1060)" d="m0 0 3 1 4 14v23l-6 48-1 16 1 9 1 3 1 15 5 23 5 18 5 13-1 4-21 3h-7l-6-12-13-35-10-29h-7l-3 21-4 49-2 3h-19l-9-4-1-2-1-32 1-37h2l2-31 4-27 5-28 1-9 4-13 1-1 53-2z" fill="#427EA3"/>
<path transform="translate(914,889)" d="m0 0 4 1 3 9 6 7h8l7-3 5 1 1 4-2 2 2 1-1 13-3 12-2 3-2 25-4 5-2 2-3 1h-14l-2-7-1-6-10-7 6 12 3 8v9l-1 1h-16l-8-10-3-4 2 5v4h-9l-3-5-5-14-9-26-4-12-4-1 6 15 12 36v7l-3 4h2l5 8 7 4v2l-31 15-20 9-10 6-13 6-4 1 8 7 4 5 2 8 1 8-2 1-10 1h-10v58l-1 8-2-1v-64h-17v-2l5-4 7-11 4-2 1-50-1-8-1-2 15-27 14-24 8-15 5-1 15-7 16-6 33-11z" fill="#FBFBFC"/>
<path transform="translate(712,327)" d="m0 0h14l7 4 5 5 5 8 3 7 1 11-4 14-6 17 8-2 15-5 8-1 10 4 9 7 3 5v10l1 2h12l7 2 6 4 2 3v4l-13 1-63 1h-140l-10-1-2-3v-7l2-6 4-6 8-3 9-1h9l-2-11v-11l5-13 9-10 9-6 9-2 14 1 11 4 9 6 3-1 4-13 4-7h2l2-4 6-5z" fill="#E2F1F9"/>
<path transform="translate(319,435)" d="m0 0h9l10 5 7 6 6 11 3 11 2 1 10-7 12-5 3-1h9l12 4 9 7 7 8 5 13v13l-3 6v2l6 1h7l10 3 7 6 2 4v12l-1 1h-211l-13-1-1-5 9-6 2-1 12-2 2-5 3-9 10-9 10-4h8l19 8 3-1-4-11-3-13v-17l2-8 6-9 9-6z" fill="#E2F2FA"/>
<path transform="translate(1308,982)" d="m0 0 11 1 4-1 2 16 15 1 3 1v-2h19l1 1 1 30v55l-2 2-8 2-1-1h-14l-8 24-11 27-5 11-3 11 11 8 9 6-3 2h-45l-3-1 1-13 3-15 10-32 4-16 2-13h-37l-1-3 2-32 5-3v-11l-5-2h-7v-19l1-16 2-2h35l9-2 2-12z" fill="#7E81A1"/>
<path transform="translate(1006,1048)" d="m0 0 13 1 36 4 41 7 17 3 2 28 3 27 2 32-47 1h-73l1-15 5-38v-23l-3-10v-4l4-1z" fill="#FAFAFC"/>
<path transform="translate(204,693)" d="m0 0 4 4 6 16 10 18 9 11 8 8 14 11 4 3 1-21 5 1 4 2h14l5-2 1-2h3l1 38 1 1h27v65l-1 1h-76l-20-13-3-2v-5l-6 1-6-4 1-12 3-18-1-2-6 4h-2l-1-2z" fill="#9B4644"/>
<path transform="translate(260,598)" d="m0 0h9v1h-8v103l10-2h10l9 3 4 5 2 11-1 15-4 8h-2l-1 3-5 2h-14l-9-4v21h-3l-14-12-8-7-9-10-7-11-8-16-5-12-1-2-1 86h-1v-180l1-1z" fill="#B2625A"/>
<path transform="translate(912,720)" d="m0 0 10 1 5 4 3 7v7l-8 16-7 11-13 24-26 46-16 29-18 32-8 14-10 18-14 25-9 16-15 27-7 12-2-1-3-5-9-6-12-2 2-5 9-18h2l2-5 8-16 4-6 4-8 5-8 6-12 5-9 5-8 6-11 5-8 4-8 6-11 9-15 6-11 11-20 5-10h2l2-7h2l1-5 4-6 5-11h2l2-5 4-9h2l2-6 10-19 6-10 8-7z" fill="#CB3E3E"/>
<path transform="translate(217,1066)" d="m0 0h1v67l-54 1v55l26 1 1 1 1 53 2 1 335 1-3 2-18 8-49 21-18 5-9 3h-22l-44-6-72-12-23-5-19-4-13-5-8-2-38-2-5-2-1-9-5-5-11-9-10-9-2-5v-8l1-5 1-65 2-1h49l5 1z" fill="#EEEEEF"/>
<path transform="translate(382,815)" d="m0 0 4 4 10 15 7 11 2 1 40 1-1 30-6 85-3 44-1 10-2 1h-19l-11-33-6-23-2-11-5-21-12-48-4-17-1-4 3-1 1 1 5-17 2-14z" fill="#41BBAE"/>
<path transform="translate(1326,465)" d="m0 0h8l9 4 7 6 6 12 4 2 11-5 6-2h12v-2l-6-8 4 2 21 21 6 8h-7l5 12 2 5 4 2 9 6 1 3 4 2 5 5v5l-1 1-16 2-23 1h-119l-25-1-2-1 1-5 5-5 7-2h8l1-1 2-10 7-6 7-3h14l8 3h3l-1-5-2-5-1-13 2-13 4-8 4-5z" fill="#E2F2FA"/>
<path transform="translate(981,463)" d="m0 0 7 1 15 6 16 8 13 10 7 8 7 14 1 37 3 7 4 4-5-2-3-2 4 14 3 12-58 6h-6l3-9 4-9-11 5-5-9-9-10-8-11-4-11-1-5v-12l3-15 5-12 11-21z" fill="#FCC273"/>
<path transform="translate(829,609)" d="m0 0h23l11 4 10 7 7 6 7 11 5 14v15l-4 13-5 10-10 11-12 7-11 3h-18l-14-4-10-7-7-7-8-14-2-6-1-7v-13l2-9 6-12 9-10 10-7z" fill="#FBFCFD"/>
<path transform="translate(379,762)" d="m0 0h11l8 7 1 4h2l2 8 3 1 43 1 1-16 7-2 5 1 1 1v18l-3 41-3 45-5 60-3 47-4 39h-11v-11l5-73 4-56 2-30h-40l-5-5-12-19-22-28-8-10v-2h6l2-11 5-8z" fill="#9B4644"/>
<path transform="translate(506,599)" d="m0 0h56l1 1 1 75v54l-5 2-32 5-15 4-4-1 1-5v-22l-2-8-2-1z" fill="#B26159"/>
<path transform="translate(1157,837)" d="m0 0 4 1 7 10 7 16 1 3 6-1 9-5 5-3 3 8 8 17 4 8-1 2 3 1 8 5 14 7 11 2h9l18-3 17-6h4l-1 11-4 14-4 6-25-8-6-1h-22l-14 3-16 4-6 1h-9l1 3-2 1 14 7 1 3-9 17-2 2-12 2-7 1 6 11v6l-7 3h-10l-6-4 1-6h-2v-10l1-1v-7l-2-6-3-36-1-32 6-3 1-13 1-28z" fill="#427EA4"/>
<path transform="translate(1297,754)" d="m0 0 1 2v8l1 4v13l-3 14-7 19-3 9 9-6 10-7 9-5-1-8-4-12v-6l8 6 5 4 3 1v2l13 1-1 4-5 2-4 3-9 4h11l7-1-2 5-5 6-4 1-10-8-11 7-16 10-2 1v2l31-2-7 19-2 1-12-3-11-7-4-3v-2l-14 10-12 10-5 3-1 2 17-2 15-2h11l11 1 3 1-1 9-3 11-1 1-9 1h-10l-11-3-12-6-11-8-4 2-15 14-9 10-6 7 14-2 14-4 6-1h32l12 3 4 2-1 7-27 9-14 2h-9l-14-3-11-6-9-5-4-2 2-2-8-16-4-9-2-11 1-15 7-27 5-15 2-1 5 10 4 15 2 15 1 2-1 2-2 15-5 27v3l14-15 7-7 11-9-1-6-7-15-2-13 1-11 6-22 5-15 3-2 5 10 2 8 1 12 2 1-1 1-2 18-5 17-2 6v5l12-9 11-9 5-3v-7l-5-16 1-10 4-11 2-7 11-20z" fill="#437EA3"/>
<path transform="translate(940,807)" d="m0 0h9l14 3 11 7 7 7 8 16 1 3v20l-4 8h9l8 3 11 10 3 5 1 4v16l-5 8-7 7-8 4h-17l-8-5-7-8-5-10-1-7v-11l1-9-17-2-16-5-10-7-4-5-3-12v-12l3-11 4-6 5-5 4-3z" fill="#622728"/>
<path transform="translate(737,1173)" d="m0 0h23l5 6 10 4 10 2h20l16-4 5-4h2l2-4h86l-1 46 1 24-9-2-37-12-36-10-40-9-34-5-9-1v-3l17-2-20-9-5-2-6-12z" fill="#EEEDED"/>
<path transform="translate(1261,1034)" d="m0 0 7 1 3 2v11l-5 3-1 16h-1v-9h-2l-2 13-1 12 1 10-1 25-1 9v7l-2 7v15l-3 35-5 36-3 3-6 4-8 1h-82l-8-3-10-4-3-7 4-2 12-3 12-5 11-3 20-9 13-7 4-2 1-3h2l2-4 9-9 5-7 10-22 7-21 4-14 5-22 2-15 4-26 1-3h-30v-1l31-1 1-7z" fill="#F9B565"/>
<path transform="translate(623,792)" d="m0 0h19l16 6 9 8 4 6 3 12-1 12-4 6-3 3-8 2h-8l-11-3-8-5-6-1-3 17-6 17-9 14-9 10-7 3-4 1h-16l-11-10-4-7-1-5v-10l2-7 3-5h2l2-5 9-7 12-5 4-1 1-17 4-11 8-9 8-5z" fill="#CB3D3E"/>
<path transform="translate(1315,962)" d="m0 0 42 1 10 1v2h4l4 18 3 22 2 1v9l2 13 5 45 1 13v50l-2 16v6l22 14v2l-2 1h-49l-1-1 1-23v-14l-3-41v-9l2-2 7-2v-55l-1-30-19-1v2l-18-1-1-1-1-16-6-2-6-7 2-9z" fill="#37A99E"/>
<path transform="translate(791,1128)" d="m0 0 12 1 17 6 9 7 6 8 25 1h57l2 1-1 15-1 5-2 1-85 1-5 5-7 4-13 3h-20l-16-4-6-4-3-4-24-1-7-21 2-1h26l1-5 7-8 12-6z" fill="#C93E3E"/>
<path transform="translate(724,507)" d="m0 0 2 1 7 16 2 6 1 7v27l3-3 5-16 5-15 7-13 9-10h3l-1 8-6 27-6 10-13 11-4 5 9-3 12-6 11-3h24l4 2-4 3-22 12-8 3h-17l-9-3-5 1-9 11-7 9v1l10-4 15-7 10-2h25l-2 4-9 6-12 6-10 4-5 1h-12l-10-3-4-1-2 4-9 14-4 7 6-2 17-8 12-4 11-1h16l7 2-1 3-17 9-15 7-13 3-10-1-16-4-6 12-4 7-2-3 4-14 1-11-7-11-7-15-2-2h2l-1-28 1-3 3-1 6 8 3 5v2l3-1 3 1v5l-1 4 3 7 2-1 3-14 3-30 2-17h1l1 8 6 10 3 12 1 5v13l-1 5v10l4-5 4-6 9-10 1-3-11-15-2-5v-21l3-16z" fill="#41BCAE"/>
<path transform="translate(1127,765)" d="m0 0h12l1 7 3 47 5 60 3 51 2 21 2 6v7l-1 1-1 10h2v6l5 3h10l4-2h3l2 31 1 2 1 20h1v7l3 1h-55l-2-9-8-33-1-5 16-2 6-2v-12l-4-57-6-88-3-41z" fill="#9B4644"/>
<path transform="translate(1e3 1060)" d="m0 0 3 1 1 9-2-3v-3l-5 1h-30l-29 1 2 11 4 28 7 30 6 22 3 12v3l-7 2-3 21-4 49-2 3h-19l-9-4-1-2-1-32 1-37h2l2-31 4-27 5-28 1-9 4-13 1-1 53-2z" fill="#39607D"/>
<path transform="translate(1343,708)" d="m0 0h11l10 3 16 8 13 7 17 2-3 6-9 11-4 5-6 3-17 2-6 3-2 4 1 10 1 5-7 3h-4l-2-10-5-4h-5l-5 6 1 5 4 7v6l-5 4-10-1-2-1v-2l-5-1-12-11-6-18v-13l6-15 7-10 7-6 16-7z" fill="#642829"/>
<path transform="translate(1192,429)" d="m0 0 2 1-4 28-3 8-7 9-9 7-6 7 5-1 15-7 15-3h16l7 2-2 3-16 8-17 7-8 1-15-5-4 1-9 10-8 11 11-4 11-5 10-2h22l4 2-5 4-17 9-14 5h-9l-17-5-2 5-10 15-4 7 25-12 17-4h15l11 2-1 3-17 9-14 7-6 2h-18l-11-4-4 1-9 19-2 5h-3l1-6 12-23-1-4-5-5-6-7-5-12-2-11v-27l4 2 7 10 7 16 1 5 1 17 2 11 12-19 4-5-1-4-6-8-4-9v-22l2-16h3l7 14 2 8v29l1 2 9-11 7-10-1-4-7-9-2-5-1-7v-10l2-24 4 2 7 16 1 6v32l5-5 3-9 4-16 4-11 7-9z" fill="#41BCAE"/>
<path transform="translate(182,843)" d="m0 0 4 2 4-2 4 1 4 13v7l-3 14 5-4 3 1 6 15v9l3 3 3 5 5 12 5 13v8l-1 7 3-4 3 1 8 16 6 13-1 7 4 1 3 4 4 8 8 12 2 4-1 4-4 2-1 2h-59l3-3 13-4 9-1h12l24 2-11-14-8-11-11-16-9-16-2-4-10 1-5 1h-8l-15-4-21-14-12-9v-2h19l21 6 14 8 14 9-1-4-8-16-6-15-3-1-7 2h-11l-13-5-11-7-13-10-3-2 1-3 17 1 9 2 14 7 11 8 6 4-1-7-7-21-1-1-15-1-14-7-10-9-11-11v-2l11 1 12 4 14 10 8 8 5 3-6-22z" fill="#7484A3"/>
<path transform="translate(941,909)" d="m0 0h5l2 2-1 13-3 12-2 3-2 25-4 5-2 2-3 1h-14l-2-7-1-6-10-7 6 12 3 8v9l-1 1h-16l-8-10-3-4 2 5v4h-9l-3-5-5-14-9-26-4-12-4-2h5l1 1 9 1 7 2 15-2 27-6 22-4z" fill="#ECEBEA"/>
<path transform="translate(903,754)" d="m0 0h6l10 5-8 15-10 17-6 11-16 29-12 21-11 20-13 23-9 16-10 18-14 25-9 16-15 27-7 12-2-1-3-5-3-3v-9l6-11 15-25 12-23 7-12 6-11 15-27 14-23 8-16 10-19 13-23 4-7h2l2-6 6-9 9-19v-5l3 1z" fill="#B62D2F"/>
<path transform="translate(1367,1243)" d="m0 0v3l-20 12-23 12-23 10-20 7-21 6-25 6-41 5h-39l-26-3-20-2-33-7-2-2h8l9 2h27l25-4 48-5 24-3 39-6 32-6 31-6 24-6 13-5z" fill="#FCFCFD"/>
<path transform="translate(331,565)" d="m0 0h104l2 1v32l-2 1h-103l-2-3v-14z" fill="#FBF7F6"/>
<path transform="translate(1e3 1112)" d="m0 0h1l1 6h20l54 2 32 2 6 1 2 27-47 1h-73l1-15z" fill="#D1D9DD"/>
<path transform="translate(1372,621)" d="m0 0 2 1-8 17-9 17-10 21-6 10-7 14-6 10-1 2 2 1-10 5-7 8-6 1v-83l11-4 15-6 13-5 16-6z" fill="#43BCAF"/>
<path transform="translate(349,1076)" d="m0 0h153l1 2v19l-1 1h-153l-1-5v-13z" fill="#9B4644"/>
<path transform="translate(678,1039)" d="m0 0 6 2 9 6 5 12 12 36 15 43 5 14 8 24 5 10v2l10 3 16 7-1 2-17 2-1 1h-12l-17-1-4-10v-3h-2l-7-21-8-39-9-39-8-42-3-5-2-1z" fill="#346C83"/>
<path transform="translate(953,1173)" d="m0 0h7l4 10 13 37 10 25 2 4 13-1 16-2 3 12 1 5v13l-17-3-47-15-30-10v-1l16-1 1-2 5-59 2-11z" fill="#eee"/>
<path transform="translate(807,718)" d="m0 0 9 3 6 3-2 6-1 6-1 7-4 10-10 22-9 22-9 20-12 28-4 8-3 1-18-8-1-2 10-24 9-20 13-31 10-22 5-12 3-7h4l2-7z" fill="#B2625A"/>
<path transform="translate(1388,752)" d="m0 0h2l2 3v20l-3 12-7 14-5 7 12 5 6 4-3 2-19 4-8 1h-9l-1 3-7-1-8-4-12-4v-2l5-4 3-6-6 1h-12l4-4 9-4 2-2h4l1-5 3-2v-6l-5-9 1-5 5-5h5l6 5 1 2v8l10-3-2-10 1-8 5-4 9-2z" fill="#FDB98D"/>
<path transform="translate(619,964)" d="m0 0 18 1 14 2h14l2 2 19 3 30 7 25 7 10 3 3-1 1 3-3 6-3 13-5 1-33-8-2-1v-2h2l-1-2-4 3-10-1-39-6-19-3-16-8-2-3z" fill="#FBFCFD"/>
<path transform="translate(261,599)" d="m0 0h30l1 2v80l-1 22-10-2h-10l-10 1z" fill="#612627"/>
<path transform="translate(457,765)" d="m0 0 5 1 1 1v18l-3 41-3 45-5 60-3 47-4 39h-11v-11l5-73 4-56 1-20 1-4 1-25 2-33 2-28z" fill="#C93E3E"/>
<path transform="translate(579,1173)" d="m0 0h92l4 10 6 17v2l2 1-36 6-23 5-15 4h-3v-28h-27l-1-1v-15z" fill="#EEEDEC"/>
<path transform="translate(1301,1086)" d="m0 0h38l-5 16-10 27-9 20-3 11 11 8 9 6-3 2h-45l-3-1 1-13 3-15 10-32 4-16z" fill="#40BCAE"/>
<path transform="translate(499,598)" d="m0 0 7 1v104l-9-2h-11l-10 2v-99l1-5z" fill="#612627"/>
<path transform="translate(882,994)" d="m0 0 10 1 11 5 14 4 6 2-4 3-58 29-25 12-13 7-5 2-2-13-4-6-6-6-3-2 12-5 15-8 16-8 34-16z" fill="#588CA9"/>
<path transform="translate(1127,765)" d="m0 0h12l1 7 3 47 5 60 3 51 2 21 2 6v7l-1 1-1 10h2v6l1 4-2 7-4 1v4l-3-1 1-2-4-1-2-7-1-6-4-57-6-88-3-41z" fill="#C83F3F"/>
<path transform="translate(1006,1048)" d="m0 0 13 1 36 4 41 7 17 3 2 26-11-1-40-6-34-4-23-2-3-8-1-7 4-1z" fill="#FCFCFD"/>
<path transform="translate(1288,924)" d="m0 0h1v43l5 3-1 8-2 5v8l3 5 2 1v2h-35l-1 1-2 42-1 1h-10l1-17 4-28h2l-1-6 2-7-1-9-4-12-5-1h-2v2h-2l-1-7 5-13 13-4 23-6 2-5 3-3z" fill="#366C83"/>
<path transform="translate(940,546)" d="m0 0 5 5 10 19 3 10 1 9h8l5-5 11-10 7-4 6-2-1 6-6 12 4 1-9 2-4 1 1 16h4l8 2-4 13-5 8-3 1-2-1v-39h-4l1 8-2 9-5 4-9 4h-5l-1 30-3 2-13-3-9-6-9-10-11-19-2-4 9 3 9 5 10 9 9 11 7 11v-29l-7-3-13-5-10-10-8-13-6-11 5 1 14 7 10 9 9 12 5 7 4 1-1-6-5-1-2-5v-8l-5-11-2-11v-17z" fill="#7C82A2"/>
<path transform="translate(644,992)" d="m0 0 21 2 37 6 5-1 4-2v3h-2v2l19 4 16 4h4l4-16 13 2 9 6 3 3 1 7-11 11-11 8-5 1-3 1-2-19-16-5-17-4h-7l-9 10-7 9 13 3 25 5 27 7 8 3-4 1-25-7-28-6-20-3-2 4v-3l1-2-31-3v2l5 2 3 3-6-2-21-9-9-5 2-4 4-6 5-3 5-5z" fill="#EFEDEA"/>
<path transform="translate(893,1120)" d="m0 0h29l-1 12-2 19-2 1h-63l-19-1-4-5-5-6-8-5-15-5-6-1v-1l81-7z" fill="#D1D8DB"/>
<path transform="translate(975,590)" d="m0 0h4v39h2v2l4 2 5 4v2h2l2-5 8-5h2l-1 6-9 21-5 10v9l5-3 12-10h1v6l-7 24-5 11-1 2h-2v8l-2 2h-6l-4 1h-10v-2l-9 2 1-11 3-24v-12l3-8v-7l-4-5-1-4 3-8 7-7h2v-22l-1-3 1-10z" fill="#C93E3F"/>
<path transform="translate(1343,998)" d="m0 0h19l1 1 1 30v55l-2 2-8 2-1-1-89-1-1-3 1-11 3-6h2v-6l1 3h62v-14h12v6l7-5h2v-2h2l2-4 4-4v-40l-18-1z" fill="#5B7095"/>
<path transform="translate(316,551)" d="m0 0h134v47h-12v-32l-107-1v17l-1 16h-14z" fill="#612627"/>
<path transform="translate(1e3 1151)" d="m0 0h119l1 3 1 19h-121l-1-2-1-16z" fill="#C84040"/>
<path transform="translate(170,1133)" d="m0 0h26l15 1 1 2-2 10v42l-2 1-13 1-5 1-26-1-1-1v-47l1-8z" fill="#7C82A2"/>
<path transform="translate(397,1203)" d="m0 0 70 1h13l3 1 1 8-2 5-12 1-4 1-6-1-10 1h-71l-2 1-21-1h-32l-8-1-3-7v-6l5-1h17 3l17-1h35z" fill="#B72C2E"/>
<path transform="translate(973,607)" d="m0 0 3 1-1 22-8 7-3 9 3 5 2 3v7l-3 8v15l-4 26v10l-4-2-19-19-10-7-11-5-13-4-1-2 3-14 1-12 16 16 11 7 3 1h7l3-2 1-3 3 3v2h2l-2-21v-12l1-1 1-21 1-9 9-3 8-4z" fill="#5F7798"/>
<path transform="translate(198,1016)" d="m0 0h34l7 1v42l254 1v1h-275v5h-1v-5h-25l-1-1-1-8-1-26-5-1 3-3z" fill="#FBC074"/>
<path transform="translate(246,847)" d="m0 0h76l1 1 3 35 3 31-5-3-8-8-8-7-10-9-11-9-10-8-17-12-10-7z" fill="#FAFAFC"/>
<path transform="translate(633,1078)" d="m0 0h7l3 4 10 33 11 33v3h-85v-18h54z" fill="#D1D8DC"/>
<path transform="translate(676,559)" d="m0 0 5 5 5 8v2l3-1 3 1v5l-1 4 3 7 2-1 4-16 3 3 5 10 6 8-7 10-4 7-1 6-4 7 6-2 17-8 12-4 11-1h16l7 2-1 3-17 9-15 7-13 3-10-1-16-4-6 12-4 7-2-3 4-14 1-11-7-11-7-15-2-2h2l-1-28 1-3z" fill="#41BAAE"/>
<path transform="translate(1057,907)" d="m0 0 4 1 10 19 2 5-17 9-56 28-2-2-5-22-1-6 10-5 21-10 19-10z" fill="#5B9EB3"/>
<path transform="translate(993,608)" d="m0 0 26 2 1 1v79l-1 5-8 7-13 13v-8l6-24v-9l2-6v-5l-14 12-3 1-1-1v-9l7-15 8-18 1-4-9 5-3 5h-2l-9-9 3-1 2-5 4-8z" fill="#FDC175"/>
<path transform="translate(218,1061)" d="m0 0h32l-1 2 1 70h-24l-8-1z" fill="#B3625A"/>
<path transform="translate(217,1066)" d="m0 0h1v67l-54 1v55l26 1 1 1 1 53 2 1 335 1v1l-162 2-3 1h-73v-2h-101l-2-1-1-9-5-5-11-9-10-9-2-5v-8l1-5 1-65 2-1h49l5 1z" fill="#EDE0D8"/>
<path transform="translate(1018,712)" d="m0 0h1l1 11 139 1-5 5-20 15-5 5-5 6-30-10-16-5-22-5-22-4-20-2 1-5 1-1z" fill="#FCC274"/>
<path transform="translate(625,838)" d="m0 0h6l11 6 8 2h8l7-1-1 7-5 13-7 12-4 5 34 7 25 7 2 2-10-2-21-5-12-3-21-3-7 6-7 1-8-5-2-2h-3l-6 17-2 3-4-1-9-6 2-4 8-9 9-15 6-18 2-12z" fill="#FAB98E"/>
<path transform="translate(1297,754)" d="m0 0 1 2v8l1 4v13l-3 14-7 19-3 9 9-6 10-7 9-5-1-8-4-12v-6l8 6 5 4 3 1v2l13 1-1 4-5 2-4 3-9 4h11l7-1-2 5-5 6-4 1-10-8-11 7-16 10-2 1v2l31-2-7 19-2 1-12-3-11-7-4-3v-2l-14 10-12 10-6 3v-7l2 1 12-9 11-9 5-3v-7l-5-16 1-10 4-11 2-7 11-20z" fill="#447FA3"/>
<path transform="translate(1012,880)" d="m0 0 14 1 23 3 39 8 9 3-1 5-8-4h-7l-18 8-8 5-23 11-15 8-15 7-11 5-4-9-1-3 12-1 8-4 8-8 3-6v-16l-3-7-2-3z" fill="#FBFBFC"/>
<path transform="translate(911,861)" d="m0 0 4 1 7 4 8 5 14 4 17 2 1 3-1 7v11l2 10 6 11-5 1-14 10-5 3 3-22h-6l4-2 1-3-1-2-5 1-6 2h-8l-7-8-3-9-12 2-38 12-15 6-16 7-2-1 16-8 18-7 28-9 17-4h2l-4-20v-5l-2-1zm-6 2 4 1-33 11-3-1 19-7z" fill="#F9BB91"/>
<path transform="translate(944,911)" d="m0 0h4l-1 13-3 12-2 3-2 25-4 5-2 2-3 1h-14l-2-7-1-6-9-7-2-6 11-3 24-4-16 2-12 2h-7l-4-17v-2h-3l-1-3 5-2z" fill="#FCFCFD"/>
<path transform="translate(654,598)" d="m0 0h6l7 12 5 15 3 23 1 5h2l1-4 6-2-5 12v2l10-4 5-4 14-8 17-5 14-1h7v3l-11 9-15 10-8 4-9 2h-9l-8-1h-10l-9 23-2-2 2-9 4-10v-8l-12-12-6-12-3-14-2-17 1-3z" fill="#40BBAE"/>
<path transform="translate(1339,1086)" d="m0 0h14l1 1 4 51v14l-1 4-4 1-12-3-12-2h-14l1-7 12-29 9-26z" fill="#FAFBFD"/>
<path transform="translate(580,1151)" d="m0 0h83l2 1 6 20-1 1h-91v-21z" fill="#C83F3F"/>
<path transform="translate(1211,895)" d="m0 0 5 1 11 6 8 4 11 2h9l18-3 17-6h4l-1 11-4 14-4 6-25-8-6-1h-22l-14 3-16 4-17 2 4-7 11-14 9-11z" fill="#F9FAFC"/>
<path transform="translate(1263,1086)" d="m0 0h38l-1 13-7 26-10 30-1 5h-1v-19l-16-2-5-2v-19z" fill="#FBFCFD"/>
<path transform="translate(909,863)" d="m0 0h2l4 21v4l-15 4-23 7-19 7-15 6-8 4-2 3-3-1 2-6 6-10 9-16 10-4 12-5 16-6z" fill="#FBFBFC"/>
<path transform="translate(601,1074)" d="m0 0 19 2 12 1 1 2v54h-49v-1h18z" fill="#B2625A"/>
<path transform="translate(547,1133)" d="m0 0h32l1 19-2 37-5 1h-25l-1-1z" fill="#7E82A2"/>
<path transform="translate(1245,962)" d="m0 0 5 1 4 10 2 6v6l-2 7v6h-2v9l-3 19-2 17h-23l-1-11 1-2 2-16 2-5 1-9 3-12 1-9 10-16z" fill="#B2625A"/>
<path transform="translate(429,1105)" d="m0 0h48l25 2 1 1v7l-1 2-84 1-44-1h-24l-2-2v-6l1-2 11-1z" fill="#9B4644"/>
<path transform="translate(221,1191)" d="m0 0 2 2 1 12-1 13v8l2 9 1 5-1 4 2 1h-23l-11-1-1-2v-49l1-1z" fill="#CC3C3D"/>
<path transform="translate(716,1126)" d="m0 0 5 1 9 25 8 24 5 10v2l10 3 16 7-1 2-17 2-1 1h-12l-17-1-4-10v-3h-2l-5-15-1-9 2-4h2v-5l3-4 2-8v-3l-2-1 1-10z" fill="#38607D"/>
<path transform="translate(486,700)" d="m0 0h11l8 2v2h2l3 8v22l-1 5 1 2-25 8v-2l-5-1-8-10-1-5v-16l2-8 6-5z" fill="#FBBD71"/>
<path transform="translate(271,700)" d="m0 0h10l9 3 4 5 2 11-1 15-4 8h-2l-1 3-5 2h-14l-7-4-4-6-1-4v-19l3-9 4-3z" fill="#FCBE71"/>
<path transform="translate(289,742)" d="m0 0h3v18l-1 38-5-1-10-5-10 5h-5l-1-54 5 1 4 2h14l5-2z" fill="#622627"/>
<path transform="translate(1314,963)" d="m0 0 1 2h18l29 1 2 2v14l-2 16h-19v2l-18-1-1-1-1-16-6-2-6-7 2-9z" fill="#41BBAE"/>
<path transform="translate(404,847)" d="m0 0h41l-1 30-3 40-2 2-4-11-13-27-7-14-8-13-3-5z" fill="#FAF9F9"/>
<path transform="translate(621,650)" d="m0 0 1 2-3 7-8 13-5 9-1 4 16-4 9-3 6 1-3 2-16 6h-2l20 20 7 10 6 9 2-3 6-11h2l-2 15-3 6-1 1h-8l-14-2v-2l-4-1-7-8-10-12-9-14v-3h-2v2h-2l1-6-4-4v-4l5 1 3 1 10-17 7-11z" fill="#41BBAE"/>
<path transform="translate(648,608)" d="m0 0h2l4 25 4 9 5 8 10 10v9l-2 3-3 9-1 10-3 3h-3l-6-12-3-9v-3l5-3 3-4-10 3-9-15-6-7-4-2 1-5 14-26z" fill="#427EA4"/>
<path transform="translate(1247,859)" d="m0 0 5 2 11 8 11 5 9 2h19l-2 9-2 6-17-4h-32l-17 4-8 2h-9l2-4 10-10 7-8z" fill="#F9FAFB"/>
<path transform="translate(884,996)" d="m0 0h6l6 3 2 3-8 5-23 11-10 6-28 13-11 4h-5l-7-7-3-2 12-5 15-8 16-8 28-13z" fill="#5B9EB3"/>
<path transform="translate(564,687)" d="m0 0 2 3 8 24 3 6 3 1 2-6 13-21h3v-2h2l4 8 10 14 12 13 1 2 3 2-16-1-38-1-13 1z" fill="#4983A7"/>
<path transform="translate(182,843)" d="m0 0 4 2 4-2 4 1 4 13v7l-3 14 5-4 3 1 6 15-1 10-4 9-2-1-1-5h-3l-8-24-1-1-15-1-14-7-10-9-11-11v-2l11 1 12 4 14 10 8 8 5 3-6-22z" fill="#7C82A2"/>
<path transform="translate(1153,880)" d="m0 0 2 1 4 17 6 12 12 13 3 5-2 4-11 18-8 12-3 1-3-9-2-12-2-27-1-32z" fill="#FAF9F9"/>
<path transform="translate(343,1033)" d="m0 0h60l7 3 5 1v-2l17-1 3 1 9-1 5-1h12l1 4-1 7h-12l-1-1h-9l-2 1h-7l-6-2-5 2h-3l-47 1-32-1v-2l-2-1 1-6z" fill="#FC9C67"/>
<path transform="translate(1195,858)" d="m0 0 2 1 4 12 9 17 1 4-5 4-10 13-11 14-3 3-1-3-2-39-2-11 1-5 12-6z" fill="#FAFBFC"/>
<path transform="translate(250,1061)" d="m0 0h16v72h-16l-1-1-1-70z" fill="#9B4644"/>
<path transform="translate(378,1151)" d="m0 0h17l37 1 3 2v6l-4 2h-120l-3-3v-6l2-1z" fill="#5C6F94"/>
<path transform="translate(908,655)" d="m0 0 16 16 11 7 9 2 11 1 4 24 3 11v4l-4-2-19-19-10-7-11-5-13-4-1-2 3-14z" fill="#F8F9FA"/>
<path transform="translate(530,1189)" d="m0 0h49l27 1v29l-31 10-2-1 2-6v-13l-1-15v-2l-109-1v-1z" fill="#C64241"/>
<path transform="translate(719,1121)" d="m0 0 56 6 7 1h9v1l-14 4-12 6-6 7-2 5-27 1-4-9-7-19z" fill="#D2D8DC"/>
<path transform="translate(706,707)" d="m0 0h27v3l-7 6-18 12-16 8-10 3h-9l-17-4-1-5 1 3 11-6 16-10 8-4z" fill="#42BAAE"/>
<path transform="translate(1062,913)" d="m0 0h2l8 17v3l-25 12-19 10-28 14-2-2-2-13 7-3h4v-2l17-9 30-15 9-4v-5z" fill="#588CA9"/>
<path transform="translate(721,672)" d="m0 0h23l-2 4-9 7-21 14-8 4-6 2h-16l-17-3 5-4 22-13 10-5 13-5z" fill="#41BBAE"/>
<path transform="translate(1141,992)" d="m0 0 2 1 5 23 4 23v3l-2 1h-20l-2-9-8-33-1-5 16-2z" fill="#5C8BA8"/>
<path transform="translate(1212,974)" d="m0 0 2 3 1 3 8 1 9-2 1-2v11l-3 12-1 9-2 5-2 16-1 6-1 7h-17l-1-2 3-21 3-7 1-14 1-9 1-3-2-7z" fill="#356C82"/>
<path transform="translate(584,1069)" d="m0 0 17 4 1 2v57h-19z" fill="#9B4644"/>
<path transform="translate(1182,932)" d="m0 0 9 3 10 6-2 5-7 14-2 2-12 2-7 1 6 11v6l-7 3h-10l-6-4 1-6 8-15 5 1v-7l12-19z" fill="#FAFAFC"/>
<path transform="translate(221,1017)" d="m0 0h18v42l254 1v1h-272z" fill="#FAAE65"/>
<path transform="translate(396,1224)" d="m0 0h22l3 1 11-1h38l11 1 3 2-2 4-21 1h-67l-76-1-5-3v-2l7-1h65z" fill="#B72C2E"/>
<path transform="translate(751,621)" d="m0 0h2l-2 10-3 9h-12l-14 2-15 5-15 9-6 4-7 2 1-6 8-16 7-13 16 4 10 1 16-4z" fill="#F7FAFC"/>
<path transform="translate(795,982)" d="m0 0h1l1 55h2l4-4 4 1 8 8 2 4 2 14-2 1-10 1h-10v58l-1 8-2-1v-64h-17v-2l5-4 7-11 4-2z" fill="#EAE7E4"/>
<path transform="translate(1359,1148)" d="m0 0h26l1 11 22 14v2l-2 1h-49l-1-1 1-23z" fill="#376F86"/>
<path transform="translate(912,720)" d="m0 0 10 1 5 4 3 7v7l-8 16-4 4-14-6-10-5-4-1 11-19 8-7z" fill="#FC9C69"/>
<path transform="translate(1081,895)" d="m0 0h7l7 4 4 5 2 5-1 5-6 8-14 8-6 3-2-1-9-19-4-7 10-6z" fill="#F99B69"/>
<path transform="translate(1203,968)" d="m0 0 6 1 5 13 1 6-1 2-2 16v8l-3 6-3 21v2h-15l4-1v-9l6-39 1-2-8-3-3-3 1-4 8-11z" fill="#7D81A1"/>
<path transform="translate(633,680)" d="m0 0h4l7 8 16 9 1 4-3 10-6 10-3 6-4-4-8-12-11-12-7-7-4-3v-2z" fill="#427EA4"/>
<path transform="translate(827,606)" d="m0 0h27l1 2 8 3 5 1 6 4 3 3 3 5 4 4 6 11 3 6 1 6v15l-2 11-5 9-2 5-9 10-6 5-11 5-8 2h-19l-9-3-3-3 7 1 5 1h18l13-4 11-7 8-9 6-12 3-11v-15l-7-18-8-10-13-9-11-4h-23l-12 5-10 7-9 10-6 14-1 6v13l2 10 7 14 9 10 10 7-4 1-2-1v-2l-4-2-9-6-5-8v-3h-2l-5-11-2-12 1-15 5-12 6-10 5-6 10-7 8-4z" fill="#5E7195"/>
<path transform="translate(1285,1149)" d="m0 0 29 1-1 7-1 3 11 8 9 6-3 2h-45l-3-1 1-13 2-12z" fill="#386F86"/>
<path transform="translate(1235,827)" d="m0 0 3 1 4 10 6 13-1 5-15 13-11 11-6 7-1-4 6-31 1-11 5-5z" fill="#F8FAFC"/>
<path transform="translate(379,762)" d="m0 0h11l8 7 3 7v7l-5 8-4 4-3 1h-12l-7-6-3-5v-12l5-8z" fill="#652829"/>
<path transform="translate(1279,782)" d="m0 0 1 4-3 9-1 10 5 16v7l-8 6-10 8-11 8h-1l1-10 5-15 2-13 1-9 7-7 8-10z" fill="#F8FAFC"/>
<path transform="translate(148,923)" d="m0 0h19l21 6 14 8 15 10-3 3-10 2h-8l-15-4-21-14-12-9z" fill="#7C82A2"/>
<path transform="translate(178,970)" d="m0 0h21l12 3 25 9-3 3-10 5-3 1h-18l-12-4-23-10-3-3 7-3z" fill="#7C82A2"/>
<path transform="translate(536,1133)" d="m0 0 12 1v46l-1 9h-16v-55z" fill="#5C6F94"/>
<path transform="translate(744,609)" d="m0 0h16l7 2-1 3-17 9-15 7-13 3-10-1-12-3-4-2 2-4h6l16-8 14-5z" fill="#41BCAE"/>
<path transform="translate(660,996)" d="m0 0 14 1 30 5v3l-10 11-7 9-31-3-7 1 1-3 7-3 8-7-1-6-3-3z" fill="#FBFBFC"/>
<path transform="translate(1343,999)" d="m0 0h18l1 1v40l-4 2-3 6h-2v2l-6 4-3 1 1-19-3-1 1-2z" fill="#7E81A1"/>
<path transform="translate(1077,511)" d="m0 0 3 1 10 14 8 17 2 6 1 26-2 1h-7l-3-5-7-11-2-7-2-21z" fill="#41BDAF"/>
<path transform="translate(938,937)" d="m0 0 4 1-2 26-4 5-2 2-3 1h-14l-2-7-1-6-9-7-2-6 11-3 24-4z" fill="#FBFBFC"/>
<path transform="translate(799,663)" d="m0 0 38 4 21 3 24 3 6 4-2 7-4-1-25-2-47-7-12-3-1-1v-5z" fill="#E1F1F9"/>
<path transform="translate(712,696)" d="m0 0h2l-2 5-4 6-14 6-9 4-15 9-11 7h-3l1-8 5-21 4-4 16 2h16l12-5z" fill="#F8FAFC"/>
<path transform="translate(715,663)" d="m0 0h2l-1 10-9 4-14 6-16 10-9 5h-4l3-9 9-23 1-1h10l8 1h9l9-2z" fill="#F9FBFC"/>
<path transform="translate(672,593)" d="m0 0h3l7 15 7 11-1 11-4 15-1 3-4 2-1 3h-2l-2-5-3-23-5-15-6-10v-2l11-4z" fill="#427EA4"/>
<path transform="translate(212,906)" d="m0 0 4 2 9 24v8l-1 7 3-4 3 1 8 16 6 13-1 7 4 1 3 4 4 8 8 12 1 5-5-5-12-16-3-5v-3h-2l-9-13-10-18-12-23-5-12v-4z" fill="#F3F5F7"/>
<path transform="translate(196,1134)" d="m0 0h15l1 2-2 10v42l-2 1h-13v-35l1-8-1-9z" fill="#5C6F94"/>
<path transform="translate(1299,751)" d="m0 0h2l4 15 4 12 2 10 4 13-1 5-12 7-9 6-5 4h-2l1-7 6-15 4-13 1-7v-13l-1-4v-8z" fill="#F6F8FA"/>
<path transform="translate(1017,1246)" d="m0 0 2 2 3 15v13l-17-3-21-7 3-5 3-3v-8z" fill="#FCC174"/>
<path transform="translate(853,919)" d="m0 0 5 1 6 18 11 32 3 6 9 1-3-11 4 4 8 11 3 1 1 15 15 5 10 2 1 2-9-1-17-5-8-4-10-2-9-6-3-5v-2h-2l2-4v-7l-14-41z" fill="#FCB98C"/>
<path transform="translate(793,707)" d="m0 0 9 6 5 4-2 4-3 8h-4l-2 6-10 23-3 3-5-16-1-5v-8l5-12 5-5 3-1 2-5z" fill="#FAF9F9"/>
<path transform="translate(693,494)" d="m0 0h2l-1 8-10 32-8 21v5h-2v33l-10 5-10 1-4 4-1-2 2-9 4-1 16-34-1-4-8-17-1-9 3 1 2 8 7 14 4-8 12-36z" fill="#53A6B1"/>
<path transform="translate(223,1192)" d="m0 0h14l1 12v14l1 2-1 23-1 2h-10l-2-1-1-9-2-9v-15l1-12-1-6z" fill="#B72C2E"/>
<path transform="translate(643,994)" d="m0 0 12 2 8 6 3 4-1 5-8 7-3 2h-4l1 3 10 5 1 2-6-2-21-9-9-5 2-4 4-6 5-3 5-5z" fill="#F7B78D"/>
<path transform="translate(1280,832)" d="m0 0h2v2l4 2 11 7 12 3 1 3-2 5-4 1-11-1h-11l-20 3h-12l1-3 10-7 12-10z" fill="#F8F9FB"/>
<path transform="translate(558,1191)" d="m0 0h16l1 5 1 21-1 8-3 5-8 3h-6l-2-7 1-31z" fill="#B72C2E"/>
<path transform="translate(808,629)" d="m0 0h11l27 3 35 6 4 2v6h-12l-32-4-37-5 2-6z" fill="#E2F2FA"/>
<path transform="translate(737,1177)" d="m0 0 3 3 3 6v2l10 3 16 7-1 2-17 2-1 1h-12l-17-1-5-14 5-3 9-4 7-2z" fill="#64292A"/>
<path transform="translate(994,568)" d="m0 0h2l-1 6-6 12 4 1-9 2-4 1 1 16h4l8 2-4 13-5 8-3 1-2-1v-39h-4l1 8-2 9-5 4-9 4-4-1-1-10 3-1 3 3 7-2 3-7h1l1-8-4-1 9-10 9-7z" fill="#7D81A0"/>
<path transform="translate(273,707)" d="m0 0 9 1 5 4 1 2v17l-5 6-2 1h-10l-5-3-2-5v-14l2-5h2v-2z" fill="#682B2B"/>
<path transform="translate(489,707)" d="m0 0 8 1 3 2v2h2l1 2v17l-3 5-4 2h-10l-6-5-1-2v-16l1-2h2l2-4z" fill="#672A2A"/>
<path transform="translate(1192,987)" d="m0 0 6 3 11 2v1l-7 1-6 39-1 9-10 1-3-1-1-6h-1v-5h3l3-12 4-24 2-6z" fill="#5D6F93"/>
<path transform="translate(1018,908)" d="m0 0h13l16 1v2l2 1-23 11-21 11-12 5-2 1-4-9-1-3 12-1 8-4 8-8z" fill="#F3F4F5"/>
<path transform="translate(376,979)" d="m0 0 4 1 15 8 7 2 8 24v3h-19l-4-12-11-24z" fill="#41BBAE"/>
<path transform="translate(754,597)" d="m0 0h2l-1 10 4 2-26 2-14 5-16 8h-5l2-5 7-12 6-8 3-1 6 3 5 1h12l10-3z" fill="#F5F8FB"/>
<path transform="translate(634,1078)" d="m0 0h6l3 4 10 33 6 18v2h-2l-4-9v-3h-2l-2-3-15-1z" fill="#FAFBFC"/>
<path transform="translate(1174,982)" d="m0 0h3l2 31 1 2 1 20h1v7l3 1h-14l-3-39-1-14 3-6z" fill="#B26159"/>
<path transform="translate(156,782)" d="m0 0 18 18 7 11 1 4v21l-4-5-11-13-6-10-5-14z" fill="#7883A3"/>
<path transform="translate(143,886)" d="m0 0 13 1 11 3 8 4 3 1v2l4 2 5 2v2l4 2v7h-11l-13-5-11-7-13-10-1-3z" fill="#7C82A2"/>
<path transform="translate(926 1e3)" d="m0 0h7l1 3-2 12-2 3-24 3-24 4-3-1 4-3 23-11 17-9z" fill="#F4F6F7"/>
<path transform="translate(907,573)" d="m0 0 5 1 14 7 10 9 12 16v5h-7l-10-4-10-10-8-13z" fill="#7D82A2"/>
<path transform="translate(1e3 1060)" d="m0 0 3 1 1 9-2-3v-3l-5 1h-30l-29 1 2 11 4 28 1 8-2 1h-3l-3-3-3 6-3-3-1-9 2-10-1-11 5-20 22-1v-1l29-1z" fill="#346D83"/>
<path transform="translate(940,546)" d="m0 0 5 5 10 19 3 10v11l-1 2-6 3h-2l-1 3-2-1v-8l-5-11-2-11v-17z" fill="#7C82A2"/>
<path transform="translate(1313,962)" d="m0 0 2 1-3 7 1 5 5 5h3l-2 4-6-1-5-1-1 11-2 4-2 1h-7l-5-5-1-2v-8l3-8v-6l2-1 11-1 4-1z" fill="#FCB98E"/>
<path transform="translate(190,843)" d="m0 0 4 1 4 13v7l-3 14 5-4 3 1 6 15-1 10-4 9-2-1-3-10-3-9-6-20-4-17v-7z" fill="#F2F4F6"/>
<path transform="translate(934,938)" d="m0 0h6l-2 2-29 5-6 1 2 6 2 7 3 5 3 8v9l-1 1h-7v-2l-3 1-3-3-3-6-4-19 1-6 8-4 27-4z" fill="#D2D8DB"/>
<path transform="translate(1019,690)" d="m0 0h1v33h-1l-1-8-1 8-3 6-23-1 5-10 9-11 12-12h2z" fill="#7C81A0"/>
<path transform="translate(195,1189)" d="m0 0h15l12 1-1 2-28 1v51h308l30 1v1h-337l-3-2v-53z" fill="#B3625A"/>
<path transform="translate(1139,948)" d="m0 0h1l2 32v12l-7 3-4 1h-12v-12l2-9 4-11 2 1 2 5 2 4 5 1 3 2z" fill="#E7E4E3"/>
<path transform="translate(338,782)" d="m0 0 4 5 6 10 9 20 11 29 5 16 4 16 10 39 8 33 4 19 7 25 6 18 1 5h-3l-8-24v-3l-7-1-15-8-1-2 9 3 12 6-2-11-6-28-15-60-4-17-6-20-9-25-3-8-8-18-9-16z" fill="#E2F2FA"/>
<path transform="translate(1212,974)" d="m0 0 2 3 1 3 8 1 9-2 1-2v11l-3 12-1 9-4 4-2 1-2-5h-2v2l-5 1-2-2 3-3v-16l-2 1 1-5-2-7z" fill="#386D84"/>
<path transform="translate(941,1190)" d="m0 0h1v12l-1 4 2 10 1 4 1 2h2v10l-1 12-1 2-3-1 2-5h-6l-2-5h2l1-2v-7h-3l-2 8-3-1-1-3v-5l-2-3-2-11v-8l3-1 1-3 4 2 3 8 1-6 2-2z" fill="#366D84"/>
<path transform="translate(630,1017)" d="m0 0 10 3 18 8h1l-5-3v-2h11l17 2 3 1-2 7-3 6h-2v3l-5-1-35-16-9-4z" fill="#F5F7F9"/>
<path transform="translate(1357,804)" d="m0 0 7 1 16 4 12 6 3 3-16 4-14 2h-9v-19z" fill="#457FA4"/>
<path transform="translate(1138,995)" d="m0 0 3 3v3l3 1 3 16v4h2l3 17v3l-10-1-3-6-5-22-3-15 1-2z" fill="#5D9DB2"/>
<path transform="translate(1178,981)" d="m0 0 9 1 4 1 2 7-3 9-4 24-3 8h-2l-2-16-1-2-1-10v-20z" fill="#3C617F"/>
<path transform="translate(1202,943)" d="m0 0 10 3 5 1h24l-4 11h-25l-1-1v-6l-3 3-3 5-7 1h-5l1-5 5-10z" fill="#346D83"/>
<path transform="translate(622,651)" d="m0 0h2l8 21 2 5-10 4-9 3-10 1 1-5 7-13 7-11z" fill="#427EA4"/>
<path transform="translate(700,573)" d="m0 0 3 3 5 10 6 8-7 10-7 11-3 4h-2l-1-2v-19l5-23z" fill="#F6F9FC"/>
<path transform="translate(887,924)" d="m0 0h12l4 15v4l-7 4h-3v7l5 21 2 4h-2l-4-6-7-25-2-8-2-11 1-4z" fill="#E2F1F9"/>
<path transform="translate(203,834)" d="m0 0 4 2 8 7 15 15 7 8 9 10 7 9 11 14 3 3v-24h1l2 14 1 1v16l1 3-3-1-9-11-11-14-7-8-23-3-3-3 5-1 16 2-7-9-14-15-8-7-5-5z" fill="#599CB1"/>
<path transform="translate(644,992)" d="m0 0 21 2 37 6 5-1 4-2v3h-2v2l19 4 19 5 1 2-7-1-28-7h-7l-9 10-7 9 13 3 25 5 27 7 8 3-4 1-25-7-28-6-20-3-2 4v-3l1-2-20-2h-14l1-3 26 2 9 1 11-14 6-7-37-6h-6l-1 3-5-3-11-3z" fill="#C2D0D7"/>
<path transform="translate(1288,969)" d="m0 0h5l1 1-1 8-2 5v8l3 5 2 1v2h-18l-7-1 3-2 2-10-1-7h2v-4z" fill="#385F7C"/>
<path transform="translate(1315,808)" d="m0 0 6 4 6 5-6 8-2 2-28 3-5-1 1-3 12-7z" fill="#F7F9FA"/>
<path transform="translate(1245,962)" d="m0 0 5 1 4 10 2 6v6l-4 2h-13l-3-1-3 9-2 3 1-10 1-9 10-16z" fill="#EDEDEC"/>
<path transform="translate(212,791)" d="m0 0 2 1-2 16-2 10v6l5 3 6-1 1 2v4l14 9-2 1-12-7-14-9-5-5-8-5 2-9 5-7 1-6 1 2z" fill="#7D82A2"/>
<path transform="translate(563,675)" d="m0 0h1v54l-5 2-7 1h-9l2-1 1-4 6-11 8-21 2-8z" fill="#9A4644"/>
<path transform="translate(807,1210)" d="m0 0 17 3 6 2h8l8 3 6 2 9 1 13 5 9 1 9 3 11 4h10l3 7v2l-9-2-37-12-36-10-26-6z" fill="#FCFCFD"/>
<path transform="translate(1262,1058)" d="m0 0h2v28l-3 32-3 37-7 69h-2v-10l3-23 3-35v-15l2-7v-12l1-6 1-26-1-8 1-11z" fill="#FDC173"/>
<path transform="translate(1260,998)" d="m0 0 10 1v37l-9-1h-3v-19l1-16z" fill="#6B2C2C"/>
<path transform="translate(335,1031)" d="m0 0h113l14 1-1 2h-12l-11 1-4 1-2-1h-17l1 3-7-1-6-3h-60l-6 1-2 6 3 1 2 1 23 1-2 2h-22l-5-1v-13z" fill="#F9B565"/>
<path transform="translate(323,747)" d="m0 0 4 1 10 10 7 9 11 12v2l-5-1-8-8-4-2v-2l-2-1-1-4-10-1-2-1 1 33 1 5-2 11v38l-3-2 1-75z" fill="#41A19F"/>
<path transform="translate(132,817)" d="m0 0h8l6 3 11 5v2l5 2 5 3 6 7v2l-6 1-4-1-5 1-8-6-13-12-5-6z" fill="#7B82A2"/>
<path transform="translate(1254,997)" d="m0 0 5 1v18l-1 26-1 1h-10l1-17 4-28z" fill="#7D81A1"/>
<path transform="translate(973,607)" d="m0 0 3 1v8l-5 4-8 13-7 14-2-1v-22l1-9 9-3 8-4z" fill="#F5F5F5"/>
<path transform="translate(227,943)" d="m0 0 3 1 8 16 6 13-1 7 4 1 3 4 4 8 8 12 1 5-5-5-12-16-3-5v-3h-2l-9-13-8-14v-6z" fill="#F4F6F8"/>
<path transform="translate(1168,957)" d="m0 0h1l2 7 6 12v6l-7 3h-10l-6-4 1-6 8-15 5 1z" fill="#EDEBE8"/>
<path transform="translate(1334,999)" d="m0 0 9 1 1 4v29l-1 2h-11l1-35z" fill="#6D2C2D"/>
<path transform="translate(1203,968)" d="m0 0 6 1 5 13 1 6-4 4h-9l-8-3-3-3 1-4 8-11z" fill="#ECECEC"/>
<path transform="translate(1006,662)" d="m0 0h1v6l-7 24-5 11-1 2h-3l-2-29z" fill="#7D81A1"/>
<path transform="translate(957,586)" d="m0 0 2 3h14v9l-3 3-3 5-7 1v-3h-4l1 10-2 1v-3l-7 1-4-2 3-1v-2l7 2-1-6-5-1-1-4 4-4 3-2h3z" fill="#5A8DAA"/>
<path transform="translate(223,1247)" d="m0 0h218v1l-74 1-3 1h-73v-2h-68z" fill="#D5DFE4"/>
<path transform="translate(962,645)" d="m0 0 2 1 3 5 2 3v7l-3 8-6 12-3 1-2-13v-20l6-2z" fill="#F7F6F5"/>
<path transform="translate(185,810)" d="m0 0 5 2 13 8-4 1h-6v6l-1 1v10l2 6-8 1v7h-1l-1-7h-2-12l-10-2v-2l4-1 9 1-2-5-4-2v-2l-5-2-5-3v-2l-5-1-6-3-5-2v-1l8 1 13 7 10 9 7 6 9 1 1-14-4-14z" fill="#578CA9"/>
<path transform="translate(224,1009)" d="m0 0h12l16 1 6 2 2 2-2 3h-59l3-3 13-4z" fill="#7B82A2"/>
<path transform="translate(206,596)" d="m0 0 63 1v1l-9 1-56 1-1 198h-1l-1-200z" fill="#F0CCB5"/>
<path transform="translate(1309,779)" d="m0 0 8 6 5 4 3 1v2l13 1-1 4-5 2-4 3-9 4-2 2v-3l-2-1-5-16z" fill="#568AA8"/>
<path transform="translate(1129,724)" d="m0 0h30l-5 5-12 9-6 5h-2l-5-16z" fill="#F7F8FA"/>
<path transform="translate(897,735)" d="m0 0 1 3 5 2 14 8 7 2-2 5-4 4-14-6-10-5-4-1z" fill="#FCBF73"/>
<path transform="translate(1067,901)" d="m0 0 3 1 3 9 8 13 1 5-8 4-2-1-9-19-4-7z" fill="#FCC175"/>
<path transform="translate(1046,554)" d="m0 0 5 2 9 7 8 10v5l-5 1h-9l-2-1-5-18z" fill="#42BAAE"/>
<path transform="translate(673,558)" d="m0 0h2l-1 5v26l-12 6-5-1 5-12 10-21z" fill="#427EA4"/>
<path transform="translate(393,1061)" d="m0 0h54l18 1v1l-14 1-3 1h-11l-3 1-4-2v2h-31l-3-1h-8l-9-2v-1z" fill="#9B4644"/>
<path transform="translate(1363,591)" d="m0 0h15l1 1v8l-1 3-19 2h-10l2-2 6-1-1-7 5-1z" fill="#5B9EB3"/>
<path transform="translate(201,875)" d="m0 0h2l6 15-1 10-4 9-2-1-3-10-3-9v-9z" fill="#F3F5F7"/>
<path transform="translate(381,770)" d="m0 0h6l5 4 1 6-2 6-3 3h-7l-4-2-2-5v-6l2-4z" fill="#FBBE71"/>
<path transform="translate(678,1039)" d="m0 0 6 2 9 6 5 12 16 48v5l-4-2-2-7v-2l-2-1-2-7-1-5v-4l-2-2-1-4v-3l-3-5 1-5-4-2-1-5h2l-3-5-1-3-2-1v-2l-7-2-4-3z" fill="#3D627F"/>
<path transform="translate(1315,804)" d="m0 0 3 1v2l19-2-2 5-5 6-4 1-10-8-11 7-16 10h-2l-1-3 9-6 10-7 9-5z" fill="#4784A6"/>
<path transform="translate(794,633)" d="m0 0h2l-1 5-3 8-1 6v13l2 10 7 14 9 10 10 7-4 1-2-1v-2l-4-2-9-6-5-8v-3h-2l-5-11-2-12 1-15 5-12z" fill="#5D7194"/>
<path transform="translate(1192,427)" d="m0 0h3v7l-4 26-4 9-7 6 2-4 6-9 5-30-1-2-9 10-6 10-5 18-3 12-5 7h-2l-1-2v-30l-2-9-3-7 3 1 4 10 1 4v15l-1 13h3l3-11 5-19 5-10 8-10z" fill="#DFEEF6"/>
<path transform="translate(572,927)" d="m0 0h1l-1 10-2 16v16l4 15 5 10v2h2l7 8 2 1v2l-4-1-10-10-6-11-4-11-1-5v-12l3-17z" fill="#36A69C"/>
<path transform="translate(1313,910)" d="m0 0h1l1 20 3 19v12l-5-1-3-9v-27l2-12z" fill="#F9B665"/>
<path transform="translate(179,808)" d="m0 0h2l2 2 4-1-2 1 5 18v7l-2 7-3 1-8-2-12-12 3-1 7 8 5 4v-6h1v-19z" fill="#EDF3F7"/>
<path transform="translate(1158,561)" d="m0 0h16l-2 4-4 4-13 1h-17l-2-3 10-4z" fill="#41BCAF"/>
<path transform="translate(630,1017)" d="m0 0 10 3 18 8 9 3 9 6-2 1-2-1 1 3-9-3-29-13-6-3z" fill="#EBEDEF"/>
<path transform="translate(979,591)" d="m0 0h1l1 15h4l8 2-4 13-5 8-3 1-2-1z" fill="#8184A3"/>
<path transform="translate(1229,754)" d="m0 0 2 1-14 11-19 14-11 9h-2v2h6v3h-12l-27 21h-2l-2 4h-2l2-4 10-9 18-13 36-27 14-10z" fill="#E2F2FA"/>
<path transform="translate(853,919)" d="m0 0 5 1 6 18 11 32 2 6h-4l-5-12-12-35z" fill="#C44645"/>
<path transform="translate(995,651)" d="m0 0 3 1 8 10-5 5-11 9-2-1v-9z" fill="#F5F4F4"/>
<path transform="translate(1e3 629)" d="m0 0h2l-1 6-9 21-7 14-1-1v-11l6-16 5-10z" fill="#7A7C9A"/>
<path transform="translate(621,983)" d="m0 0 6 2 11 5 6 2-2 5-5 5-7-2-7-5z" fill="#3B9D9A"/>
<path transform="translate(1209,1021)" d="m0 0 3 1 1 14 4-1 1 1 3-3 1-9 3-2v8l-1 6-1 7h-17l-1-2 2-13z" fill="#415D78"/>
<path transform="translate(1142,986)" d="m0 0h1l2 7 3 1v2l2 1v-4l4-1-1 16h-5v4h2l1-3 2 1-1 12 2 4v6l-2 7h-1l-5-29-4-17z" fill="#B36159"/>
<path transform="translate(1413,890)" d="m0 0 3 1-7 7-8 14-3 6 15-4 13-3h6l-3 3-25 6-19 7-9 2 3-3 16-7 2-6 9-16z" fill="#427EA4"/>
<path transform="translate(973,617)" d="m0 0h2v13l-8 7-3 8h-2l-1 3-6 1v14h-1v-17h2l8-16 7-11z" fill="#7F84A1"/>
<path transform="translate(953,1173)" d="m0 0h7l4 10 8 23v6l-3-4-3-11h-2l-1-5-2-1-3-4-3-2 1-2-4 1v-10z" fill="#F6F5F5"/>
<path transform="translate(461,1037)" d="m0 0 2 2-1 6-2 1h-77l-1-2 32-1 2 1 1-2 6 1 1-2 6 2h7l6-1h5l4 1 9 1z" fill="#F9B665"/>
<path transform="translate(1332,1035)" d="m0 0h10l3 1v12l-3 2h-9l-2-4v-10z" fill="#FCBB79"/>
<path transform="translate(260,598)" d="m0 0h9v1h-8v103l3 1-5 1v-77z" fill="#994948"/>
<path transform="translate(581,794)" d="m0 0h35l-3 2-7 3v-3l-45 2-20 3-22 5-6 2-4-1 16-5 23-5 16-2z" fill="#B6C7D1"/>
<path transform="translate(1006,1020)" d="m0 0h17l31 3 36 6 28 6 2 2-4 1-16-4-31-6-29-4-28-2-6-1z" fill="#BFCED5"/>
<path transform="translate(807,718)" d="m0 0 9 3 6 3-2 6-2 3h-8l-2-4h-5v-6z" fill="#9A4847"/>
<path transform="translate(323,747)" d="m0 0 4 1 3 4-5-2v9l-1 2v33l1 5-2 11v38l-3-2 1-75z" fill="#439A9D"/>
<path transform="translate(874,698)" d="m0 0h2l-1 4-5 4-11 5-8 2h-19l-9-3-3-3 7 1 5 1h18l13-4z" fill="#576E91"/>
<path transform="translate(564,697)" d="m0 0 2 4 9 27-8 2-4-1z" fill="#477A9F"/>
<path transform="translate(559,918)" d="m0 0h2l-2 9-2 10-1 4-5 13-5 21-4 14h-1v-7l9-35 2-9 3-9z" fill="#38ACA0"/>
<path transform="translate(1258,1134)" d="m0 0h1v12l-6 58-2 20h-2v-10l3-23 3-35v-15z" fill="#FDC174"/>
<path transform="translate(1332,1049)" d="m0 0h12v15l-6 2-5-2z" fill="#612627"/>
<path transform="translate(1308,982)" d="m0 0 11 1 4-1 1 6v11h-4l-1-7-13-1z" fill="#6D2D2D"/>
<path transform="translate(182,843)" d="m0 0 3 2v7h2l5 21 5 16 4 14h-3l-8-24-2-4-1-8-5-20z" fill="#6F86A5"/>
<path transform="translate(564,687)" d="m0 0 2 3 8 24 3 6 3 1-1 7-8 1 3-2-8-22-2-8z" fill="#5E9CB1"/>
<path transform="translate(1170,943)" d="m0 0 3 3-2 5-2 3-1 7-5-1-2 5-5 10h-3v-10l3-3h3l2-5z" fill="#4D81A0"/>
<path transform="translate(1178,475)" d="m0 0 2 1-5 5-3 2-1 3 16-7 7-2 8-1h9l10 1 5 3-4 4-11 5-2-1 13-7-6-2h-16l-15 3-17 8-4-1 8-9z" fill="#E1F0F7"/>
<path transform="translate(398,973)" d="m0 0h2l6 21 6 18 1 5h-3l-8-24v-3l-7-1-15-8-1-2 9 3 12 6-2-11z" fill="#E1F1F9"/>
<path transform="translate(141,818)" d="m0 0 8 1 13 7 10 9 7 6 4 2-1 2h-12l-10-2v-2l4-1 9 1-2-5-4-2v-2l-5-2-5-3v-2l-5-1-6-3-5-2z" fill="#598DAA"/>
<path transform="translate(148,923)" d="m0 0h19l21 6 14 8 14 9v2l-4-1-13-9-12-7-12-2-5-3-4-1h-7l-1 3h-2l-1 2-7-5z" fill="#598DAA"/>
<path transform="translate(975,590)" d="m0 0h4v39h2v2l-6-1v-22l-1-3 1-10z" fill="#A14D4A"/>
<path transform="translate(1210,893)" d="m0 0 3 1-14 17-10 14-5 1 1-4 10-13 12-15z" fill="#427C9D"/>
<path transform="translate(141,885)" d="m0 0 17 1 9 2 14 7 11 8 6 4 2-1 1 4-10 1-1-4-1-3-2-1v-2l-5-1-4-3v-2l-6-1-5-3-11-3-13-1v2l-3-1z" fill="#598DAA"/>
<path transform="translate(203,834)" d="m0 0 4 2 8 7 15 15 7 8 2 3h-3-2l-7-8-11-12-8-7-5-5z" fill="#5B99B1"/>
<path transform="translate(889,642)" d="m0 0h2l2 3 1 6v15l-2 11-5 9-2 5-8 9-2-3 7-8 6-12 3-11v-15z" fill="#5F7397"/>
<path transform="translate(615,583)" d="m0 0h2l1 2 2 14 7 23 3 5 1 7-4-2-7-19-5-20z" fill="#599EB2"/>
<path transform="translate(644,992)" d="m0 0 21 2 37 6h5l1 3-21-3-20-3h-6l-1 3-5-3-11-3zm66 5 1 3-4-1z" fill="#B8C1C5"/>
<path transform="translate(241,929)" d="m0 0 6 1 8 3 12 2 17 1 1-3 3 4-1 2h-22l-18-5-6-3z" fill="#5FA5B6"/>
<path transform="translate(756,1200)" d="m0 0h12l9 1 4 4 3 2-4 1-29-4v-3z" fill="#F7F6F6"/>
<path transform="translate(1116,1108)" d="m0 0h1l1 15-38-2-54-2v-1h41l48 3z" fill="#E9F0F3"/>
<path transform="translate(614,873)" d="m0 0 2 1-9 16-2 3h-2l3 4 7 1-2 6-4 1-8-6-2-1 2-4 8-9z" fill="#FCC076"/>
<path transform="translate(195,1189)" d="m0 0h15l12 1-1 2-28 1v49l1 3-3-1v-53z" fill="#AD5B54"/>
<path transform="translate(440,917)" d="m0 0 2 1v10l1 9-2 6-4 51h-1v-14z" fill="#9C4745"/>
<path transform="translate(319,929)" d="m0 0 3 1v35l-3 20-2-2 2-26z" fill="#51B4B2"/>
<path transform="translate(1155,849)" d="m0 0h1v18l-1 14-7 2-1-4v-12l4 2v-2l4-1z" fill="#5C9AB0"/>
<path transform="translate(1290,981)" d="m0 0 1 2-1 9h-5l-2 6h-4l-1-13 4-2z" fill="#672A2A"/>
<path transform="translate(1164,739)" d="m0 0h3l-2 5-9 19-5 19-2 20h-1v-17l3-16 7-18z" fill="#E2F2FA"/>
<path transform="translate(794,633)" d="m0 0h2l-1 5-3 8-1 6-1 17-3-2-1-11 2-12 4-9z" fill="#5A6E92"/>
<path transform="translate(904,952)" d="m0 0 4 2 6 4 2 4 1 10h-2l-1 10-2-1v-9l-5-12-3-6z" fill="#FDBA88"/>
<path transform="translate(853,609)" d="m0 0 7 1 8 2 6 4 3 3 3 5 4 4 6 11-1 4-2-3-5-10-6-7-13-9-10-4z" fill="#5F7397"/>
<path transform="translate(664,693)" d="m0 0 1 3-1 2 4 1-5 5-6 25-1 5-4 1 2-7 1-1 2-16 3-10 1-7z" fill="#48B0AE"/>
<path transform="translate(1307,991)" d="m0 0h9v2l3 1v5l-1 1h-16l1-3 2-1z" fill="#46AEAC"/>
<path transform="translate(240,978)" d="m0 0h3v2l4 1 3 4 4 8 8 12 1 5-5-5-12-16-3-5v-3h-2z" fill="#EAEFF2"/>
<path transform="translate(1179,503)" d="m0 0h16l10 3-1 3-7 2 4-4-3-1h-22l-13 3-12 6-8 2 3-5 2-1v2l10-4 11-4z" fill="#DFEDF4"/>
<path transform="translate(693,494)" d="m0 0h2l-1 8-10 32-2 2-1-5 11-35z" fill="#54A4B1"/>
<path transform="translate(222,1017)" d="m0 0h17l-2 2 1 4-7 4-3 1-2-2-2-5v-3z" fill="#FD9C68"/>
<path transform="translate(1249,851)" d="m0 0h1v5 3l-5 3-15 14-3 2h-3l2-4 10-10 11-9z" fill="#3D7692"/>
<path transform="translate(950,1135)" d="m0 0 2 3 3 13-7-1h-5l-3-3-3-6v-2l6 3h6l1-2-1-3z" fill="#346C82"/>
<path transform="translate(1059,562)" d="m0 0 4 1 13 8 3 3v3h-10l-7-11z" fill="#FCC079"/>
<path transform="translate(1336,805)" d="m0 0 1 2-6 8-5 2-3-2v-3l-2-1v-3l-3-1z" fill="#578EAA"/>
<path transform="translate(1127,765)" d="m0 0h12l1 7 2 35v9l-2 2-2-34-1-11-1-2 2-5-9 1-1 7h-1z" fill="#AB5852"/>
<path transform="translate(1e3 1060)" d="m0 0 3 1 1 9-2-3v-3l-5 1h-33v-1l-6-1v-1l29-1z" fill="#4D728D"/>
<path transform="translate(1333,797)" d="m0 0h5v7l-2 2-6 1h-12l4-4 9-4z" fill="#EFF4F8"/>
<path transform="translate(964,680)" d="m0 0 2 2-3 23-2 4-3-19v-6l5-3z" fill="#F1EBE7"/>
<path transform="translate(539,998)" d="m0 0h1l1 27 1 1 1 10v4l-2-1-3-11-1-6v-12l1-10z" fill="#3AADA2"/>
<path transform="translate(621,650)" d="m0 0 1 2-3 7-8 13-5 9-2 4h-3l-2 1-1-4 4-1 12-21z" fill="#49AEAD"/>
<path transform="translate(1150,427)" d="m0 0 4 2 1 4-5-2v12l-1 12v10l2 10 1 4-4-4-1-3-1-16 2-25z" fill="#E0EFF7"/>
<path transform="translate(239,981)" d="m0 0h4l4 8 10 13 5 7h2l-1 4h-5l-1-2h3l-11-14-8-11z" fill="#62799A"/>
<path transform="translate(678,1039)" d="m0 0 6 2 9 6 5 12 2 7-5-2-2-3v-3h2l-3-5-1-3-2-1v-2l-7-2-4-3z" fill="#3C6380"/>
<path transform="translate(415,901)" d="m0 0h2l-3 12-8 22-7 14-1-3 6-14 10-30z" fill="#E2F2FA"/>
<path transform="translate(1156,439)" d="m0 0 3 1 4 10 1 4v15l-1 13 5-2-2 4-2 3h-2l-1-2v-30l-2-9z" fill="#DEEDF4"/>
<path transform="translate(673,830)" d="m0 0 1 3 10 3 30 10 17 7 1 2-5-1-23-9-18-6-7-2h-5l-2 1z" fill="#D4CECA"/>
<path transform="translate(634 1e3)" d="m0 0h2v11l1 6-6-2-5-3 2-4 4-6z" fill="#F9C682"/>
<path transform="translate(1226,876)" d="m0 0 2 3-12 12-1 2h7v1l-10 1-4-2 3-2h3l-2-1 1-7 2 3 8-9z" fill="#4681A3"/>
<path transform="translate(182,816)" d="m0 0h1l1 9v9l1 3h2l2-2-1 7-3 1-8-2-12-12 3-1 7 8 5 4v-6h1z" fill="#D1D9DD"/>
<path transform="translate(475,631)" d="m0 0h1l1 73-3 1v-73z" fill="#9B4644"/>
<path transform="translate(1036,581)" d="m0 0h17v1l-24 3-6 1h-21l4-2z" fill="#577B9F"/>
<path transform="translate(637,1207)" d="m0 0h9l1 2-23 5-10 2 1-4 18-4z" fill="#FDFDFE"/>
<path transform="translate(1130,454)" d="m0 0 5 4 4 8-1 3-6-11h-1l-2 16v22l1 6-2-2-2-9v-11l3-25z" fill="#DFEEF6"/>
<path transform="translate(1261,1034)" d="m0 0 7 1 3 2v11l-1 1h-5l-2-4h4v-5l-1-3-6 1-1 4-1-7z" fill="#FCBB76"/>
<path transform="translate(1151,1009)" d="m0 0 2 1-1 12 2 4v6l-2 7h-1l-4-23v-5l3 1z" fill="#B16059"/>
<path transform="translate(1309,779)" d="m0 0 8 6 5 4 3 2h-4v3l-6-2-3 1-3-8z" fill="#587295"/>
<path transform="translate(283 1e3)" d="m0 0 5 1 9 4 17 5 2 1v2h10v1h-15l-12-5v-2l-6-1-10-5z" fill="#7EABBD"/>
<path transform="translate(139,848)" d="m0 0 11 1 12 4 14 10 8 8h-3l-8-8-9-6-5-3-10-1v-3h-6l-1 3-3-3z" fill="#598DAA"/>
<path transform="translate(630,1017)" d="m0 0 10 3 10 4-4 5-11-5-6-3z" fill="#E9EAEB"/>
<path transform="translate(267,878)" d="m0 0h1l2 14 1 1v16l1 3-3-1-6-7v-3l4 1z" fill="#86BBC4"/>
<path transform="translate(209,899)" d="m0 0 3 3 1 4-6 5h-2l-1 5-2-2-3-8v-3h2l2 5 2-2 2-6z" fill="#7684A3"/>
<path transform="translate(976,978)" d="m0 0 1 2-8 11-12 9-8 4-15 5v-2l20-8 11-8 7-7z" fill="#B75953"/>
<path transform="translate(323,747)" d="m0 0 4 1 3 4-5-2v9l-1 2-2 34h-1v-24z" fill="#6F84A4"/>
<path transform="translate(661,527)" d="m0 0 3 1 2 8 7 14h3v2l-4 3-5-8-5-11z" fill="#58A6B3"/>
<path transform="translate(1254,1172)" d="m0 0h1v12l-4 40h-2v-10l3-23z" fill="#FDBF7B"/>
<path transform="translate(1268,1049)" d="m0 0h2v11l-1 6-2 1-2 5h-1l1-21z" fill="#7D3836"/>
<path transform="translate(1178,923)" d="m0 0 3 1 2 3-1 7-8 12h-2l-1-4 7-11 1-3z" fill="#407B9B"/>
<path transform="translate(559,918)" d="m0 0h2l-2 9-2 10-1 4-3 8h-2l1-11 3-9z" fill="#37AA9F"/>
<path transform="translate(341,878)" d="m0 0 7 4 11 7 15 6 4 2v2l-6-1-17-8-12-8z" fill="#E2F2FA"/>
<path transform="translate(665,804)" d="m0 0 7 1 27 9 14 6-3 1-30-11-11-3-1 2z" fill="#CDCDCC"/>
<path transform="translate(1177,792)" d="m0 0m-1 1m-1 1m-2 1h2l-2 4-12 9-9 7h-2l-2 4h-2l2-4 10-9z" fill="#E2F2FA"/>
<path transform="translate(1051,856)" d="m0 0h9l18 5 23 7 1 2-12-3-17-5-22-5z" fill="#CABFB8"/>
<path transform="translate(1178,981)" d="m0 0 9 1 4 1v3l-4 3-1 3-4-1-2-2z" fill="#346C82"/>
<path transform="translate(1288,967)" d="m0 0 4 2-8 3-17 10-7 4 2-4 10-7 9-5z" fill="#4A83A6"/>
<path transform="translate(935,1178)" d="m0 0 4 2 1 9v8l-3-1-1-7v-3l-3-1v-6z" fill="#346D83"/>
<path transform="translate(1075,1027)" d="m0 0 9 1 34 7 2 2-4 1-16-4-25-5z" fill="#D1D9DD"/>
<path transform="translate(922,967)" d="m0 0h14v3l-5 2h-14l-1-4z" fill="#DAD1CB"/>
<path transform="translate(190,874)" d="m0 0 3 1 6 22 2 6h-3l-8-24z" fill="#6F84A3"/>
<path transform="translate(207,823)" d="m0 0 4 2 6 2 4-1 1 2v4l14 9-2 1-12-7-14-9z" fill="#697699"/>
<path transform="translate(1388,752)" d="m0 0h2l2 3v20l-2 10h-1v-25l-2-7z" fill="#FDC173"/>
<path transform="translate(382,815)" d="m0 0 4 4 9 13-1 2-5-3-4-1-2-7z" fill="#3CA09D"/>
<path transform="translate(648,603)" d="m0 0 2 3-16 29h-2l2-6 8-16z" fill="#52A9B2"/>
<path transform="translate(204,915)" d="m0 0h2l9 20 3 6-1 3-6-9-7-16z" fill="#7081A1"/>
<path transform="translate(1140,774)" d="m0 0h1l3 35 1 8-1 11h-1l-2-21-1-17z" fill="#6D89A6"/>
<path transform="translate(731,571)" d="m0 0h3l-2 5-9 10-6 7-1-2 6-10z" fill="#3FAFA8"/>
<path transform="translate(1047,942)" d="m0 0 3 1-10 6-26 13-3-1 6-4 10-4z" fill="#4883A6"/>
<path transform="translate(630,678)" d="m0 0 6 1-3 2-17 6-9-2v-1l11-2z" fill="#5B9CB2"/>
<path transform="translate(1210,893)" d="m0 0 3 1-12 15h-4l2-5 8-10z" fill="#407997"/>
<path transform="translate(474,740)" d="m0 0 3 1 4 5 4 1v2l-14 5-4-1 7-2z" fill="#9A4B4B"/>
<path transform="translate(1162,493)" d="m0 0 5 1 13 4 11-2 7-3 3 1-11 5-4 1h-8l-16-4-5 5-2-1z" fill="#DFEDF3"/>
<path transform="translate(997,953)" d="m0 0 4 2v5l3 1v2h2v3l-7 3-3-12z" fill="#487A9C"/>
<path transform="translate(955,1159)" d="m0 0h2l3 10v3l-8 1 2-13z" fill="#9C4745"/>
<path transform="translate(1283,940)" d="m0 0 2 1-9 23-3 9h-2l1-7 8-20z" fill="#5188A8"/>
<path transform="translate(1321,791)" d="m0 0 6 1 4 3-8 6h-4l1-7z" fill="#EEF4F7"/>
<path transform="translate(950,612)" d="m0 0h5v12l-2 12-2-3v-18z" fill="#7183A3"/>
<path transform="translate(1315,962)" d="m0 0 42 1v1l-28 1-7 1-7-1z" fill="#499FA7"/>
<path transform="translate(1117,551)" d="m0 0h2l-1 6-8 17-3 1 1-6z" fill="#3DB6A9"/>
<path transform="translate(652,1115)" d="m0 0 2 3 5 15v2h-2l-4-9v-3h-2l-2-3-15-1v-2l18 1z" fill="#E1EEF4"/>
<path transform="translate(1336,1037)" d="m0 0 5 1 1 6-1 3h-6l-1-1v-8z" fill="#793735"/>
<path transform="translate(662,1029)" d="m0 0 12 6 2 3-4-1 1 3-9-3-4-3h2l1-2-2-2z" fill="#E5E8EA"/>
<path transform="translate(656,712)" d="m0 0h2l-3 13-3 6-3-1 1-7z" fill="#E0EFF7"/>
<path transform="translate(673,589)" d="m0 0 1 4-10 5h-10l2-5 6 1z" fill="#5B9CB2"/>
<path transform="translate(1139,469)" d="m0 0 2 2 2 6v31l6-5-2 5-5 5-1-10v-23z" fill="#E0EFF6"/>
<path transform="translate(263,864)" d="m0 0 3 2 4 16v10h-1l-1-8v5l-2-4-3-16z" fill="#5EA1B3"/>
<path transform="translate(1285,828)" d="m0 0 6 1h9l1 4-1 1h-10l-7-2z" fill="#588DAA"/>
<path transform="translate(945,1244)" d="m0 0h1v9l-16-4-2-2 16-1z" fill="#FBBE8C"/>
<path transform="translate(866,980)" d="m0 0h2v2l-21 6-10 4-7 2h-5l3-2 30-10z" fill="#D2DADE"/>
<path transform="translate(222,853)" d="m0 0 4 1 13 14-2 2-3-1-7-8-5-6z" fill="#5A96AF"/>
<path transform="translate(381,826)" d="m0 0 2 2-1 15-5 17-2 3 1-8 4-18z" fill="#E2F2FA"/>
<path transform="translate(1285,991)" d="m0 0h6l3 5 2 1v2h-11v-2h-1v-5z" fill="#536B8D"/>
<path transform="translate(1413,890)" d="m0 0 3 1-7 7-8 14-3 3-1-2 9-16z" fill="#4A84A6"/>
<path transform="translate(715,663)" d="m0 0h2l-1 10-2 1v-6l1-2-8 2h-13l-17-2v-1h10l8 1h9l9-2z" fill="#E0ECF2"/>
<path transform="translate(337,1247)" d="m0 0 30 1-3 2h-31v-2z" fill="#E3F0F7"/>
<path transform="translate(249,883)" d="m0 0 4 2 11 14-2 4-8-11-5-6z" fill="#58ACB3"/>
<path transform="translate(581,794)" d="m0 0h35l-3 2-7 3v-3h-16l-9-1z" fill="#DDD6D0"/>
<path transform="translate(644,992)" d="m0 0 21 2-4 3-1 3-5-3-11-3z" fill="#E5E8EA"/>
<path transform="translate(1277,985)" d="m0 0 2 3v10h4v-5l4 5-2 1-14-1 3-2 2-10z" fill="#375F7C"/>
<path transform="translate(724,800)" d="m0 0 5 1 19 10 8 5 3 1-1 5-5-5-17-10-12-6z" fill="#C8D0D4"/>
<path transform="translate(1329,793)" d="m0 0h9l-1 4-5 2-4 3-7 1 5-5 4-3z" fill="#4A7793"/>
<path transform="translate(709,1196)" d="m0 0h6l2 5h-18l4-3z" fill="#6D2E2F"/>
<path transform="translate(1e3 1024)" d="m0 0h1l1 23h5v1h-5l1 5v7l-6 1 3-6z" fill="#FDBB87"/>
<path transform="translate(1065,920)" d="m0 0 3 1 5 11-5 1-4-4 2-1-2-6z" fill="#4E7B9E"/>
<path transform="translate(962,705)" d="m0 0h1l1 8h23l-3 2-4 1h-10v-2l-9 2z" fill="#AB5F5B"/>
<path transform="translate(956,685)" d="m0 0 2 2 3 15 1 8-2 1-3-10-1-7z" fill="#665667"/>
<path transform="translate(178,970)" d="m0 0h21l-1 2h-19l-12 3h-3l1-2 6-2z" fill="#598DAA"/>
<path transform="translate(1288,969)" d="m0 0h5l1 1v5l-2 1-7-3v2l-4 1-2-2z" fill="#396E85"/>
<path transform="translate(1e3 675)" d="m0 0h1v8l-5 19-3-3 3-10z" fill="#EBEDEF"/>
<path transform="translate(917,1239)" d="m0 0 1 3 3-1 2 1 1-2 4 2v2l6 1v2h-9l-8-3z" fill="#3F718A"/>
<path transform="translate(713,1184)" d="m0 0 2 3v2h2l4 11v2h-4l-3-6z" fill="#E5E1E0"/>
<path transform="translate(664 1e3)" d="m0 0 2 2-1 5-8 7-3 2-4-1 8-6 5-6z" fill="#FDC273"/>
<path transform="translate(440,917)" d="m0 0 2 1v10l1 9-2 6h-2z" fill="#A24E4A"/>
<path transform="translate(1373,900)" d="m0 0h1l-1 12v8l-2 2-2-18z" fill="#476885"/>
<path transform="translate(1233,726)" d="m0 0h3v21h-2l-1-6z" fill="#E2F2FA"/>
<path transform="translate(713,594)" d="m0 0h2l-2 7-6 8-4 4-1-3 8-12z" fill="#3EB5A9"/>
<path transform="translate(683,647)" d="m0 0 2 1-5 9-3 3-2-3v-6l1 2h2l1-4z" fill="#38AB9F"/>
<path transform="translate(947,1251)" d="m0 0 4 2h7l8 5v2l-11-3-8-3z" fill="#FDFDFE"/>
<path transform="translate(670,1202)" d="m0 0h7l-1 2-24 4-5-1v-1l15-3z" fill="#FDFDFE"/>
<path transform="translate(1215,990)" d="m0 0 1 2v15l-5 2 2-17z" fill="#365F7C"/>
<path transform="translate(195,867)" d="m0 0h1v7l-1 4 5-4 2 1-5 5-1 6-2-3-3-10 1-3 2 1z" fill="#D9E1E5"/>
<path transform="translate(889,642)" d="m0 0h2l2 3 1 6v15h-3v-15z" fill="#5B7095"/>
<path transform="translate(1164,739)" d="m0 0h3l-2 5-7 14h-2l1-5z" fill="#E1F1F9"/>
<path transform="translate(690,631)" d="m0 0 3 1-7 14-2 1-1-3 3-12 2 2z" fill="#56A2B1"/>
<path transform="translate(691,620)" d="m0 0h3l-1 6-5 10h-1l1-11z" fill="#E0EFF6"/>
<path transform="translate(916,758)" d="m0 0 3 1-5 9-7-1 6-8z" fill="#C13E3E"/>
<path transform="translate(964,714)" d="m0 0h6v2h6l-1 2-6 2-4 1-2-3z" fill="#F5E3D8"/>
<path transform="translate(624,616)" d="m0 0 2 3 4 8 1 7-4-2-4-11z" fill="#5B9BB2"/>
<path transform="translate(563,850)" d="m0 0 3 1-3 3-16 2h-8l3-2 19-3z" fill="#AEB8BF"/>
<path transform="translate(181,815)" d="m0 0h1v21l-4-5-3-5 4 1z" fill="#598CA9"/>
<path transform="translate(693,1049)" d="m0 0 3 4 4 13-5-2-2-3v-3h2l-3-5z" fill="#406583"/>
<path transform="translate(782,992)" d="m0 0h2l1 2 2 1-5 9h-4l1-9h3z" fill="#C13E3E"/>
<path transform="translate(833,606)" d="m0 0h21l1 3-3 1-4-1-16-1z" fill="#5B6F94"/>
<path transform="translate(1336,805)" d="m0 0 1 2-6 8-5 2-3-2 1-3 9-3z" fill="#597292"/>
<path transform="translate(712,696)" d="m0 0h2l-2 5h-3l-7 2-3 1h-17v-1l16-1 12-5z" fill="#E1EDF4"/>
<path transform="translate(1377,591)" d="m0 0 2 1v8l-1 2-4-1-1-8z" fill="#598DAA"/>
<path transform="translate(784,1054)" d="m0 0h2l2 5 2 3h-12z" fill="#5282A3"/>
<path transform="translate(1223 1e3)" d="m0 0h2v6h-4v-2h-2v2l-5 1-2-2 7-4z" fill="#427EA4"/>
<path transform="translate(1233,983)" d="m0 0 5 1 3 1 11 1v1h-13l-3-1-3 9-2 3 1-10z" fill="#FDBA88"/>
<path transform="translate(189,838)" d="m0 0 4 1 1 5-8 1v7h-1l-1-7-1-3h5z" fill="#5C8CA9"/>
<path transform="translate(671,671)" d="m0 0h3l-3 11-3 7-2-2 2-9z" fill="#57A0B1"/>
<path transform="translate(907,605)" d="m0 0 9 3 9 5-3 1-5-1h-3l-4-5z" fill="#5A8CA9"/>
<path transform="translate(1e3 1060)" d="m0 0 3 1 1 9-2-3v-3l-16-1 1-2z" fill="#50708D"/>
<path transform="translate(904 1e3)" d="m0 0 8 1 11 3-2 2h-6v-1l-11-3z" fill="#4D7B9E"/>
<path transform="translate(1258,845)" d="m0 0 3 3-10 7h-1v-7l2 1z" fill="#4882A3"/>
<path transform="translate(964,670)" d="m0 0 2 4v6l-5 4-4-1 3-3z" fill="#8284A1"/>
<path transform="translate(1178,475)" d="m0 0 2 1-5 5-3 2-1 3h2v2l-5 2-4-1 8-9z" fill="#DEEDF4"/>
<path transform="translate(1150,427)" d="m0 0 4 2 1 4-5-2v12l-2 1v-13z" fill="#DEECF3"/>
<path transform="translate(1230,989)" d="m0 0h1v9l-3 4-3-1 1-7h2z" fill="#3E6280"/>
<path transform="translate(1312,976)" d="m0 0 8 4v3l-5 1-6-3z" fill="#F9C183"/>
<path transform="translate(198,865)" d="m0 0 2 2 1 6h-2l-1 4-3 1 1-11z" fill="#7983A3"/>
<path transform="translate(1332,1049)" d="m0 0h12v15h-1l-1-13-7 1-1 11h-1z" fill="#9C4745"/>
<path transform="translate(1262,1037)" d="m0 0h4l2 3-1 4h-5l-2-2v-4z" fill="#793635"/>
<path transform="translate(1356,805)" d="m0 0h4l-1 4-1 15h-2z" fill="#44728E"/>
<path transform="translate(1296,757)" d="m0 0h1l2 11v13h-1v-11l-3-1-1-8z" fill="#5990AB"/>
<path transform="translate(656,589)" d="m0 0h2v4h-2l-2 6-4 4-1-2 2-9 4-1z" fill="#4EADB1"/>
<path transform="translate(716,563)" d="m0 0h1v14l-1 10h2l-2 5-2-1v-10z" fill="#E0F0F8"/>
<path transform="translate(1286,581)" d="m0 0h23l8 2v1h-9l-22-2z" fill="#D9E0E4"/>
<path transform="translate(1153,954)" d="m0 0 2 3v7l-1 1-1 10h2v6l1 2-3-1-1-6v-13z" fill="#A35754"/>
<path transform="translate(1213,883)" d="m0 0 4 4-1 4-1 2h7v1l-10 1-4-2 3-2h3l-2-1z" fill="#4F88A8"/>
<path transform="translate(1304,726)" d="m0 0h2v2l5-1-2 5-3 7h-1l-2-8z" fill="#399198"/>
<path transform="translate(954,593)" d="m0 0 3 1-4 7 1 2-5-1-1-4 3-3z" fill="#5C9FB4"/>
<path transform="translate(1388,946)" d="m0 0 5 1 9 5 3 3-7-1-9-5z" fill="#427EA4"/>
<path transform="translate(820,707)" d="m0 0 7 1 8 2 11 1v1h-13l-9-1z" fill="#436684"/>
<path transform="translate(827,606)" d="m0 0 5 1 16 1v1l-19 1-5 1v-4z" fill="#667A9C"/>
<path transform="translate(538,1024)" d="m0 0 4 2 1 10v4l-2-1-3-11z" fill="#3BAAA2"/>
<path transform="translate(867,961)" d="m0 0 2 3 2 6v7h-3l-2-12z" fill="#EFE9E4"/>
<path transform="translate(1217,477)" d="m0 0 6 1 3 3-4 3-11 5-2-1 13-7-6-2z" fill="#E0ECF3"/>
<path transform="translate(788,1206)" d="m0 0 16 3 2 1v2l-19-3z" fill="#FCFCFD"/>
<path transform="translate(749,1024)" d="m0 0h5l1 4-6 5-1-4z" fill="#C44342"/>
<path transform="translate(1229,754)" d="m0 0 2 1-14 11-4 3-2-1 5-5z" fill="#E1F0F8"/>
<path transform="translate(885,687)" d="m0 0 1 3-9 10-2-3 7-8z" fill="#5F7195"/>
<path transform="translate(619,602)" d="m0 0h2l3 11v5h-2l-3-9z" fill="#4FACB1"/>
<path transform="translate(611,902)" d="m0 0 1 3 2 1 9 1 2 2h-8l-10-2-2-4 5 1z" fill="#DBDEE0"/>
<path transform="translate(657,663)" d="m0 0h3l-2 4-3 3-4 1-1-5z" fill="#5B9CB2"/>
<path transform="translate(680,534)" d="m0 0 2 1-1 7-2 5h-2v2h-2l3-10z" fill="#5AA7B3"/>
<path transform="translate(968,1259)" d="m0 0 9 1 6 4-4 1-12-4z" fill="#FDFDFE"/>
<path transform="translate(1332,1038)" d="m0 0 2 2 1 6 4 1v3h-6l-2-4z" fill="#FDBF75"/>
<path transform="translate(916,969)" d="m0 0h14l-1 3h-12z" fill="#EDEEEE"/>
<path transform="translate(910,964)" d="m0 0 1 3h5l1 5h-2l-1 10-2-1v-9l-2-4z" fill="#FDBF79"/>
<path transform="translate(1178,923)" d="m0 0 3 1 2 3-1 7-2 3h-2v-6l1-3z" fill="#3A728C"/>
<path transform="translate(559,918)" d="m0 0h2l-2 9-2 7-3 1 3-12z" fill="#3AADA2"/>
<path transform="translate(665,804)" d="m0 0 7 1 13 4 1 2-10-2-7-2-1 2z" fill="#DBD4D0"/>
<path transform="translate(657,717)" d="m0 0h2l-1 8-2 5v5h-4l2-7 1-1 1-9z" fill="#3CA0A1"/>
<path transform="translate(1116,1108)" d="m0 0h1l1 15-17-1v-1h14z" fill="#EDEFF0"/>
<path transform="translate(968,661)" d="m0 0h1v9l-2 11-2-1v-11z" fill="#A85D59"/>
<path transform="translate(566,600)" d="m0 0h2l2 9-3 1-1 2-1-1v-7z" fill="#37A99E"/>
<path transform="translate(1342,587)" d="m0 0h16l8 2v1h-9l-15-2z" fill="#DBE1E4"/>
<path transform="translate(757,1194)" d="m0 0 9 3 3 2-1 1h-12l4-2z" fill="#985558"/>
<path transform="translate(1047,942)" d="m0 0 3 1-10 6-6 3-3-1z" fill="#457FA2"/>
<path transform="translate(1265,839)" d="m0 0h4l-2 4-5 4-3-1 1-3z" fill="#3E7893"/>
<path transform="translate(640,618)" d="m0 0 1 4-7 13h-2l2-6 5-10z" fill="#6FB6BC"/>
<path transform="translate(904,952)" d="m0 0 4 2 2 2 1 7-2 1-5-10z" fill="#FDC273"/>
<path transform="translate(1340,782)" d="m0 0 2 2v6l-5 4-10-1-2-2 4-1 4 2 4-1 3-2z" fill="#995253"/>
<path transform="translate(1134,568)" d="m0 0 4 1 16 1v1l-23 1-1-2z" fill="#59A1B3"/>
<path transform="translate(1190,503)" d="m0 0 10 1 5 2-1 3-7 2 4-4-11-2z" fill="#E1F0F8"/>
<path transform="translate(1250,1207)" d="m0 0h2l-1 17h-2v-10z" fill="#FDC077"/>
<path transform="translate(882,994)" d="m0 0 10 1 3 2-3 1-5-1-11 1 4-3z" fill="#5F8BA8"/>
<path transform="translate(1270,976)" d="m0 0 4 2-13 8v-3z" fill="#427EA4"/>
<path transform="translate(1181,923)" d="m0 0 4 2h3l-2 4 2 3-4 1-2-2z" fill="#4E88A8"/>
<path transform="translate(186,864)" d="m0 0 2 3 1 7-5-2-6-7 4 2 4 3z" fill="#D6E0E5"/>
<path transform="translate(923,723)" d="m0 0 4 2 3 7v7l-2 3-1-5v-7z" fill="#FDBB87"/>
<path transform="translate(1020,703)" d="m0 0h1l1 16 1 2 8 1v1l-11 1z" fill="#3A5E7A"/>
<path transform="translate(589,581)" d="m0 0 1 3-4 6-8 11v-3z" fill="#E2F2FA"/>
<path transform="translate(670,560)" d="m0 0 2 1-3 9-3 4-1-4z" fill="#57A1B2"/>
<path transform="translate(693,494)" d="m0 0h2l-1 8-2 7-2-3 1-7z" fill="#589EB1"/>
<path transform="translate(825,1174)" d="m0 0h3v3l-7 5-5 1-2-1 1-2 7-2 3-1z" fill="#B43C3B"/>
<path transform="translate(1315,1154)" d="m0 0h2v8l-5-1-1-2z" fill="#F7F8F9"/>
<path transform="translate(550,947)" d="m0 0 2 4-3 12-3 1z" fill="#3AB0A4"/>
<path transform="translate(1051,856)" d="m0 0h9l10 3v2l-12-2-7-2z" fill="#C0C0BF"/>
<path transform="translate(219,831)" d="m0 0 5 2 12 8-2 1-12-7-3-2z" fill="#5C6F94"/>
<path transform="translate(1318,584)" d="m0 0h17l7 2v1h-8l-16-2z" fill="#D8E0E4"/>
<path transform="translate(746,558)" d="m0 0 2 1-6 6 6-1-3 3-5 2-3-1z" fill="#E3F0F7"/>
<path transform="translate(1045,545)" d="m0 0 2 2 3 7 4 4-5-2-3-2-1 4z" fill="#FDB98E"/>
<path transform="translate(647,1025)" d="m0 0 7 1 2 1v2l-7 1-2-1z" fill="#F0F2F3"/>
<path transform="translate(1228,1009)" d="m0 0h1l-1 11-2 9h-1v-8l2-10z" fill="#B79A96"/>
<path transform="translate(226,979)" d="m0 0 10 3-3 3-5 2-1-2h2v-4l-3-1z" fill="#5B8CA9"/>
<path transform="translate(320,969)" d="m0 0h1l-1 10-1 6-2-2 1-13z" fill="#52A6B1"/>
<path transform="translate(276,920)" d="m0 0h2l6 10v3h-2l-4-6v-4h-2z" fill="#73B9C1"/>
<path transform="translate(476,742)" d="m0 0 5 4 4 1v2l-8 1z" fill="#6D3031"/>
<path transform="translate(949,674)" d="m0 0 3 3v2h2v2h-10l4-4z" fill="#5C8CA9"/>
<path transform="translate(621,650)" d="m0 0 1 2-3 7-3 4h-2l1-4z" fill="#6EB8BC"/>
<path transform="translate(570,608)" d="m0 0 2 1-2 4-4 6h-1v-8z" fill="#4DACB0"/>
<path transform="translate(948,604)" d="m0 0h5l2 6-2 1-5-3-1-3z" fill="#E8ECEF"/>
<path transform="translate(976,593)" d="m0 0h1l1 11-1 4-3-1z" fill="#B3625A"/>
<path transform="translate(1046,554)" d="m0 0 5 2 9 7h-3l-10-5z" fill="#5991AC"/>
<path transform="translate(231,1042)" d="m0 0h4v3h2v5l-3-3-5-1v-3z" fill="#FD9C68"/>
<path transform="translate(340,818)" d="m0 0 6 1 9 4v2l-11-3z" fill="#E2F2FA"/>
<path transform="translate(723,581)" d="m0 0 2 3-8 9-1-2 6-9z" fill="#4DAEB1"/>
<path transform="translate(753,1199)" d="m0 0 3 1v1l-6 2h-12l4-2z" fill="#906874"/>
<path transform="translate(698,1066)" d="m0 0h2l3 10-4-2-2-5z" fill="#3D6481"/>
<path transform="translate(839,988)" d="m0 0h6l-3 2-12 4h-5l3-2z" fill="#D7E2E8"/>
<path transform="translate(853,919)" d="m0 0 5 1v9h-2z" fill="#AE3D3C"/>
<path transform="translate(230,861)" d="m0 0 4 2 5 6h-3-2l-5-7z" fill="#5A94AE"/>
<path transform="translate(613,662)" d="m0 0 3 2-6 10-2-4z" fill="#54ABB2"/>
<path transform="translate(975,590)" d="m0 0h4v14h-1l-2-9h-1z" fill="#9B4644"/>
<path transform="translate(331,1008)" d="m0 0 4 2 2 3-1 4-4-1z" fill="#6A9EB4"/>
<path transform="translate(225,933)" d="m0 0h1l1 9 2 1h-2l-2 5-2-1z" fill="#5D88A7"/>
<path transform="translate(211,932)" d="m0 0 3 1 4 8-1 3-6-9z" fill="#6D7C9D"/>
<path transform="translate(1230,870)" d="m0 0 3 3-6 5h-3l2-4z" fill="#407A9A"/>
<path transform="translate(709,724)" d="m0 0h2l-1 3-7 4h-3l-1-3 5-1h2v-2z" fill="#3DABA4"/>
<path transform="translate(689,506)" d="m0 0h2l-1 9-1 3h-2l1-9z" fill="#4FABB1"/>
<path transform="translate(1192,427)" d="m0 0h3v5l-3-2-7 8-1-3z" fill="#DFEEF6"/>
<path transform="translate(644,992)" d="m0 0 13 1 1 2h-12l-2-1z" fill="#C0C9CC"/>
<path transform="translate(936,967)" d="m0 0 3 1-3 4-7 2h-9v-1l11-2 3-2z" fill="#A06B6E"/>
<path transform="translate(129,815)" d="m0 0h7l10 2v1h-13l-1 2z" fill="#D1D9DD"/>
<path transform="translate(510,1252)" d="m0 0h2v2l-11 5-3-1z" fill="#FDFDFE"/>
<path transform="translate(887,1024)" d="m0 0 2 1v3 1l-9 1-1-2z" fill="#E7F0F5"/>
<path transform="translate(372,1011)" d="m0 0 2 1v5l-11-1v-1h7v-2h2z" fill="#346D83"/>
<path transform="translate(871,972)" d="m0 0 2 4 7 1v1l-11 2z" fill="#FABA78"/>
<path transform="translate(858,923)" d="m0 0 2 3 2 7-4 1-1-6z" fill="#C34544"/>
<path transform="translate(1330,806)" d="m0 0h5l-3 5-7-2 1-2z" fill="#457EA1"/>
<path transform="translate(681,654)" d="m0 0h1v5l9-3-3 3-9 3 1-6z" fill="#E0EFF6"/>
<path transform="translate(956,603)" d="m0 0 4 1-1 5-3 2-1-7z" fill="#E6ECEF"/>
<path transform="translate(1292,993)" d="m0 0 3 2h6l4-2-2 5h-7l-4-3z" fill="#FDBE7D"/>
<path transform="translate(883,992)" d="m0 0 9 1 4 2-1 2-13-3z" fill="#F4C48B"/>
<path transform="translate(1274,960)" d="m0 0 2 4-3 9h-2l1-7z" fill="#437FA4"/>
<path transform="translate(1057,907)" d="m0 0 4 1 2 4-5-1v-2l-5 2-3-1z" fill="#628AA7"/>
<path transform="translate(1403,903)" d="m0 0 1 3-4 8-3 1 2-6z" fill="#4D85A7"/>
<path transform="translate(197,900)" d="m0 0 2 3v5l-6-3-3-4h3l1 2 3 1z" fill="#D7DFE2"/>
<path transform="translate(661,845)" d="m0 0h4l-1 7-3-1-2-4z" fill="#FDBF74"/>
<path transform="translate(1315,804)" d="m0 0 3 1-1 3h4v3l3 1-2 2-7-6z" fill="#3E7896"/>
<path transform="translate(1032,727)" d="m0 0h7l-1 4-7-1z" fill="#AB6664"/>
<path transform="translate(959,696)" d="m0 0h1l2 14-2 1-2-6z" fill="#617A9B"/>
<path transform="translate(883,630)" d="m0 0h2l5 9-1 4-2-3-4-8z" fill="#607699"/>
<path transform="translate(967,1200)" d="m0 0h3l2 6v6l-3-4z" fill="#F1F4F6"/>
<path transform="translate(714,1114)" d="m0 0 3 1 1 8-1-2-3-1-1-4z" fill="#3D6481"/>
<path transform="translate(544,975)" d="m0 0 1 4-3 10h-1v-7l2-6z" fill="#39ADA1"/>
<path transform="translate(214,940)" d="m0 0 3 3-1 4-8-5 2-1 4 1z" fill="#D8E1E5"/>
<path transform="translate(1323,673)" d="m0 0v3l-9 10-1-2 7-8z" fill="#E2F2FA"/>
</svg>
