<?xml version="1.0" encoding="UTF-8"?>
<svg version="1.1" viewBox="0 0 1600 1600" width="500" height="500" xmlns="http://www.w3.org/2000/svg">
<path transform="translate(841,247)" d="m0 0h52l42 4 25 4 36 8 26 7 36 12 34 13 20 9 25 11 29 14 28 14 14 8 27 14 23 13 15 9 21 13 19 13 16 12 14 11 11 9 14 12 24 22 16 16 7 8 8 8 9 11 13 15 15 20 13 18 15 23 12 20 12 22 15 31 12 30 8 22 8 28 6 26 7 40 2 23 1 23v32l-2 28-3 20-6 30-8 28-7 21-12 29-10 21-12 22-9 15-16 24-10 13-11 13-9 11-8 8-7 8-11 11-8 7-15 13-15 12-19 13-21 13-22 12-18 8-11 5-20 7-21 6-25 6-42 5h-37l-45-5-40-8-40-10-63-20-36-12-55-18-35-10-42-10-30-5-25-3h-62l-28 4-24 5-32 9-36 12-53 22-37 16-34 15-28 11-23 9-24 8-30 8-22 5-45 6h-48l-39-6-33-11-16-7-13-7-10-7-13-10-21-21-8-11-12-20-8-17-8-26-6-31-1-7v-60l4-29 7-37 6-25 12-43 17-62 5-22 4-20 5-34 1-14v-44l-2-25-7-47-7-43-4-24-5-40v-53l6-36 10-30 8-17 11-17 9-11 15-15 19-13 14-8 21-8 23-6 24-4 32-3h18l30 2 52 5 14 1h51l19-3 36-9 27-9 23-10 29-13 25-12 26-11 25-10 28-10 35-11 27-7 27-6 32-6 44-5z" fill="#FCFDFD"/>
<path transform="translate(628,392)" d="m0 0h11l20 7 29 14 21 12 21 14 13 10 13 11 13 12 11 12 18 22 7 11 7 10 14 27 8 21 6 17v5l9 1 21-1-8-16-11-23-11-24-1-5 4-8 4-3h9l27 4 27 5 43 7 21 4 39 7 30 5 27 5 19 9v2l4 2 10 9 11 11 7 8 7 7 7 8 15 16 12 13 12 12 5 7 8 7 10 11 7 8 11 11 7 8 5 5 9 10 7 8 4 6v7l-3 6-7 3-22 3-27 4-16 2-22 4-8 4-6 7-10 16-6 2 1 13v17l-1 14-5 14-7 11-7 7-1 3v201l-1 23-5 14-7 9-10 6-9 4-22 1-91 1h-194l-4 5-5 1-14-3-10-3-176-1-11-2-11-6-9-8-6-11-1-4-1-198-4-1-9-6-17-9-6-3-5-1-37-2-6-3-3-4 1-4 26-8-6-7-11-11-9-11-10-15-4-7-2-1-2 6-5 10-4 2h-6l-10-5-9-3-9-4-12-4-12-6-2-2 1-8 1-1 17 1 23 2h14l3-8-1-9-4-15-3-13-2-21-1-6v-26l2-24 5-25 8-27 4-9 4-6 3-2h4v-2h9l11 4 12 7 16 11 4 4 19-14 6-5-15-3-12-2-3-2v-7l-45-1-1-2-2-19h66l15-1 6-3 2-4v-15l-4-27-1-7h11l7 7 2-4 8-10 2-1 3-6 8-4 3-2h6l3 3h8l4-4h7l2 1v-14l-5-3v-2h-2l-1-5 1-3v-30l-1-4h-6l-8 4-14 3-12 1-3-3-3-6 1-10 8-11 5-3 4-1h17l8 3 8 6 5 6 2 5 2 10 8 8 1 3v12l-3 6 4 2 5 8 7-46 5-21 5-9 8-7z" fill="#FD9B35"/>
<path transform="translate(1265,875)" d="m0 0 35 2h9l-3 10-9 21-6 10-8 7-3 7 1 7 4 6 3 2h8l6-4 4-6 3-13 2-1-2 12-2 22v15l10 24 12 26 5 11 4 10 15 1 31 7 35 10 25 9 11 6 9 7 6 8 1 3v7l-5 8-11 8-17 9-17 6-20 6-24 6-34 7-35 6-39 6-48 6-42 4-59 5-57 4-85 4-45 2-74 2h-118l-82-2-110-5-73-5-59-5-39-4-53-7-57-9-40-8-23-5-24-7-19-7-15-8-9-7-5-6-2-4v-7l4-6 7-7 15-9 15-6 25-8 28-7 40-8 41-7 5-3 6-8 11-12 13-12 18-13 13-8 6-3 5 2 21 12 19 9 30 11 15 5 31 6 14 3 1 19 1 53 4 10 6 8 10 7 9 4 8 1 176 1 17 5 9 1 4-2 3-4h194l91-1 22-1 16-8 5-4 5-9 4-11 1-23 8-5 7-4h3v-2h3v-2l8-5 10-8 8-7 12-16 9-15 14 1 15 4 23 8 11 5 2-16 8-36 5-21 9-37 5-19 5-20z" fill="#D4D5D6"/>
<path transform="translate(847,518)" d="m0 0h9l27 4 27 5 43 7 21 4 39 7 30 5 27 5 19 9v2l4 2 10 9 11 11 7 8 7 7 7 8 15 16 12 13 12 12 5 7 8 7 10 11 7 8 11 11 7 8 5 5 9 10 7 8 4 6v7l-3 6-7 3-22 3-27 4-16 2-22 4-8 4-6 7-10 16-2 1h-10l-11-7-27-14-16-9-23-12-16-9-23-12-14-8-25-13-18-10-19-10-29-16-13-7-4-3-5-2-2-5 1-10 1-2h-20l-1 2-1-1h-131l-8 4-5 8-2 8h-44v-46l2-7 7-7 10-4h171l21-1-8-16-11-23-11-24-1-5 4-8z" fill="#424141"/>
<path transform="translate(1098,868)" d="m0 0h1l1 203-1 23-5 14-7 9-10 6-9 4-22 1-91 1h-82l-104-1-11-2-5-6-14-11-8-7-8-6 1-5 3-8 6-3 5-25 10-63 3-25 33 11 14 3 16 1 17-1 21-5 19-7 29-13 34-15 37-16 27-12 32-14 13-6 24-10 24-11z" fill="#0252AC"/>
<path transform="translate(692,778)" d="m0 0 7 2v2l5 2 5 4 16 5 10 4 37 12 8 3h8l10-2 28-2h11l6 4 2 5v10l-5 5-8 3-20 3-29 3-9-1-15-5-12-5-20-6-7-2 2 10 3 7 7 20 3 10v9l-5 6-6 3-30 5-8 1h-14l-5-2-4-6-1-3 1-39 1-7-16 16-8 10-9 11-6 21-4 15v4l16 6 16 7 13 5 7 3 9 3 6 21 4 16v6l-16 11-22 14-13 9-19 12-3 3v9l-5 5-16 11-5 5 1 5 15 30 5 12 4 6 5 1 4-3v-20l-2-23-1-4 6-3h11l12-6 19-12 28-19h1v12l-5 28v13l6 4-1 19-3 15v3l20 7 4 3-1 1h-169l-11-2-11-6-9-8-6-11-1-4-1-230 5 2 23 11 28 11 21 9h5l5-20 7-21 6-8 10-11 9-11 11-12 9-11 7-7 11-14 3-5h2l4 8 3 2 6-1 3-1z" fill="#0252AC"/>
<path transform="translate(275,708)" d="m0 0 18 1 40 5 34 8 21 7 2 6 3 19 6 23 1 9-3 8-1 1h-14l-32-3h-8l-1 8 5 3 13 6 12 4 8 4 10 3 5 3h6l4-1 2-6 5-10 3 1 9 15 9 12 14 15 8 8-3 3-24 7 1 4 1 3 6 2 37 2 10 3 14 8 12 7 5 3 1-3v148h-1v-19l-14-2-31-6-24-8-28-11-25-13-11-7v-2l-4-2-13-10-13-11-12-11-8-8-9-11-8-10-12-17-12-21-8-15-11-27-8-27-7-30-4-24-1-21 2-7 9-10 9-5z" fill="#78D6FD"/>
<path transform="translate(628,392)" d="m0 0h11l20 7 29 14 21 12 21 14 13 10 13 11 13 12 11 12 18 22 7 11 7 10 14 27 8 21 6 17v5l-1 1-161 1-10 4-7 8-1 5v28l-1 18-80 1 5-5 7-8 5-8 3-11v-10l-4-16 1-6-1-24-5-55-1-6 11 2v2l6 2h7l8-4 2-3-12-7h-9l-1-10-2-2-6-2 2-14 2-7 6-40 5-21 5-9 8-7z" fill="#FEE992"/>
<path transform="translate(1093,781)" d="m0 0h8l12 7 1 1 8 1-2 1 1 13v17l-1 14-5 14-7 11-7 7-2 3h-3l-15 8-28 12-18 8-10 4-11 5-34 15-116 51-23 7-10 2-23 1-17-2-26-8-14-6v11l-7 45-8 49-3 9-6 3-3 9 1 4 11 8v2l4 2 10 8 8 7v2l11 1v1l-8 1-4 5-5 1-14-3-10-3-7-1-3-3-20-7-1-4 3-15 1-19-6-4v-13l5-28v-11l-22 15-15 10-19 11-6 1h-8l-3 2h-3l2 4 2 23v20l-5 4-5-1-7-11-7-16-12-24 1-5 13-10 11-7 1-4v-7l8-7 18-11 10-7 19-12 16-11 2-1-1-9-7-28-2-6-14-4-11-5-12-5-19-8-5-2 1-7 5-19 5-16 11-12 8-10 10-10 2-3h2l-1 46 4 8 5 2h14l28-4 13-3 5-3 3 2 7 39 5 24 1 1h7l7-1 7 3 16 4-1-1-8-7-5-8-3-12v-10l4-13 6-8 6-5 5-3 13-3 12 1 10 4 8 6 6 9 3 8 1 4v11l-3 10-1 2 9-2 30-12 29-13 30-13 15-7 17-7 22-10 24-10 8-4 21-9 24-12 6-5h2v-2l5-5 6-9 4-11 1-3 1-19z" fill="#B38361"/>
<path transform="translate(1215,751)" d="m0 0h9v29l-2 26-1 1-14-1-42-4-7-2-9-7-9-1-6 3-4 6v7l5 8 2 1 32 2 35 4 19 2 2 9 3 4 4 10 1 14-9 36v25l3 14 2 3-1-12v-19l4-20 8-23v-17l-5-17-3-10 14-8 8-5 6-4-1-4-3-3 1-2 7 8 1 6-4 21-9 25 1 7 8 9 3 2-1 9-7 29-4 15-7 30-10 42-5 26-9-3-19-7-16-5-15-2h-4l-10 17-8 10-8 9-14 11-5 3h-2v2h-3v2l-17 8-1-4v-196l3-5 8-9 7-14 2-7 1-14v-30l6-3 11-18 8-7 9-3 23-4 26-3z" fill="#FCFDFD"/>
<path transform="translate(1080,568)" d="m0 0 5 1 13 11h3l7 6 7 8 9 10 10 10 7 8 10 10v2h2l9 11 12 12 8 10 1 3 4 2 5 4 7 8-1 2 4 5 7 8 15 16 12 14 7 7 2 5-1 5-7 3-22 3-27 4-16 2-22 4-8 4-6 7-10 16-2 1h-10l-11-7-27-14-16-9-23-12-16-9-23-12-14-8-25-13-18-10-19-10-29-16-13-7-4-3-5-2-2-5 1-10 1-2h-20l-1 2-1-1h-131l-8 4-5 8-2 8h-43v-2h36l5-1 2-9 4-10 5-7h2v-2l14-1 148-1 1-1 1-13h2v14l-6 11 6 1 17 9 30 16 15 9 12 6 16 9 12 6v2l6 1 14 8 10 5 17 9 5 3 12 7 16 8 10 6 22 12 12 6 6 1 5-3 2-4-1-5-8-5-27-15-21-11-10-6-12-6-12-7-14-7-22-12-26-14-29-16-13-7v-1l8 1 18 4 23 2h20l19-3 18-7 12-8 10-10 8-11 8-14 6-15 5-15z" fill="#222021"/>
<path transform="translate(718,641)" d="m0 0h131 2 20l-1 12 2 5 7 3 10 6 19 10 22 12 15 8 22 12 25 13 10 6 27 14 16 9 23 12 16 9 2 2-5 1-7-4-11-4-7-5-3-1v-2l-5-2-8-3v-2l-9-3-10-6-10-4-5-3-9-5-10-5-9-6-8-5-8-3-16-8-7-2h-10l-35 7-44 5-25 3-48 7-32 5-32 3-1-1-2 4v-9l3-3v-7l-1-3-7-1-4-1v-3h-12l-3-2-5 1-5 3-12-2-3 5-1 9-4 6 1 6-2 6h-2l-1 3v-2l-32 5-33 6-10 3-14 7-9 10-7 9-11 14-8 8-5 1-8-4-3-3-1-3-1-25 1-18 3-24 2-7 14-18 8-10 11-10 13-10 16-10h125l1-8 6-9z" fill="#FEAD37"/>
<path transform="translate(1098,868)" d="m0 0h1l1 203-1 23-5 14-7 9-10 6-9 4-22 1-91 1h-82l-104-1-11-2-5-6-14-11-8-7-8-6 1-5 3-8 3 1v5l1 1h287l17-1 11-3 8-4 7-7 5-12 1-7 1-146-17 7-13 6-30 13-25 11-22 9-15 7-35 16-29 13-26 10-14 4-20 3h-17l-17-3-15-4-23-9v4h-2l1-13 2-17 33 11 14 3 16 1 17-1 21-5 19-7 29-13 34-15 37-16 27-12 32-14 13-6 24-10 24-11z" fill="#032A66"/>
<path transform="translate(539,408)" d="m0 0h17l8 3 8 6 5 6 2 5 2 10 8 8 1 3v12l-3 6 4 2 4 6v11l-2 6 7 2 2 2v10l2-1h7l12 7v3l-5 4-5 2h-7l-6-3v-2l-9-1-2-1 2 6 5 55 1 24-1 6 4 16v10l-4 13-9 12-10 8-18 11-14 12-8 7-21 27-13-1-12-7-12-9-7-6-7-8-9-12-5-10-1-6v-11l3-7 18-18 14-10 10-8-15-3-12-2-3-2v-7l-45-1-1-2-2-19h66l15-1 6-3 2-4v-15l-4-27-1-7h11l7 7 2-4 8-10 2-1 3-6 8-4 3-2h6l3 3h8l4-4h7l2 1v-14l-5-3v-2h-2l-1-5 1-3v-30l-1-4h-6l-8 4-14 3-12 1-3-3-3-6 1-10 8-11 5-3z" fill="#F77D34"/>
<path transform="translate(418,601)" d="m0 0h9l11 4 12 7 16 11 3 3-1 4-15 15-2 6v11l2 8 6 11 8 10 8 9 13 10 13 8 2 1 11 1-1 8-2 10-5 47-7 58 1 7 4 6v2h2l7 8 1 3v27l-1 3-4-1-9-6-17-9-6-3-5-1-37-2-6-3-3-4 1-4 26-8-6-7-11-11-9-11-10-15-4-7-2-1-2 6-5 10-4 2h-6l-10-5-9-3-9-4-12-4-12-6-2-2 1-8 1-1 17 1 23 2h14l3-8-1-9-4-15-3-13-2-21-1-6v-26l2-24 5-25 8-27 4-9 4-6 3-2h4z" fill="#FAB69F"/>
<path transform="translate(378,977)" d="m0 0 5 2 21 12 19 9 30 11 15 5 31 6 5 1v2l7 1 1 5v42l-5 5-13 11-17 11-21 11-22 8-19 5-26 4h-27l-35-6-24-6-17-6-6-4-3-4v-11l5-13 8-15 7-11 7-10 6-8 7-9 11-12 13-12 18-13 13-8z" fill="#FEE892"/>
<path transform="translate(1093,781)" d="m0 0h8l12 7 1 1 8 1-2 1 1 13v17l-1 14-5 14-7 11-7 7-2 3h-3l-15 8-28 12-18 8-10 4-11 5-34 15-116 51-23 7-10 2-23 1-17-2-26-8-12-5-3-3-3-12 1-5h7l7-1 7 3 16 4-1-1-8-7-5-8-3-12v-10l4-13 6-8 6-5 5-3 13-3 12 1 10 4 8 6 6 9 3 8 1 4v11l-3 10-1 2 9-2 30-12 29-13 30-13 15-7 17-7 22-10 24-10 8-4 21-9 24-12 6-5h2v-2l5-5 6-9 4-11 1-3 1-19z" fill="#F87C33"/>
<path transform="translate(683,705)" d="m0 0 5 1 1 1h10l2 1 1 3h7l3 9-1 4-1 1-1 12h-3l-3-13-13 2-5 4-14 3v12l-1 1v8l4 16-1 8-2 7-8 10-11 12-9 11-12 13-9 11-11 12-4 7-6 19-5 20-1 1-8-1-28-12-25-10-16-8-8-6-4-4v-2h-2l-6-10 1-15 6-48 5-47 4-17 2 1-3 19-2 23v14l1 16 3 5 8 4 6-2 8-8 10-13 11-14 7-6 14-7 29-6 36-6h8l3-3 1-5-1-5 4-6 1-9 4-6 12 2z" fill="#FD9B35"/>
<path transform="translate(692,778)" d="m0 0 7 2v2l5 2 5 4 16 5 10 4 37 12 8 3h8l10-2 28-2h11l6 4 2 5v10l-5 5-8 3-20 3-29 3-9-1-15-5-12-5-20-6-7-2 2 10 3 7 7 20 3 10v9l-5 6-6 3-30 5-8 1h-14l-5-2-4-6-1-3 1-39 1-7-16 16-8 10-9 11-6 21-4 15v4l16 6 16 7 13 5 7 3 9 3 6 21 4 16v6l-4 1v-10l-4-5-20-9-44-18-7-2-2 3-1-10-12-3-3-2h-3l-3 6-2 1v-5l-4-3-37-15-31-13-1-1-1-28 5 2 23 11 28 11 21 9h5l5-20 7-21 6-8 10-11 9-11 11-12 9-11 7-7 11-14 3-5h2l4 8 3 2 6-1 3-1z" fill="#43435D"/>
<path transform="translate(1265,875)" d="m0 0 35 2h9l-3 10-9 21-6 10-8 7-3 7 1 7 4 6 3 2h8l6-4 4-6 3-13 2-1-2 12-2 22v15l10 24 12 26 5 11 4 10 3 7v8l-4 5-21 9h-7l-7-6-6-15-9-20-8-19-3-6h-2l-5 35-7 43-4 16-6 3-9-1-17-2-5-5-2-3 1-11 6-36 8-46 8-34 7-29 5-21 5-19 5-20z" fill="#0252AC"/>
<path transform="translate(1167,1007)" d="m0 0 14 1 15 4 23 8 11 5-2 13-1 7-3 8-3 18-4 17-2 3-6 3-10 10-15 10-18 8-16 6-19 5-8 1h-30l-16-2-4-4 9-7 5-5 6-8 5-14 1-23 8-5 7-4h3v-2h3v-2l8-5 10-8 8-7 12-16z" fill="#FEE892"/>
<path transform="translate(944,444)" d="m0 0 11 1 8 7 4 7 1 4v14l-3 31-4 28-27-4-42-7-27-5-9-1h-9l-5 5-2 6 5 13 17 35 8 18 1 2-25 1-7-1v-6l-11-31-13-27-9-15-1-4 8-7 8-8 11-9 15-11 16-9 21-10 25-9 22-6z" fill="#77D6FD"/>
<path transform="translate(619,395)" d="m0 0 5 1 12 23 10 19 10 20 10 19 15 30 10 19 17 33 18 36v2h-38l-4-4-9-12-5-5-7-9-10-8-3-3-5-4-14-10-8-5v-2l-5-1-7-4-7-3-8-3 1-6-1-2h4v2l6 2h7l8-4 2-3-12-7h-9l-1-10-2-2-6-2 2-14 2-7 6-40 5-21 5-9z" fill="#F9AE54"/>
<path transform="translate(594,604)" d="m0 0 2 1 4 16v10l-4 13-9 12-10 8-18 11-14 12-8 7-21 27-13-1-12-7-12-9-7-6-7-8-9-12-5-10-1-6v-11l3-7 18-18 14-10 10-8 4-1 25 2 16 3 31 3h9l8-5 5-5z" fill="#042A65"/>
<path transform="translate(378,977)" d="m0 0 5 2 21 12 19 9 30 11 21 7 1 2-14 6-47 20-31 13-39 16-26 11-32 13-5 2h-4v-10l5-13 8-15 7-11 7-10 6-8 7-9 11-12 13-12 18-13 13-8z" fill="#F9AD53"/>
<path transform="translate(700,1023)" d="m0 0h1v12l-5 28v13l6 4-1 19-3 15v3l20 7 4 3-1 1h-169l-11-2-11-6-9-8-6-11-1-10 4-1h83l-3-10-6-14v-2h2l15 30 5 12 4 6 5 1 4-3v-20l-2-23-1-4 6-3h11l12-6 19-12z" fill="#042B67"/>
<path transform="translate(1099,870)" d="m0 0h1l1 73 19-10 21-8 16-5 6-1h10l5 3 3 5 1 7v10l-2 21-5 22-8 21-10 17-8 10-8 9-14 11-5 3h-2v2h-3v2l-17 8-1-4z" fill="#53C0FB"/>
<path transform="translate(589,514)" d="m0 0 7 1v2l3 1h-2l-1 6 6 1 5 3 10 4 2 2 4 1v2l5 2 14 10 6 4v2l5 2 5 5 8 7 4 6 5 5 9 11 2 5h2v2l-14 2-8 5-5 6-1 5v28l-1 18-80 1 5-5 7-8 5-8 3-11v-10l-4-16 1-6-1-24-5-55z" fill="#77D6FD"/>
<path transform="translate(718,641)" d="m0 0h131 2 20l-1 12 2 5 7 3 4 4v2l4 3v2l5 2 5 5-1 2h-24l-7-1h-33l-103 1h-136l-16 1-10 2-6 1-3-1-1-4 10-7 10-6 113-1h11l2-2h12v-9l-1-10-1-2z" fill="#FD9B35"/>
<path transform="translate(678,598)" d="m0 0h193l5 8 3 6-1 16-2 2-162 1v2h-2l-7 14-4 12-7 2h-14l-20-1-1 2v-46l2-7 7-7z" fill="#0253AC"/>
<path transform="translate(731,882)" d="m0 0 4 2 7 39 7 35 3 9-3 25-12 75-3 13-4 3-3 1-3 9 1 4 11 8v2l4 2 10 8 8 7v2l11 1v1l-8 1-4 5-5 1-14-3-10-3-7-1-3-3-20-7-1-4 3-15 1-16 2-3h8l2 1v-2h-2l-1-2v-15l8-49 3-21v-10l-5-18-11-25-5-10-7-20-5-15h-2v-2l28-4 13-3z" fill="#B99374"/>
<path transform="translate(275,708)" d="m0 0 18 1 40 5 34 8 21 7 2 6 3 19 6 23 1 9-3 8-1 1h-14l-32-3h-8l-2 1-7-4-13-12-14-14-8-7-15-15-3-2v-2h-2v-2h-2l-5-5-7-9-6-1 1-4 9-6z" fill="#53C0FB"/>
<path transform="translate(501,515)" d="m0 0h11l7 7 2 6 6 4 5 5 1 16-2 8v9l2 9 4 7 2 1h8l9-38 2-8 1-1 13 1 7 2-1 10-10 45-3 10-3 3v2h2v2l-15-1-16-2-9-2-32-3-24-4-3-2v-7l-45-1-1-2-2-19h66l15-1 6-3 2-4v-15l-4-27z" fill="#FAB69E"/>
<path transform="translate(1296,763)" d="m0 0 6 1 11 8 6 7 5 14 4 13v11l-5 3-14 2-1 3 6 25 1 5v7l-5 15-3 1-30-1-13-1-5-5-7-8-1-7 9-25 4-21-1-6-7-8-4-6-1-5 12-9 14-11 12 1z" fill="#53C0FB"/>
<path transform="translate(455,710)" d="m0 0 3 3 13 35 10 27 1 5v16l-2 55-8 3-12 4h-6l-18-18-9-11-10-15-4-7-2-1v-6l8-16 16-33 15-30z" fill="#FEE992"/>
<path transform="translate(485,507)" d="m0 0h42l1 4-8 9-1 2-4-2-1-4-13-1 3 14 3 20v15l-4 6-5 2-24 1h-56l-2 1-1-4-9-4-3-3-1-3v-8l5-5 1-5-4-14v-9l3-4 59-1 6-1 1-3z" fill="#D3D3D3"/>
<path transform="translate(411,806)" d="m0 0 3 1 9 15 9 12 14 15 8 8-3 3-24 7 1 4 1 3 6 2 37 2 10 3 14 8 12 7 5 3 1-3v148h-1l-1-84-24-24-3-2v-2l-4-2-23-23-8-7-26-26-8-6-17-16-31-31-11-9-3-4 12 3 13 6 10 3 5 3h6l4-1 2-6z" fill="#53C0FA"/>
<path transform="translate(414,603)" d="m0 0h5l10 30 7 19 5 14 2 6-13 36-15 39-13 34-1 5h-1l-4-16-5-21-2-21-1-6v-26l2-24 5-25 8-27 4-9 4-6z" fill="#FFE992"/>
<path transform="translate(537,929)" d="m0 0 4 2 8 13 16 36 8 15 7 9 2 4h2v2l4 2 11 8 11 5 5 2 2 5-3 6-3 3-5 3-2 4-6 1v2l-7 6-1 10h-8l-16-5-8-4-14-14-8-14-3-13-1-14v-69l2-4z" fill="#026FB0"/>
<path transform="translate(484,716)" d="m0 0 4 2 7 7 11 8 1 6v22l-3 28-5 40-1 9v9l6 9v2h2l7 8 1 3v27l-1 3-4-1-9-6-17-9-6-3-5-1-37-2-6-3-3-4 1-4 26-8 10-2 16-5 3-80 1-44z" fill="#FAB69F"/>
<path transform="translate(850,527)" d="m0 0 23 2 27 5 23 4 36 6 7 2 9 1 12 3 9 2 13 3 3 1 16 3 11 3 5 2v1h-121l-16 2-8 4-4 6-2 10-2 18-3 2-6-2-1-5-3-3-6-12-14-33-6-14z" fill="#615D5D"/>
<path transform="translate(1310,923)" d="m0 0 1 2-2 10-2 22v15l10 24 12 26 5 11 4 10 3 7v8l-4 5-21 9h-7l-7-6-6-15-9-20-8-19-3-6-2-2 1-12 5-17 6-15 1-3v-7l-4-4 1-2 4 3h8l6-4 4-6 3-13z" fill="#052B66"/>
<path transform="translate(802,884)" d="m0 0 12 1 10 4 8 6 6 9 3 8 1 4v11l-3 10-6 9-8 7-12 5h-16l-11-4-8-6-7-10-3-12v-10l4-13 6-8 6-5 5-3z" fill="#052A64"/>
<path transform="translate(1239,747)" d="m0 0 3 1-2 1-1 28-4 19-1 3 10-4 6-4 4 1 5 8 2 2-1 4-8 5-13 8-6 3 3 10 5 17v17l-9 27-3 16v19l1 13-4-4-3-14v-25l6-26 3-10-1-14-5-12-2-2-1-9-19-1-35-4-32-2-5-4-3-6v-7l4-6 4-3 9-1 7 4 7 5 55 6h6l2-26 1-29-4-1 17-2z" fill="#FAA777"/>
<path transform="translate(1167,1007)" d="m0 0 14 1 15 4 23 8 11 5-2 13-1 7-3 4-27 6-30 7-50 11-11 2h-6v17h-1v-21l8-5 7-4h3v-2h3v-2l8-5 10-8 8-7 12-16z" fill="#F9AE55"/>
<path transform="translate(944,444)" d="m0 0 11 1 8 7 4 7 1 4v14l-3 31-4 28-27-4-36-6 2-6 13-14 1-2h2l2-4 10-12 9-11 13-16 5-7-1-6h-15l-23 6-30 10-16 7-13 7-12 7-13 10-3 3h-2v2l-8 7-7 7-4 1v5l-3-2v-3l8-7 8-8 11-9 15-11 16-9 21-10 25-9 22-6z" fill="#53C0FB"/>
<path transform="translate(539,408)" d="m0 0h17l8 3 8 6 5 6 2 5 2 10 8 8 1 3v12l-3 6 4 2 4 6v11l-2 6 7 2 2 2v10l2-1h7l12 7v3l-5 4-5 2h-7l-6-3v-2l-12-1-3-6-1-6-5-2-3-7-1-13-5-3v-2h-2l-1-5 1-3v-30l-1-4h-6l-8 4-14 3-12 1-3-3-3-6 1-10 8-11 5-3z" fill="#443B3F"/>
<path transform="translate(501,515)" d="m0 0h11l7 7 2 6 6 4 5 5 1 16-2 8v9l2 9 4 7 10 2v1h-15l-52-5h-7l-6 4-2 6-45-1-1-2-2-19h66l15-1 6-3 2-4v-15l-4-27z" fill="#B99272"/>
<path transform="translate(700,1023)" d="m0 0h1v12l-5 28v13l6 4-1 11h-69l-3-2-3-21-2-5 6-3h11l12-6 19-12z" fill="#0252AC"/>
<path transform="translate(1099,870)" d="m0 0h1l1 73 7-4 8-1 18-8 19-6 5-2 14-1 2 2-1 5-14 17-13 16-12 14-9 11-10 12-9 11-3 3-3-1-1-43z" fill="#79D6FD"/>
<path transform="translate(662,836)" d="m0 0h2l-1 46 4 8 7 3v16l6 21v4l-7 1-25-10-23-10-5-2 1-7 5-19 5-16 11-12 8-10 10-10z" fill="#FD9B36"/>
<path transform="translate(1273,676)" d="m0 0h10l13 5 7 6 13-1 10 5 4 5 2 5v7l-3 9-10 6-9 2-2 5h-2l-1 3-6 1-1-24-4-3-9 3-5 2-19 2-2 6-5-4-4-5-2-8 1-7 3-8 11-8z" fill="#433A3F"/>
<path transform="translate(751,641)" d="m0 0h98 2 20l-1 12 2 5 7 3v2h-29l-90-1-10-20z" fill="#FEE993"/>
<path transform="translate(1317,821)" d="m0 0h7l5 17 4 17v12l-10 23-10 26-4 11-3 12-6 7-4 2h-8l-5-4-4-7 1-9 7-8 5-5 6-10 4-11 10-25 2-7v-7l-2-17-2-7v-8z" fill="#F8B7A0"/>
<path transform="translate(886,634)" d="m0 0 4 1 10 5 10 6 11 6 4 4-6-2-4-3-1 1v2l5 1 19 10 11 6 14 8 33 18 6 4 16 8 15 8-3 1-8-4v2l5 1 10 6 9 4 8 3 10 4 1 3 10 3 3 2 5 1 4 4h3l-1-3 1-5-5 1h-4v-7h-2v-2l-8-1-3-1-1-3-10-5-9-2-1-3h-5l-3-3-14-7v-2l-6-1v-2l-3-1v-2l-4-3-5-2-8-5 2-1 23 12 44 24 19 10 25 14 6 4 2 2-1 7-4 4-5 1-10-4-22-12-6-3-17-10-14-7-11-6-7-4-15-8-19-10-7-3v-2l-5-1-7-4-24-13-15-9-15-8-12-6-16-9-10-5-4-1 2-5 5 1v3l5 2 7 5 15 7-2-2-3-1v-2l-4-1-13-7-1-5z" fill="#42393E"/>
<path transform="translate(513,867)" d="m0 0 5 2 23 11 28 11 21 9 4 1v7l-2 17-3 6-2 1v-5l-4-3-37-15-31-13-1-1z" fill="#042A64"/>
<path transform="translate(561,433)" d="m0 0 6 1 2 4v30l-1 8h2l2 3 4 2v15l-3-1h-7l-4 4h-8l-3-3-4-2h3l-2-14-9-4-8-9-2-4-1-7v-14l17-3 13-4z" fill="#F9B59E"/>
<path transform="translate(878,615)" d="m0 0h2v14l-5 9-4 5v-2h-20l-1 2-1-1h-131l-8 4-5 8-2 8h-43v-2h36l5-1 2-9 4-10 5-7h2v-2l14-1 148-1 1-1z" fill="#072C66"/>
<path transform="translate(618,911)" d="m0 0 1 2 8 2 21 9 18 7 7 3 9 3 6 21 4 16v6l-4 1v-10l-4-5-20-9-44-18-7-2-2 3v-11l4-6z" fill="#052A64"/>
<path transform="translate(599,616)" d="m0 0 9 3 10 8 19 13 13 10 8 5h1v7l-80 1 5-5 7-8 5-8 3-11z" fill="#53C0FA"/>
<path transform="translate(1233,1100)" d="m0 0 13 2 4 1-1 17-3 19-1 1-14 1h-46l-3-2-1-7 4-4 27-13 14-6v-7z" fill="#F9813B"/>
<path transform="translate(800,897)" d="m0 0h8l10 4 3 3 1 4 5 3 1 3v14l-5 9-7 6-4 2h-13l-10-5-7-8-2-6v-9l3-8 8-8z" fill="#026EAF"/>
<path transform="translate(700,723)" d="m0 0 4 1 2 9v4h3v14l-6 12-5 5-4 2-1 6 1 2h-2l-1 10-6 3-5-1-3-3-2-7h-2l-1 2v-8h2l-5-20v-8l1-1 1-12 5-2 9-2 5-4 9-1z" fill="#F7B49D"/>
<path transform="translate(465,693)" d="m0 0 4 2 3 1 5 5 8 7 14 9 4 2 11 1-1 8-2 10-5 47-7 58-2 4v-9l5-42 3-25 1-18v-16l-2-5-11-8-7-7-2-1-1 55-1 9h-1l-4-13-15-41-6-15-1-2 3-7 3-3z" fill="#F9AD55"/>
<path transform="translate(618,1039)" d="m0 0 3 1 4 9 5 6v6l-3 2h-3l2 4 2 23v20l-5 4-5-1-7-11-7-16-12-24 1-5 13-10 11-7z" fill="#F37C35"/>
<path transform="translate(1292,706)" d="m0 0 4 2 3 2v24l3 1-4 2-2 25-1 3-6 2h-6l-3-3-1-14-10-4-8-11-1-3-1-13 2-6 19-2z" fill="#F7B59E"/>
<path transform="translate(498,846)" d="m0 0 9 3 13 5 32 13 29 11 5 1v2l5 1 3 1v2h3l-1 15-1 1-8-1-28-12-25-10-16-8-8-6-4-4v-2h-2l-6-10z" fill="#F67D34"/>
<path transform="translate(418,601)" d="m0 0h9l11 4 12 7 16 11 3 3-1 4-15 15-4 10-1 6-6 1-1 3-2-1-4-12-13-37-4-12z" fill="#F9AE55"/>
<path transform="translate(683,705)" d="m0 0 5 1 1 1h10l2 1 1 3h7l3 9-1 4-1 1-1 12h-3l-3-13-13 2-5 4-14 3v12l-1 1v8l4 16v4l-4-2-2-4h-2v-2l-6-2-1-5v-7l-2-3v-7l2-8-3-1-1-5 4-6 1-9 4-6 12 2z" fill="#42393D"/>
<path transform="translate(503,535)" d="m0 0h2l2 14v15l-4 6-5 2-24 1-14-1-5-1h-9l-3-4 3-10 5-2h7l5-5 21-5 4-2h5l2-4 3-3z" fill="#53C0FB"/>
<path transform="translate(847,518)" d="m0 0h9l27 4 27 5 43 7 9 2v3l-7 1-2 1-8-1h-17l-20-4-42-7-14-1-2-1 5 16 6 13v6l1 2-1 8 2 1 2 9v3l-3-4-11-23-11-24-1-5 4-8z" fill="#3F4145"/>
<path transform="translate(475,852)" d="m0 0h7l4 1h7l4-1v20l-3 6-1 1h-15l-43-2-6-3-3-4 1-4 26-8 10-2z" fill="#F67E36"/>
<path transform="translate(701,1096)" d="m0 0 6 1 3 1h8l5-1 5 2 8 6v2l4 2 10 8 8 7v2l11 1v1l-8 1-4 5-5 1-14-3-10-3-7-1-3-3-20-7-1-4z" fill="#F57E37"/>
<path transform="translate(342,791)" d="m0 0 17 1 23 2 17 3 11 5 1 6-7 14-4 2h-6l-10-5-9-3-9-4-12-4-12-6-2-2 1-8z" fill="#F37F39"/>
<path transform="translate(1302,772)" d="m0 0 10 2 1-2 6 7 5 14 4 13v11l-5 3-14 2-3 3-5-2-6-20-2-11v-13l6-5z" fill="#77D6FD"/>
<path transform="translate(694,1029)" d="m0 0 4 1 2 6-1 10-3 17h-2v7h-32l-32-1-3-2v-2l16-3 10-5 1-2 7-3 12-8 5-1 2-4 9-5z" fill="#026EAF"/>
<path transform="translate(1340,1075)" d="m0 0h3l7 13v6l-7 6-16 10-9 6-14 9h-5l-3-4 1-5 9-13 14-22 11-1 6-3z" fill="#F97C32"/>
<path transform="translate(844,607)" d="m0 0h20l10 2 1 4-1 1-178 1-2-3v-3l2-1h143z" fill="#026FB0"/>
<path transform="translate(623,897)" d="m0 0 3 2 21 7 21 8 6 3 2-1 4 14v4l-7 1-25-10-23-10-5-2 1-7z" fill="#F67C34"/>
<path transform="translate(1101,577)" d="m0 0 4 2 9 9 7 8 7 7 7 8 15 16 12 13 12 12 5 7 8 7 10 11 7 8 11 11 7 8 5 5 9 10 7 8 4 6v7l-2 2-5-8-8-8-9-11-9-9-7-8-11-12 2-2-6-6v-2l-4-2-4-3-3-3-4-6-12-13-7-7-5-6v-2h-2l-7-8-10-10-7-8-11-11-7-8-4-6-4-5z" fill="#473F41"/>
<path transform="translate(712,644)" d="m0 0 3 1 1 17-1 2-12 1-2 2h-31l-93 1-12 7-14 10-2-1 6-7 15-10 9-5h124l1-8 6-9z" fill="#F3AA5A"/>
<path transform="translate(718,641)" d="m0 0h33l2 5 7 14v2l-4 1h-41l-1-18-1-2z" fill="#F9AD54"/>
<path transform="translate(1229,824)" d="m0 0h4l7 21 1 4v17l-9 27-3 16v19l1 13-4-4-3-14v-25l6-26 3-10-1-14-3-7-2-10v-6z" fill="#FBC268"/>
<path transform="translate(1239,747)" d="m0 0 3 1-2 1-1 28-3 15-2 3-1 6-7 5h-4v-13l1-13 1-29-4-1 17-2z" fill="#FCB041"/>
<path transform="translate(497,847)" d="m0 0 3 3 4 6v2h2l7 8 1 3v27l-1 3-4-1-9-6-17-9-6-3-5-1v-1h21l3-6v-24z" fill="#FBE390"/>
<path transform="translate(683,705)" d="m0 0 5 1 1 1h10l2 1 1 3h7l3 9-1 4-1 1-1 12h-3l-2-11v-4h2l-1-2-2 1v-2l-2-1v-3l-6-2v-2l-3-1-11 2-6 2-5 1-4 3h-4l1 19v3l-1 10 3 3 2 11 2 1-2-4-1-8-1-1v-8l2-1 2 1-1-5 2-9 3-3 2 1v2l2 1-6 2v12l-1 1v8l4 16v4l-4-2-2-4h-2v-2l-6-2-1-5v-7l-2-3v-7l2-8-3-1-1-5 4-6 1-9 4-6 12 2z" fill="#262324"/>
<path transform="translate(1140,791)" d="m0 0 9 1 11 8 55 6 6 1v1h-21l-4-1h-25l-3-1-7-1-8-4h-15l-5 3h-2v3l6 1 3 4 9 2 14 1 10 1 7 3 24 3v1h-9l-26-3-32-2-5-4-3-6v-7l4-6 4-3z" fill="#FBB7A0"/>
<path transform="translate(886,634)" d="m0 0 4 1 10 5 10 6 11 6 4 4-6-2-4-3-1 1v2l5 1 19 10 11 6 14 8 33 18 6 4 16 8 15 8-3 1-6-3-7-2-34-18-5-4-10-4v-2l-4-1-32-17-3-1v-2l-7-2-7-4-5-3-4-4-3-1v-2l-4-1-13-7-1-5z" fill="#423F40"/>
<path transform="translate(1335,1063)" d="m0 0h3l8 13 7 14-1 5-8 7-20 13-20 12-6-1-3-3-1-4 5-9 7-10 10-16 1-2 1-10-2-1zm5 12-6 4-3 1-11 1-9 14-7 11-7 10-1 5 3 4 7-1 15-10 22-14 7-6v-6l-7-13z" fill="#FAAE84"/>
<path transform="translate(706,737)" d="m0 0h3v14l-6 12-5 5-4 2-1 6 1 2h-2l-1 10-6 3-5-1-3-3-2-7h-2l-1 2v-8h2l-1-8 1 2h11l8-2 4-6 4-7 1-11 1-2 3-2z" fill="#F4A475"/>
<path transform="translate(850,806)" d="m0 0h12l5 4 1 2v10l-5 8-2 1h-19l2-4v-10l-3-6-4-3z" fill="#F7A770"/>
<path transform="translate(476,701)" d="m0 0 8 6 10 7 9 5 11 1-1 8-2 10-5 47-7 58-2 4v-9l5-42 3-25 1-18v-16l-2-5-11-8-7-7-2-1v11h-1v-18l-7-6z" fill="#F7A875"/>
<path transform="translate(811,899)" d="m0 0 6 1 4 4 1 4 5 3 1 3v14l-5 9-7 6-4 2h-13l-10-5-1-2 13-1 12-6 4-6 2-7v-14l-5-2z" fill="#0253AD"/>
<path transform="translate(485,507)" d="m0 0h42l1 4-8 9-1 2-4-2-1-4-41-1-1 3h-19v-1l13-1v-2l6-1 1-3z" fill="#78D6FD"/>
<path transform="translate(592,924)" d="m0 0 4 1 15 5v8l-3 7-4 4-2 1h-7l-5-3-4-7v-6l4-6z" fill="#F3B8A3"/>
<path transform="translate(975,547)" d="m0 0h11l32 5h8l6 3 16 3 11 2 1 4h3v2h-64v-1l43-1-6-2-17-4-9-1-6-2-8-2-13-3-8-2z" fill="#42393E"/>
<path transform="translate(833,898)" d="m0 0 4 4 4 10 1 4v11l-3 10-6 9-8 7-12 5h-16l-11-4-3-3 7 1 2 2h9l10-2 7-3 8-6 6-8h2l2-10v-14l-2-9z" fill="#252324"/>
<path transform="translate(851,641)" d="m0 0h20l-1 12 2 7-8 2-15-1v-19z" fill="#53C0FB"/>
<path transform="translate(856,574)" d="m0 0 5 2 9 20 1 2-25 1-7-1 1-7 5-2 8-10z" fill="#53C0FB"/>
<path transform="translate(936,445)" d="m0 0h5l-2 1v2l-23 6-30 10-16 7-13 7-12 7-13 10-3 3h-2v2l-8 7-7 7-4 1v5l-3-2v-3l8-7 8-8 11-9 15-11 16-9 21-10 25-9 22-6z" fill="#5AC4FB"/>
<path transform="translate(741,1057)" d="m0 0 13 1 16 3 3 2 1 5-1 2-5 1h-29v-10z" fill="#026FB0"/>
<path transform="translate(1101,577)" d="m0 0 4 2 9 9 7 8 7 7 7 8 15 16 12 13 12 12 5 7 8 7 3 3v2l-4-1-12-11-7-8-9-9-5-6v-2h-2l-7-8-10-10-7-8-11-11-7-8-4-6-4-5z" fill="#4D4244"/>
<path transform="translate(911,650)" d="m0 0 5 1 7 4 16 8 17 9 12 7 16 8 12 7 6 3 9 5 22 12 5 3v2l-5-1-19-10-17-9-21-12-10-5-17-10-13-7-19-10-3-1z" fill="#615D5D"/>
<path transform="translate(1229,824)" d="m0 0h4l7 21v18l-5 15-1 2h-2l-1-4 3-13 1-9h-2l-4-12-1-1-2-10v-6z" fill="#FEAF3D"/>
<path transform="translate(915,640)" d="m0 0 5 1 9 3-4 2 29 15 18 10 12 7 14 7 1 2-3 3h-2l-1-2h-2l1-3-5-2v2l-6-1v-2l-3-1v-4l-9-5v2l-5-1-6-2v-2h-3v-2l-9-2-1-2-4-2-5-3-2-5-14-7-5-3z" fill="#42393E"/>
<path transform="translate(703,1080)" d="m0 0 12 2 10 3v6l-1 5 1 2-7 1h-8l-9-3v-13z" fill="#F8B49B"/>
<path transform="translate(610,530)" d="m0 0 5 1 4 3 4 1v2l5 2 14 10 6 4v2l5 2 5 5 8 7 4 6 5 5 9 11-1 4-4-2-2-5-4-2-8-12-7-7-5-2v-2l-4-2-7-6-5-3v-2h-2l-5-5-10-7-10-6z" fill="#5FC2F7"/>
<path transform="translate(1233,1100)" d="m0 0 13 2 4 1-1 17-1-4-7 1-11-2-3-2-10 1 2-2 7-3v-7z" fill="#F4A678"/>
<path transform="translate(880,522)" d="m0 0 54 9 26 4 2 2v2l-7 1-2 1-8-1h-10v-4l-6-3-11-1h-1l-2 1h-6l-1-2-10-2-11-3-7-3z" fill="#3C4466"/>
<path transform="translate(565,475)" d="m0 0h1l-1 13 1 5h5v1l-6 2-3 3h-8l-3-3-4-2h3v-13l9-3z" fill="#FAA778"/>
<path transform="translate(861,559)" d="m0 0 2 2 12 29 4 7v2l3 1 1 5 5 1v1h-11l-3-3-6-10-3-7-1-7-3-8v-9l-1-2z" fill="#403A41"/>
<path transform="translate(685,599)" d="m0 0h152v1l-13 1-130 1-9-2z" fill="#032A66"/>
<path transform="translate(618,1039)" d="m0 0 3 1 4 9 5 6v6l-3 2h-6l-8-9-3-5h-5l4-4z" fill="#F6B49C"/>
<path transform="translate(1274 1e3)" d="m0 0 5 5 7 17 1 7-16-1v-11l2-15z" fill="#EFF4F7"/>
<path transform="translate(845,540)" d="m0 0 1 2 5 1v-3l3 1 7 15v6l1 2-1 8 2 1 2 9v3l-3-4-11-23-7-15z" fill="#404044"/>
<path transform="translate(449,653)" d="m0 0h1l2 15 7 13 8 10 4 4-1 2-5-4-2 4-3 5-1-2 1-7-2-5-7-8-4-6 1-4h-6l-2-5 2-3h2l1-2 3 1v-6z" fill="#F6A779"/>
<path transform="translate(1335,1063)" d="m0 0h3l6 9-1 2h-3l-10 5-10 1-2 2v-10l-2-1z" fill="#F6B49D"/>
<path transform="translate(700,1023)" d="m0 0h1v12l-2 1-2-6-4 1-7 6-7 4-3 3-11 6-7 5h-4l-2 4-9 4-18 3-1-3 6-3h11l12-6 19-12z" fill="#064EA1"/>
<path transform="translate(853,810)" d="m0 0 7 1 1 2v9l-2 5-4 2h-6l-3-2-1-12 6-2v-2z" fill="#FAB69F"/>
<path transform="translate(549,682)" d="m0 0 2 1-7 7-6 9-3 1v3l-3 7-6 10-6 4h-2v2h-2l-1 3-1-2 2-7 14-18 8-10z" fill="#F7AC54"/>
<path transform="translate(298,888)" d="m0 0 5 5 6 10 12 16 11 12v2h2l7 8 12 11 8 7 3 1 7 8h-3l-17-14-13-12-8-8-9-11-8-10-12-17-3-5z" fill="#5DC6FB"/>
<path transform="translate(706,737)" d="m0 0h3v14l-6 12-5 5-4 2-2 5-2-1-1-4 5-6 4-5 3-6 1-11 1-2 3-2z" fill="#F9A86F"/>
<path transform="translate(886,634)" d="m0 0 4 1 10 5 10 6 11 6 4 4-6-2-4-3-1 1v2l-5-1-6-3v-2l-4-1-13-7-1-5z" fill="#42393E"/>
<path transform="translate(701,1021)" d="m0 0 3 1-2 21-2 13v10l1 10 5 4h-3l-1 2-3-3-4-3v-13l5-28v-11h-3z" fill="#B69172"/>
<path transform="translate(1250,791)" d="m0 0 4 1 5 8 2 2-1 4-8 5-13 8-2-1 5-6h2v-2l8-5 3-5h-2l-3-4-5 1-3 3-8 1 1-2 10-5z" fill="#FAB7A0"/>
<path transform="translate(694,1029)" d="m0 0 4 1 2 6-1 10-1 5h-1l-1-7-18-2 5-5 6-3z" fill="#0253AD"/>
<path transform="translate(407,547)" d="m0 0h3l5 18v4l-8-2-4-4-1-3v-8z" fill="#FBB7A0"/>
<path transform="translate(712,644)" d="m0 0 3 1 1 17-1 1h-11l-1-5 3-8 4-5z" fill="#80D4F8"/>
<path transform="translate(538,606)" d="m0 0h13l11 3v4h2v2l-15-1-16-2-3-2h4l1-3z" fill="#F1A374"/>
<path transform="translate(606,505)" d="m0 0 7 1 11 7-4 5-7 3h-7l-4-2-1-6 4-1h2l1 2 4-1 1-4-5-1-3-2z" fill="#262324"/>
<path transform="translate(826,808)" d="m0 0h11l6 4 2 5v6l-2 2-1-7-5-5-3-1h-16l-20 1-10 2h-7l-5-2 4-1h8l10-2z" fill="#3D363B"/>
<path transform="translate(662,836)" d="m0 0h2l-1 46 2 7h-2l-3-9v-28l-5-3h-3l2-4z" fill="#F4A953"/>
<path transform="translate(838,590)" d="m0 0 2 2v5l-1 1h-151v-1l149-1z" fill="#EFF0F0"/>
<path transform="translate(1163,919)" d="m0 0h10l-1 2-17 3-11 4-15 5-13 6-6 1v-2l17-8 30-10z" fill="#5AC4FB"/>
<path transform="translate(1263,782)" d="m0 0h2l1 5-1 20-2-3-7-8-4-6 1-2 7-5z" fill="#77D6FD"/>
<path transform="translate(1290,748)" d="m0 0h4v11l-4 4h-7l-2-4v-8l1-2z" fill="#FAA777"/>
<path transform="translate(1246,1104)" d="m0 0h4l-1 16-1-4-7 1-9-3 3-5z" fill="#FAB69E"/>
<path transform="translate(850,478)" d="m0 0 2 1-4 4-16 12-3 3h-2v2l-8 7-7 7-4 1v5l-3-2v-3l8-7 8-8 11-9 15-11z" fill="#59C4FB"/>
<path transform="translate(703,1080)" d="m0 0 12 2 10 3-2 4-5 2-10-2-5-3-2 2v-5z" fill="#F7A677"/>
<path transform="translate(880,522)" d="m0 0 54 9-3 2-13-1h-1l-2 1h-6l-1-2-10-2-11-3-7-3z" fill="#324772"/>
<path transform="translate(567,475)" d="m0 0 3 1 2 3 4 2v15l-9-4z" fill="#F7F7F6"/>
<path transform="translate(520,528)" d="m0 0 6 3 5 4 1 2v8l-8 1-3-8z" fill="#FAA777"/>
<path transform="translate(473,512)" d="m0 0 8 1 36 1 3 2h2l-3 6-4-2-1-4-41-1-1 3h-19v-1l13-1v-2z" fill="#53C0FB"/>
<path transform="translate(1119,790)" d="m0 0 3 1h-2l1 13v17l-1 14-3 9-1-4 1-4 1-45z" fill="#FAB676"/>
<path transform="translate(765,663)" d="m0 0h84l3 3-21-1h-42l-24-1z" fill="#FFAE37"/>
<path transform="translate(411,801)" d="m0 0 4 2 8 14 6 9 7 10-1 2-9-10-12-19-3-3z" fill="#F4F5F5"/>
<path transform="translate(479,880)" d="m0 0h7l5 2 5 4 9 6 8 1 1 3-1 3-4-1-9-6-17-9z" fill="#F4F5F5"/>
<path transform="translate(621,839)" d="m0 0 3 1-7 7-7 9-3 5-6 19-4 16h-1l1-9 7-26 5-8 6-8 3-3h2z" fill="#EAA45C"/>
<path transform="translate(680,982)" d="m0 0 5 1v2l-23 15-3 2-3-1 11-8 1-3z" fill="#023071"/>
<path transform="translate(633,828)" d="m0 0 1 3h-2l-2 6-7 7-5 6-5 5-8 16-1-4 4-9 4-6 11-12 9-11z" fill="#3F383E"/>
<path transform="translate(1022,714)" d="m0 0 6 2 7 2h6l8 6v2l-6 1-6-3-12-7-3-1z" fill="#423F40"/>
<path transform="translate(695,1025)" d="m0 0 2 1-19 13-15 10-12 7-2-1 6-5 16-9 14-10z" fill="#B38F71"/>
<path transform="translate(689,981)" d="m0 0 2 1-9 8-5 3-3 3-7 3-9 6-8 4h-3l10-7 16-10z" fill="#BA9373"/>
<path transform="translate(997,699)" d="m0 0 5 2 16 8 15 8-3 1-6-3-7-2-17-9z" fill="#423D3F"/>
<path transform="translate(884,461)" d="m0 0 3 1-3 3-24 11-7 4-2-1 4-4 22-11z" fill="#59C4FB"/>
<path transform="translate(978,675)" d="m0 0 16 8 5 3-3 4h-2l-1-2h-2l1-3-5-2v2l-6-1v-2l-3-1z" fill="#42393E"/>
<path transform="translate(700,1023)" d="m0 0h1v12l-2 1-2-6-4 1-7 6-9 4 2-4z" fill="#023579"/>
<path transform="translate(1317,1082)" d="m0 0h2l-2 5-11 18-8 11-1 5 2 3 5 1v2l-6-1-3-3-1-4 5-9 7-10 10-16z" fill="#FAAD83"/>
<path transform="translate(712,649)" d="m0 0h2l2 6v7l-1 1h-10l1-5 3-1z" fill="#64C4F7"/>
<path transform="translate(1225,1046)" d="m0 0h1l-1 12-4 23-3 11-3-2 3-9 3-14 2-14z" fill="#D3E6EF"/>
<path transform="translate(719,821)" d="m0 0 11 3 2 2h-5v12h-2v-2h-2l-3-8z" fill="#FAA93F"/>
<path transform="translate(680,933)" d="m0 0 3 3 5 16 6 23-1 5h-1l-6-26-5-17-3-1v-2z" fill="#BA9373"/>
<path transform="translate(850,529)" d="m0 0h1l2 11h-2l1 3-2 1-5-3h-2v-5l5-5 1 1z" fill="#413940"/>
<path transform="translate(732,797)" d="m0 0 10 2 32 11 1 2-18-4-2-2-21-7z" fill="#3A3438"/>
<path transform="translate(514,721)" d="m0 0 2 1-3 19-2 16-2 1v-9l2-17z" fill="#FD9634"/>
<path transform="translate(341 1e3)" d="m0 0 2 1-27 27-2 3-2-1 12-14 8-8 8-7z" fill="#FAB373"/>
<path transform="translate(391,744)" d="m0 0 2 3 6 25 3 4-1 10h-1l-4-16-5-21z" fill="#EBECEC"/>
<path transform="translate(298,888)" d="m0 0 5 5 6 10 11 15-1 3-14-19-7-11z" fill="#65CBFC"/>
<path transform="translate(1132,928)" d="m0 0 3 1-3 3-19 8h-3v-2l17-8z" fill="#5DC6FB"/>
<path transform="translate(660,798)" d="m0 0 2 1-7 7-3 6-12 11-3 3v-3l13-14 7-8z" fill="#3D363A"/>
<path transform="translate(527,545)" d="m0 0h4v12l-2 4-3-3v-12z" fill="#75CEF8"/>
<path transform="translate(1341,1072)" d="m0 0 4 2 1 7-3-4v-2l-12 6-12 1 1-3 10-1 10-5z" fill="#FAA878"/>
<path transform="translate(549,682)" d="m0 0 2 1-7 7-6 9-7 3 2-4 9-10z" fill="#F5AB54"/>
<path transform="translate(404,555)" d="m0 0h3v2h2l2 5v5l-5-1-3-3z" fill="#FAA87B"/>
<path transform="translate(1232,852)" d="m0 0 1 2h2v9l-3 13-3 2v-6l3-10z" fill="#FBB965"/>
<path transform="translate(1233,1100)" d="m0 0 9 2v1l-11 1-2 6-5 1 2-4v-5z" fill="#F4B7A2"/>
<path transform="translate(593,493)" d="m0 0h6l3 3v10l-4-2-3-9z" fill="#242122"/>
<path transform="translate(1323,819)" d="m0 0 2 1-1 1-14 2 2 13 1 2v7h-1l-5-20 2-4z" fill="#D5D6D6"/>
<path transform="translate(1180,664)" d="m0 0 7 6 5 2 6 7-2 1-4-2v-2l-4-2-4-3-3-3z" fill="#454343"/>
<path transform="translate(1084,566)" d="m0 0h3v2l4 2 6 4 2 4-1 3-9-8-4-4z" fill="#3F373B"/>
<path transform="translate(1084,1118)" d="m0 0 2 1-12 9 1 4-7-2-1-2 4-1v-2z" fill="#EFEFEE"/>
<path transform="translate(872,659)" d="m0 0 5 1 2 1v2h-29v-1l20-2z" fill="#EDC2A4"/>
<path transform="translate(597,471)" d="m0 0h1v17l-1 3 3 1v1l-7-1 2-14z" fill="#EEC396"/>
<path transform="translate(662,858)" d="m0 0h1v24l2 7h-2l-3-9v-10l1-1z" fill="#D6985C"/>
<path transform="translate(838,590)" d="m0 0 2 2v5l-1 1h-32v-1l30-1z" fill="#E0E1E1"/>
<path transform="translate(604,863)" d="m0 0h2l-9 33h-1l1-9 6-23z" fill="#E2A160"/>
<path transform="translate(452,671)" d="m0 0 3 3 7 11 9 10-1 2-12-12-6-11z" fill="#EBB79B"/>
<path transform="translate(1346,1078)" d="m0 0 4 5 3 7-1 5-5 5h-2l2-4 2-2v-6l-3-6z" fill="#FAAD86"/>
<path transform="translate(1177,658)" d="m0 0 6 4 7 7v2l-4-1-10-9z" fill="#594F4A"/>
<path transform="translate(915,640)" d="m0 0 5 1 9 3-4 2 5 3-3 1-12-7z" fill="#41383D"/>
<path transform="translate(589,514)" d="m0 0 7 1v2l3 1h-2l-1 5-5-1-2-5z" fill="#F1EFEC"/>
<path transform="translate(936,539)" d="m0 0h14l8 4v1l-9-1-16-2z" fill="#423B3F"/>
<path transform="translate(630,1060)" d="m0 0h8l-2 4-11 2-1-3z" fill="#134A8D"/>
<path transform="translate(616,848)" d="m0 0v3l-7 11-4 9-1-4 4-9 4-6z" fill="#282527"/>
<path transform="translate(651,1055)" d="m0 0 3 1-4 4-7 3h-7l1-2 11-4z" fill="#0253AD"/>
<path transform="translate(835,809)" d="m0 0 6 1 3 4 1 9-2 2-1-7-4-6z" fill="#2A2728"/>
<path transform="translate(695,1025)" d="m0 0 2 1-19 13-5 2 5-5 9-6z" fill="#BA9373"/>
<path transform="translate(524,708)" d="m0 0v3l-8 10-13-1v-1l13-1 2-4h2l2-4z" fill="#2C292A"/>
<path transform="translate(824,498)" d="m0 0m-1 1m-2 1 2 1-12 12-1 2h-2v5l-3-2v-3l8-7z" fill="#62C9FC"/>
<path transform="translate(845,540)" d="m0 0 2 2 4 9 2 1 1 7-2 1-8-17z" fill="#35405A"/>
<path transform="translate(683,703)" d="m0 0 14 3-1 2h-7l-3-2-5 1-4 2-1-2z" fill="#EAA052"/>
<path transform="translate(620,1040)" d="m0 0 2 2 3 7 2 4-3 3-4-9z" fill="#FAA777"/>
<path transform="translate(700,1023)" d="m0 0h1v12l-2 1-2-6-3-1v-2z" fill="#093674"/>
<path transform="translate(512,514)" d="m0 0h5l3 2h2l-3 6-4-2-1-4h-2z" fill="#5CC1F8"/>
<path transform="translate(733,879)" d="m0 0h2l2 8 2 11v7h-1l-4-21-2-1z" fill="#F6AA5D"/>
<path transform="translate(1226,823)" d="m0 0h5l-2 2h-3l2 9-1 4-3-4v-10z" fill="#FBBD64"/>
<path transform="translate(1163,919)" d="m0 0h10l-1 2-16 2 1-3z" fill="#61C8FC"/>
<path transform="translate(1096,572)" d="m0 0 4 2 2 4 6 8-4-2-7-7z" fill="#423B3E"/>
<path transform="translate(936,445)" d="m0 0h5l-2 1v2l-9 2-4-1 1-2z" fill="#5DC6FB"/>
<path transform="translate(1242,732)" d="m0 0 5 1v7l-2 2-4-7z" fill="#4B494D"/>
<path transform="translate(689,968)" d="m0 0 2 3 1 9-4 1v-11z" fill="#07387A"/>
<path transform="translate(1120,933)" d="m0 0 3 1-3 3-7 3h-3v-2z" fill="#60C8FC"/>
<path transform="translate(815,809)" d="m0 0 4 1-1 2h-10l-10-1v-1z" fill="#524647"/>
<path transform="translate(1035,715)" d="m0 0 5 1 10 6v5l-3-1h2l-5-5-4-2h-2z" fill="#42393E"/>
<path transform="translate(1101,577)" d="m0 0 4 2 6 6v5l-3-2-3-5-4-5z" fill="#464043"/>
<path transform="translate(566,475)" d="m0 0h1v17l2 1h-3l-2-7z" fill="#FBB7A0"/>
<path transform="translate(549,682)" d="m0 0 2 1-7 7-8 7v-3l7-7z" fill="#E3A15C"/>
<path transform="translate(619,395)" d="m0 0 2 1-7 8-5 9-1-3 5-9z" fill="#FCC984"/>
<path transform="translate(656,734)" d="m0 0h3l-1 8-1 5h-2v-10z" fill="#E3A057"/>
<path transform="translate(860,571)" d="m0 0 3 2 2 9v3l-3-4-3-9z" fill="#3E4558"/>
<path transform="translate(506,893)" d="m0 0h7l1 3-1 3-4-1-3-3z" fill="#F3F4F4"/>
<path transform="translate(710,713)" d="m0 0h2l2 3v7l-3 3-2-1 2-2z" fill="#E09D56"/>
<path transform="translate(689,981)" d="m0 0 2 1-9 8-4 1 5-6z" fill="#B79172"/>
<path transform="translate(833,830)" d="m0 0h8l-2 3-10 2z" fill="#453D43"/>
<path transform="translate(673,781)" d="m0 0v3l-6 9-4 4-2-1 7-8z" fill="#3C353A"/>
<path transform="translate(1232,723)" d="m0 0 8 6 2 4h-3l-7-7z" fill="#423E3F"/>
<path transform="translate(298,888)" d="m0 0 5 5 3 5v2l-3-1-5-8z" fill="#5EC7FB"/>
<path transform="translate(672,727)" d="m0 0 3 1v2l2 1-6 2-1 4v-7z" fill="#242123"/>
<path transform="translate(658,720)" d="m0 0h2l-2 5-2 3v5l-3-2 1-5z" fill="#EFA552"/>
<path transform="translate(1180,664)" d="m0 0 7 6 5 6-4-2-4-3-3-3z" fill="#42393E"/>
<path transform="translate(592,1064)" d="m0 0h2l5 11h-3l-4-9z" fill="#1C3A68"/>
<path transform="translate(595,1055)" d="m0 0 2 1-1 1v11l-3-4-1-5z" fill="#E4A682"/>
<path transform="translate(359,960)" d="m0 0h5l7 8h-3l-9-7z" fill="#60C8FC"/>
<path transform="translate(1232,852)" d="m0 0 1 2h2v9h-2l-1 2z" fill="#FCC774"/>
<path transform="translate(685,725)" d="m0 0h5l-5 5h-6l3-1 1-3z" fill="#272526"/>
<path transform="translate(1040,718)" d="m0 0 8 5 1 3-4-2-7-4z" fill="#615D5D"/>
<path transform="translate(1227,1044)" d="m0 0h1v9l-1 4h-2l1-12z" fill="#023579"/>
<path transform="translate(776,895)" d="m0 0v3l-5 10-2-1 2-6z" fill="#E6A256"/>
<path transform="translate(847,807)" d="m0 0 3 1-5 3-6-1-2-2z" fill="#EAA559"/>
</svg>
