<?xml version="1.0" encoding="UTF-8"?>
<svg version="1.1" viewBox="0 0 1600 1600" width="500" height="500" xmlns="http://www.w3.org/2000/svg">
<path transform="translate(852,247)" d="m0 0h32l31 2 32 4 40 8 31 8 37 12 26 10 29 12 24 11 23 11 40 20 14 8 16 8 29 16 28 17 27 18 19 14 10 8 14 11 15 13 12 11 13 12 8 8 7 8 12 12 9 11 9 10 26 34 11 16 11 17 15 25 14 27 13 27 14 37 7 21 8 30 7 36 3 19 2 26 1 24v19l-2 31-3 23-7 34-11 38-12 30-11 24-12 23-8 13-12 18-12 17-8 10-11 13-9 10-7 8-24 24-11 9-9 8-19 14-13 9-15 9-16 9-16 8-20 9-22 8-21 6-29 6-32 4-13 1h-18l-36-3-25-3-43-9-29-7-64-20-72-24-25-8-28-8-37-9-25-5-30-4-33-2h-28l-21 2-30 5-25 6-30 9-29 10-26 11-34 15-33 14-32 14-30 12-18 7-32 10-39 9-32 5-19 2h-40l-35-5-16-4-30-10-21-10-17-12-11-9-15-15-9-11-12-19-8-16-7-19-5-18-4-20-2-17v-53l3-25 6-34 7-30 9-34 13-46 11-41 6-30 5-34 1-13v-50l-2-22-7-47-6-37-5-30-5-40v-50l5-32 4-15 8-23 8-16 10-16 11-13 12-12 17-12 17-10 15-6 25-7 29-5 19-2 23-1 34 2 52 5 13 1h58l17-3 32-8 30-10 28-12 28-13 19-9 26-11 12-5 21-8 36-12 22-7 27-7 32-7 36-6 27-3 10-1z" fill="#82643A"/>
<path transform="translate(852,247)" d="m0 0h32l31 2 32 4 40 8 31 8 37 12 26 10 29 12 24 11 23 11 40 20 14 8 16 8 29 16 28 17 27 18 19 14 10 8 14 11 15 13 12 11 13 12 8 8 7 8 12 12 9 11 9 10 26 34 11 16 11 17 15 25 14 27 13 27 14 37 7 21 8 30 7 36 3 19 2 26 1 24v19l-2 31-3 23-7 34-11 38-12 30-11 24-12 23-8 13-4 4-7 2-18 8-21 11-15 9h-2v-34l1-21 7-26 8-19 4-6 2-7h2l3-12 3-7 3-10 1-12v-31l-2-10-3-8-4-9-8-15-9-12-11-12-11-9-10-7-8-5-16-7-19-4 3 9 1 1v5l-4 2-2 10-7 8-9 4-2 20-5 5h-9l-9-7-2-4h-3l-2 5-13 22-7 10-10 16-9 14 1 4 19 12 22 13 26 16 9 5 18 2v-8l-2-12-2-20v-15h2l1 5 1 25 5-1 4-6 13-43 4-11 2-7h3l-1 6-10 30-7 24 13-4 6-1h8v9l-5 6-8 5-15 6-7 1v13l7 1 10 5 4 4-1 5-9 4h-10l-12-3-10-4-15-8-31-14-17-8-11-5-1 9-6 21-8 6-5 4-6-25-5-19-9-22-1-2v21l-1 30-4 43-2 6-3 1 1-4 3-34 2-33v-32l-5 5-13 17-10 15-10 17-3 2v-77l12-2 18-7 20-11 11-8 3-1 2-4 5-4 5-5 11-14 10-17 3-8 5-11 6-29v-26l-5-25-4-12-6-13-8-14-6-9 1-5 12-32 8-29 4-25 3-27v-40h-2l-1 8-5 12-6 16-4 8-8 20-4 8-4 9-11 23-6 12-3 8 1-1 13-12 13-11 6-7 4 1-7 8-9 9-8 7-13 13h-4v-2l-3-1 1-6 6-10 11-23 8-16 9-20 11-26 8-21 4-9-10 4-12 7-24 18-11 9-13 12-8 7-5 5-2-27-2-18-5-28-8-30-8-25-6-16-3-4-1 46-3 38-4 41-3 25-3 22-1 2h2l2-5 13-24 8-16 7-13 2-1-1 7-20 39-10 18-3 8-1 7-4 1-1-1 1-11 2-9 6-49 4-47 3-41 1-45h-2l-2 4-11 14-13 17-14 21-9 15-9 17-2 4-4-1-9-13-2-3-2-5-6-12-2-5h-2l-2 5-8 16 13 1v1l-14 4-4 1-9 18-3 2h-52l1-6 11-20 1-1 24-1 2 1 4 8 2-1 3-13 7-17 7-14 6-14 5-17 3-17 1-18-3-20-4-17-5-11-9-16-11-14-9-10-14-11-12-8-4-3-11-5-14-5-8-2h-7l-6 2-7 8-6 18-2 17-3 66-4 33-3 19-4 13-2-1-5-18-3-11-5-22-6-31-4-20-4-14-4-15-4-10-7-14-5-6-11-5h-10l-12 4-21 12-13 10-10 9-13 13-10 12-12 19-10 19-8 24-5 30v21l4 24 4 15 9 24 12 21 7 9 2 4h10l10 2 5 3 2 4 7 2 7 6 1 3v9l-3 10-6 11v6l4 11 7 22v3l-5-1-8-4-15-5-4 10-8 2-8-1-4-5-1-6-14 5-9 6-16 9-14 12-6 15-2 4h-14v-93l4-2 24-3 14-1h24l1-7 5-12 7-10 1-3-14-1-40 1-17 2-9 2-1-59-13-1 9-9v-11l-3-1h-13l-11 3-4 3 1 6v8l-3 3h-21l3-12 1-3 11-5 13-5 14-7 9-8 3-6v-8l-4-4-3-1h-15l-13 3h-4l1-4 7-3h4l-2-19-2-11h-2l-4-12-1-5h-2l-8-15-5-2-3 4-4 4h-2l-2-8-2-3h-10l-8 3h-13l-8-3-14-2-4 1-2 4-2 7-3 3-1 4 2 3v5l-5-1-4-2h-3l-1 2h-2l-3 11-4 9-1 21 7 2 8 1v7l-10-1-11-3h-16l-6 3-1 1v8l4 8 12 9 14 7 11 4 10 4 4 13v3l-21-1-4-5 1-8 2-5-5-1-7-3-6-1h-10l-5 2v10l3 4 5 3 1 2h-14l-6-12-12-19-8-11-9-10-2-1 8 21 4 17 3 10 3 15 6 26 1-1 4-31h3v9l-4 30v14l5 33 4 25-1 2-39-1v-1l28-1-5-13-5-14-5-11-12-24v-4h2l8 13 9 19 8 21 3 7v7h4l-3-11-4-37-4-23-3-16-2-8-5-23-7-25-8-25v-2h-2l-3 10-7 23-3 13-3 24-2 1-6-9-8-8-8-7-11-10-14-11-14-10-17-10-7-4 11 14 11 15 30 45 13 21 4 6-2-16-5-22v-6l2 1 3 8 5 26 4 17 2 9 10 17 3 4v2h2l9 20 2 4v3l-4-1-8-16-13-24-8-14-12-19-12-20-24-36-7-10-9-12-10-14-3-1 1 35 3 25 4 22 8 28 1 4-1 1h-12l-15 2-17 6-16 8-15 10-11 9-8 7-7 8-6 8-4-2-6-12-9-9-7-2-13 1-11 4-16 9-16 12-13 12-13 13-1 3h117l10 5 5 8 2 7v121l-4 1-11-5-12-3 2 15 4 42 4 21 6 14 4 11 10 28 2 7v5l-2 1-12-33-3-7-3-9-14-37-5-12-6-11-4-11-7-14-6-14-4-8v-2h-79l-7-3-6-5v-2h-2l-3-8v-64l-2 1-4 10-4 11-3 11-3 17-1 12v21l3 18 5 20 9 21 11 21 7 10 9 13v2h2l10 15 4 7v2l7-6h71l5 3 2 3v49l-3 5-5 2-43 1-9 4h-2l4 14 3 19v5l2-1 17-1v5l-1 1-38 1-12-19-7-11-11-16-2-4h-5l-1 5 14 22 3 5v2h2l11 18 2 4 45 2v13h36l11-1v8l-4 26h5l1 1v90l7 10 1 4 2 1v23l-3 58v25l1 4-29 4-10 1h-40l-35-5-16-4-30-10-21-10-17-12-11-9-15-15-9-11-12-19-8-16-7-19-5-18-4-20-2-17v-53l3-25 6-34 7-30 9-34 13-46 11-41 6-30 5-34 1-13v-50l-2-22-7-47-6-37-5-30-5-40v-50l5-32 4-15 8-23 8-16 10-16 11-13 12-12 17-12 17-10 15-6 25-7 29-5 19-2 23-1 34 2 52 5 13 1h58l17-3 32-8 30-10 28-12 28-13 19-9 26-11 12-5 21-8 36-12 22-7 27-7 32-7 36-6 27-3 10-1z" fill="#FCFCFC"/>
<path transform="translate(1185,480)" d="m0 0h2l1 9-1 36-5 67-3 28-6 48-2 9v5h4v-7l5-12 9-16 20-40v-3l-10 19-8 16-13 23h-2l5-40 3-30 4-43 1-15 1-46h3l5 11 9 27 10 37 6 35 3 37 5-6 8-7 7-7 11-9 15-12 13-9 9-6 10-5h4l-1 5-6 14-5 13-14 33-12 26-8 16-9 17-2 4v3l2 1v2l5-2 18-18 8-7 8-8 1-2-4 1-9 10-9 7-13 13-2-1 8-19 15-30 4-9 8-19 4-10 5-11 4-11 4-10 1-5h2l1 2v38l-4 35-4 21-7 25-6 17-7 17 1 5 9 14 6 11 7 17 4 17 2 12v26l-3 16-4 16-5 10-2 6-8 14-9 12-5 6-5 5-6 5-5 5-10 7-22 12-20 7h-8l1 76 8-13 10-16 10-13 9-12 3-2 1 1v32l-3 43-2 24-1 3h2l3-26 2-23 1-30v-22l3 3 10 25 10 40 7-7 4-2 4-13 4-17 5 1 16 8 29 13 28 14 13 4 5 1h10l9-4-1-5-9-6-10-3v-13l15-5 12-6 6-5 1-2 1-9-18 3-9 2 1-7 8-27 7-20 2-6h-3l-2 10-9 27-7 24-4 6-2 2-5-1-1-30h-2l2 28 2 16 1 9-1 2h-13l-7-2-13-8-7-4-30-18-24-15-2-2 1-4 11-18 7-11 10-15 13-22h3l5 6 6 4h9l4-4 2-20 10-5 6-7 2-10 4-2v-5l-3-5v-5l10 1 12 3 16 8 11 7 11 9 12 11 11 14 8 14 3 5 5 15 1 1 2 10v31l-2 16-4 10-5 15h-2l-2 9-6 10-6 16-6 23-2 55 16-9 18-10 17-8 10-4h2l-1 4-11 17-14 19-13 15-9 10-7 8-24 24-11 9-9 8-19 14-13 9-15 9-16 9-16 8-20 9-22 8-21 6-29 6-32 4-13 1h-18l-36-3-25-3-43-9-29-7-64-20-72-24-25-8-28-8-37-9-25-5-30-4-33-2-1-1v-94h145l1-40 1-1 93-1 3-16-11-6-10-8-10-9-12-12v-2l-5-2-9-10-8-12-17-17-2-1 1-6 9-11 5-7 4 2 10 9 24 24 7 6 3 5-1 8-5 5-1 2 21 10 2-10 6-8 4-5 3-4 4 10 4 7 6 7 8 6 5 6 4 11-2 8-8 14-1 4 16-3 18-3 1 8 73 1v79l-1 1-9-1-6-1v22l-1 13-23-4-24-5-1-1-2-34-4-30-4-9-8 1-12 2h-27l-18-2-2 11-5 35-1 20v16l2 17 2 15h60l2 35 97 1 24 1v-190l8-9 3-1v165h2l1 26h47l1-34 1-13h-51l-1-145v-90l-17-5-15-6-18-10-13-10-11-10-9-11-8-11-9-16-6-18-4-17-1-9v-28l3-18 5-16 9-19 6-10-2-1-41-1-1-2 1-161 1 3 52-1 3-2 7-14 4-4 11-4-8-2 1-5 6-11 3-5h2l7 12 4 8 1 4 8 11 2 3h3l8-16 9-16 12-18 10-14 8-10 11-14z" fill="#A9895A"/>
<path transform="translate(486,499)" d="m0 0h2l4 11 10 33 6 25 2 12 3 12 4 24 4 31 2 15 1 7h-4l-2-10-5-12-9-22-9-17-3-4v-2h-2l4 10 8 15 5 13 5 11 6 18 10 1 1 1 1 575-32 14-33 14-32 14-30 12-18 7-32 10-39 9-5 1h-8l-1-3v-25l4-81-3-1-3-7-5-7v-90l-5-1 1-13 3-21-2 1-9 1h-34l-2-1v-13h-26l-19-1-11-18-2-5h-2l-6-10-9-14-3-5 1-5 1-1h5l3 5 13 19 15 24 1 2 38-1 1-5-19 2-5-28-2-10 11-5 43-1 6-3 1-3v-49l-3-4-3-1h-71l-5 5h-2l-8-14-6-8v-2h-2l-7-11-7-10-8-13-10-21-6-15-6-27-1-8v-21l2-19 5-21 4-11 5-11h2l1 64 2 8h2l5 5 4 3 4 1h77l3 3 9 19 6 13 5 11 4 10 5 10 6 15 11 29 4 11 9 24 4 12 1 1-1-7-5-17-7-18-6-16-4-11-4-26-4-42-1-7 9 2 14 5 4 1v-121l-3-9-3-5-10-5-117-1 1-4 21-21 14-11 14-9 16-8 10-2h7l7 2 10 10 7 13h2l7-9 10-11 11-9 10-7 12-8 15-7 15-5 15-2h12l-10-36-5-32-1-11-1-33 1-2 4 1 10 14 9 12 17 25 10 15 15 24 18 30 15 27 8 16v2l4 1-11-25v-2h-2l-8-13-6-10-6-26-5-26-3-8 1 9 4 18 2 13v5l-4-5-15-24-24-36-11-16-10-13-6-7v-2l6 2 24 15 13 10 13 11 10 9 13 12 4 5 3 4 4-30 6-19 5-17z" fill="#F9DB69"/>
<path transform="translate(1185,480)" d="m0 0h2l1 9-1 36-5 67-3 28-6 48-2 9v5h4v-7l5-12 9-16 20-40v-3l-10 19-8 16-13 23h-2l5-40 3-30 4-43 1-15 1-46h3l5 11 9 27 10 37 6 35 3 37 5-6 8-7 7-7 11-9 15-12 13-9 9-6 10-5h4l-1 5-6 14-5 13-14 33-12 26-8 16-9 17-2 4v3l2 1v2l5-2 18-18 8-7 8-8 1-2-4 1-9 10-9 7-13 13-2-1 8-19 15-30 4-9 8-19 4-10 5-11 4-11 4-10 1-5h2l1 2v38l-4 35-4 21-7 25-6 17-7 17 1 5 9 14 6 11 7 17 4 17 2 12v26l-3 16-4 16-5 10-2 6-8 14-9 12-5 6-5 5-6 5-5 5-10 7-22 12-20 7-8 1-1 236h-50l-1-145v-90l-17-5-15-6-18-10-13-10-11-10-9-11-8-11-9-16-6-18-4-17-1-9v-28l3-18 5-16 9-19 6-10-2-1-41-1-1-2 1-161 1 3 52-1 3-2 7-14 4-4 11-4-8-2 1-5 6-11 3-5h2l7 12 4 8 1 4 8 11 2 3h3l8-16 9-16 12-18 10-14 8-10 11-14z" fill="#21363F"/>
<path transform="translate(714,678)" d="m0 0h4l1 2 1 135v386l-27 1-21 2-30 5-25 6-30 9-29 10-26 11h-2v-566h179z" fill="#21353F"/>
<path transform="translate(381,616)" d="m0 0h7l8 3 4 11 7 17 1 22-1 1-25 1v442l-1 133-2 2-6-42-6-37-1-5h-2l-1 16 5 13 4 22 5 32 4 29 1 13v18l-12 5-29 8-32 7h-8l-1-3v-25l4-81-3-1-3-7-5-7v-90l-5-1 1-13 3-21-2 1-9 1h-34l-2-1v-13h-26l-19-1-11-18-2-5h-2l-6-10-9-14-3-5 1-5 1-1h5l3 5 13 19 15 24 1 2 38-1 1-5-19 2-5-28-2-10 11-5 43-1 6-3 1-3v-49l-3-4-3-1h-71l-5 5h-2l-8-14-6-8v-2h-2l-7-11-7-10-8-13-10-21-6-15-6-27-1-8v-21l2-19 5-21 4-11 5-11h2l1 64 2 8h2l5 5 4 3 4 1h77l3 3 9 19 6 13 5 11 4 10 5 10 6 15 11 29 4 11 9 24 4 12 1 1-1-7-5-17-7-18-6-16-4-11-4-26-4-42-1-7 9 2 14 5 4 1v-121l-3-9-3-5-10-5-117-1 1-4 21-21 14-11 14-9 16-8 10-2h7l7 2 10 10 7 13h2l7-9 10-11 11-9 10-7 12-8 15-7 15-5z" fill="#21353F"/>
<path transform="translate(1371,855)" d="m0 0 10 1 12 3 16 8 11 7 11 9 12 11 11 14 8 14 3 5 5 15 1 1 2 10v31l-2 16-4 10-5 15h-2l-2 9-6 10-6 16-6 23-2 55 16-9 18-10 17-8 10-4h2l-1 4-11 17-14 19-13 15-9 10-7 8-24 24-11 9-9 8-19 14-13 9-7 4-5 1h-37l-2-1-6-19-4-15-1-10 10-14 7-9 3-4-3 1h-29l-11-3-5-3-1-33-2-22-2-16-4-5 1-16 8-41 2-12 5-21 5 1 16 8 29 13 28 14 13 4 5 1h10l9-4-1-5-9-6-10-3v-13l15-5 12-6 6-5 1-2 1-9-18 3-9 2 1-7 8-27 7-20 2-6h-3l-2 10-9 27-7 24-4 6-2 2-5-1-1-30h-2l2 28 2 16 1 9-1 2h-13l-7-2-13-8-7-4-30-18-24-15-2-2 1-4 11-18 7-11 10-15 13-22h3l5 6 6 4h9l4-4 2-20 10-5 6-7 2-10 4-2v-5l-3-5z" fill="#51763F"/>
<path transform="translate(880,337)" d="m0 0h10l12 6 8 11 6 14 5 16 4 15 3 12 6 31 5 24 4 18 5 16 1 4 3-4v14l10 29 7 15 1 8-2 4-1 130-1 5-4-4-11-17-4-5-2-7h-2l-3 10-5 10-8-1-5-2h-6l-2 3-3 9-6 14-3 4-5 12-6 10-3 1h-5l-10-20-7-9-8-6-12-6 2-1-8-25-4-11v-6l7-13 2-8v-9l-3-5-7-4-4-2-4-5-6-2-17-2-8-10-10-17-6-12-9-25-5-25-1-8v-21l5-30 8-24 11-21 12-18 13-16 8-7 9-9 16-12 23-13z" fill="#51B9A0"/>
<path transform="translate(596,423)" d="m0 0 14 2 8 3h13l8-3h10l4 6v6l6-5 3-4 5 2 6 10 2 6h2l5 14v3h2l3 11 1 6v13l-10 3-2 4 12-3 5-1h15l6 3 2 3v8l-5 8-8 7-16 8-16 6-6 2-2 9-2 6 21-1 2-2v-8l-1-6 5-4 11-3h13l4 4v9l-4 5-5 3 12 1v126l-1-2-9 2h-170l-9-1v566h-1l-1-576-6-37-3-21v-14l5-39h-3l-1 14-3 21-2-3-7-32-8-32-5-15-3-10 4 2 9 10 7 10 16 26 1 5 13-1-8-6-1-2v-10l6-3h10l12 3 6 3-1 5-1 8 3 4 21 2-4-12v-4l-8-2-9-4-10-4-11-6-10-8-4-8v-8l5-4 3-1h16l21 5v-7h-8l-7-3-1-5 1-16 8-20h2l1-3 5 1 7 3-2-7-1-3 3-5h2v-6l4-5z" fill="#22363F"/>
<path transform="translate(1200,956)" d="m0 0h1l1 75 8-13 10-16 10-13 9-12 3-2 1 1v32l-3 43-2 24-1 3h2l3-26 2-23 1-30v-22l3 3 10 25 10 40 7-7 4-2 2-2-1 11-7 35-1 16 4 5 4 38v33l5 2 11 3h32l-2 4-9 11-8 12 1 10 7 25 2 5v4h43l-5 4-18 10-16 8-20 9-22 8-21 6-29 6-32 4-13 1h-18l-36-3-25-3-43-9-29-7-64-20-36-12v-1l11-2 18-1 1-1v-11l-1-23h51l2 35 97 1 24 1v-190l8-9 3-1v165h2l1 26h47l1-34z" fill="#F7AFA6"/>
<path transform="translate(394,859)" d="m0 0h125v283l-1 18-21 1h-79l-22-1-2-1-1-163v-51z" fill="#E18B3C"/>
<path transform="translate(1185,480)" d="m0 0h2l1 9-1 36-5 67-3 28-6 48-2 9v5h4v-7l5-12 9-16 20-40v-3l-10 19-8 16-13 23h-2l5-40 3-30 4-43 1-15 1-46h3l5 11 9 27 10 37 6 35 3 37 5-6 8-7 7-7 11-9 15-12 13-9 9-6 10-5h4l-1 5-6 14-5 13-14 33-12 26-8 16-9 17-3 7-24-12-18-6-12-2h-41l-17 3-10 4-9 3-19 11-16 12-12 11-3 5-7 8-44-1-1-2 1-161 1 3 52-1 3-2 7-14 4-4 11-4-8-2 1-5 6-11 3-5h2l7 12 4 8 1 4 8 11 2 3h3l8-16 9-16 12-18 10-14 8-10 11-14z" fill="#BEDEA8"/>
<path transform="translate(201,1065)" d="m0 0h18l26 1v13h36l11-1v8l-4 26h5l1 1v90l7 10 1 4 2 1v23l-3 58v25l1 4-29 4-10 1h-40l-35-5-16-4-30-10-21-10-5-5 6-4 31-9 26-6 16-2 2-1-14-14-11-14-9-11-12-17-12-20-10-18-13-27-10-26-9-27-4-14 6 1 17 12 16 12 13 10 15 12 11 9 15 13 11 9 11 11 8 7 15 14 11 9 51 51 7 8v-6l-8-7-28-28-8-7-9-10-13-24-20-38-5-8-2-1 7 14 10 18 12 24 1 5-6-4-10-10-10-8-15-14-10-9-8-6v-2l-4-2-12-10-14-11-18-14-18-13-9-7-1-2h9l29 8 26 9 26 11 16 8 15 8 11 6 9 6 5 4 2 1-2-9-8-24-5-19-5-17-16-8-2-5h-11z" fill="#BFDEA8"/>
<path transform="translate(985,328)" d="m0 0h7l15 4 12 5 9 5 10 7 13 10 8 7 7 8 10 13 10 17 6 17 4 21 1 16-2 16-3 16-7 21-5 10-10 21-3 8-2 11-3 2-4-6v-3l-26 1-12 22-2 2-1 68-1 94h-10l-1-1-1-9-1-1-20-1-6-1-4-10-7-13 1-135 2-4-2-10-7-16-9-26v-10l2-12 6-41 2-33 2-44 2-17 3-9 4-11 8-8z" fill="#51763F"/>
<path transform="translate(381,616)" d="m0 0h7l8 3 4 11 7 17 1 22-1 1-25 1v442h-1l-1-73-1-32-5-38-7-34-1-3h-2l-1 2h-2l-2 4-10 11-5 5-5 6h-3l-1-8-3 1-10 15-5 11-2-4-11-33-4-9-8-22-4-26-4-42-1-7 9 2 14 5 4 1v-121l-3-9-3-5-10-5-117-1 1-4 21-21 14-11 14-9 16-8 10-2h7l7 2 10 10 7 13h2l7-9 10-11 11-9 10-7 12-8 15-7 15-5z" fill="#53763F"/>
<path transform="translate(894,946)" d="m0 0 4 2 10 9 24 24 7 6 3 5-1 8-5 5-1 2 21 10 2-10 6-8 4-5 3-4 4 10 4 7 6 7 8 6 5 6 4 11-2 8-8 14-1 4 16-3 18-3 1 8 73 1v79l-1 1-9-1-6-1v22l-1 13-23-4-24-5-1-1-2-34-4-30-4-9-8 1-12 2h-27l-18-2-2 11-6 42-10-1-106-23-30-7-23-5-19-4v-2l102-1 1-40 1-1 93-1 3-16-11-6-10-8-10-9-12-12v-2l-5-2-9-10-8-12-17-17-2-1 1-6 9-11z" fill="#34BCB5"/>
<path transform="translate(1161,720)" d="m0 0h8l-6 22-5 23-1 2 8-7 36-36 1-2 7 1 8 5-1 4-3 3h-2l-2 12-4 13 8-7 10-10 4-5 3-3 5 1 13 12 10 11 7 12v3h2l5 11 2 10 3 11 1 7v16l-3 15-5 18-8 14-6 8-3 3-1 3-5 5-8 6-3 3-12 7h-2v2l-14 5-17 4-8 1h-16l-11-2v-67h-2l-2 4-17 16-8 9-8 7-7 7-2 3-4-2-13-14-4-6 2-4 16-15 30-30 6-7 8-7 48-48 4-13 2-8v-4l-59 59h-2l-2 4-55 55-3 5-3-1-5-14 2-4 12-11 6-7 8-7 16-17 15-14 9-10 8-7 1-3 1-9 1-10h2l1-13 2-5-1-9v-3z" fill="#C5F0F1"/>
<path transform="translate(1137,1058)" d="m0 0h1v190h-24l-95-1-2-1-1-4-1-14v-17h-60l-2-8-2-12-1-12v-16l1-20 5-35 3-11 18 1h27l16-3 5 1 4 9 4 30 2 34 45 9 2 1v-13l1-22 15 1 1-79 20-1 11-3z" fill="#A88859"/>
<path transform="translate(151,742)" d="m0 0h2l1 64 2 8h2l5 5 4 3 4 1h77l3 3 9 19 6 13 5 11 4 10 5 10 6 15 11 29 4 11 9 24 4 12 2 1-9 27-5 17-2 4-10 6-4 3-18 7-23 6-19 2-5-28-2-10 11-5 43-1 6-3 1-3v-49l-3-4-3-1h-71l-5 5h-2l-8-14-6-8v-2h-2l-7-11-7-10-8-13-10-21-6-15-6-27-1-8v-21l2-19 5-21 4-11z" fill="#51B9A0"/>
<path transform="translate(176,705)" d="m0 0h106l15 4 3 3 6 14 3 1v-8h1l1 5v121l-4 1-11-5-12-3 2 15 4 42 4 21 6 14 4 11 10 28 2 7v5l-2 1-12-33-3-7-3-9-14-37-5-12-6-11-4-11-7-14-6-14-4-8v-2h-79l-7-3-6-5v-2h-2l-3-8v-64l-2-1 4-1h-2l-1-4 3-18 4-8 11-4z" fill="#FBF1E9"/>
<path transform="translate(1287,1006)" d="m0 0 5 1 16 8 29 13 28 14 10 4 3 2 1 29v44l4 20 7 20 1 9-8 4-16 4h-26l11 24 2 5v14l4 1 9 22v2l-9 3h-37l-2-1-6-19-4-15-1-10 10-14 7-9 3-4-3 1h-29l-11-3-5-3-1-33-2-22-2-16-4-5 1-16 8-41 2-12z" fill="#21353F"/>
<path transform="translate(492,501)" d="m0 0 4 2 9 10 7 10 16 26 1 5 13-1 2-1 1 3h-15l1 41 156 1h22l7 4 1-4h2v83l-1-2-9 2h-170l-9-1v566h-1l-1-576-6-37-3-21v-14l5-39h-3l-1 14-3 21-2-3-7-32-8-32-5-15z" fill="#31495F"/>
<path transform="translate(308,1112)" d="m0 0h63l10 1v133l-2 2-6-42-6-37-1-5h-2l-1 16 5 13 4 22 5 32 4 29 1 13v18l-12 5-29 8-32 7h-8l-1-3v-25l4-81-3-1 2-1 2 1v-27l1-48 1-27z" fill="#355384"/>
<path transform="translate(1200,956)" d="m0 0h1l1 75 8-13 10-16 10-13 9-12 3-2 1 1v32l-3 43-2 24-1 3h2l3-26 2-23 1-30v-22l3 3 10 25 10 40 7-7 4-2 2-2-1 11-7 35-1 16 4 5 2 17h-3l-3 10-7 21-8 20-5 10-14 33-16 32-2 5h-3l2-11 6-29 4-23 3-29 1-15h-3l-2 32-7 42-5 23-2 9-1 1h-63v-10h49l1-34z" fill="#51B79E"/>
<path transform="translate(93,1089)" d="m0 0 6 1 17 12 16 12 13 10 15 12 11 9 15 13 11 9 11 11 8 7 15 14 11 9 51 51 7 8 1 1v12l-1 4-11-2-12-2-30-4h-26l-23 2-15-15-11-14-9-11-12-17-12-20-10-18-13-27-10-26-9-27z" fill="#BFDEA8"/>
<path transform="translate(916,688)" d="m0 0 9 1 9 4-2 9-7 28-6 16-8 22-8 15-7 8-4 2h-7l-8-5-8-8-7-11-11-21-1-6h-78l-3 11-6 15-4 12 1 7 11 20 13 23 11 21-2 4-4 2v2l-5 2-8-9-9-11-9-10-8-10-11-13-9-11-2-3v-17l7-40 6-15 11-10 14-9 14-8 9-4 6-1 4 9 4 2 11-1 2-1 4-10 10 3 11 5 19 10 10 9 7 11 6 14h7l8-14 4-10 4-6 5-12 3-8z" fill="#21353F"/>
<path transform="translate(1191,487)" d="m0 0 3 3 5 12 8 24 10 37 6 35 3 37 5-6 8-7 7-7 11-9 15-12 13-9 9-6 10-5h4l-1 5-6 14-5 13-14 33-12 26-8 16-9 17-3 7-24-12-18-6-12-2-34-1v-1l13-1v-7l5-12 9-16 20-40v-3l-10 19-8 16-13 23h-2l5-40 3-30 4-43 1-15 1-46z" fill="#51B89F"/>
<path transform="translate(1148,1048)" d="m0 0h1v165h2l1 26h-2v10h51l28 1 1 3-8 17-2 2-199 1-3 2-9-1-54-17-20-7v-1l11-2 18-1 1-1v-11l-1-23h51l2 35 97 1 24 1v-190l8-9z" fill="#EFAF9C"/>
<path transform="translate(992,507)" d="m0 0h2l3 10 5 12 9 25 3 2 2 10v4l3 1v7l-1 1-1 68-1 94h-10l-1-1-1-9-1-1-20-1-6-1-4-10-7-13 1-135 2-4-1-9 5-3 6-14 8-23z" fill="#21353F"/>
<path transform="translate(1161,720)" d="m0 0h8l-6 22-5 23-1 2 8-7 36-36 1-2 7 1 8 5-1 4-3 3h-2l-2 12-4 13 8-7 10-10 4-5 3-3 5 1 13 12 5 6-2 4-11 11-7 8-3 1-2 4-12 12-8 7-31 31-11 14-7 4-13 14-8 7-11 12-8 7-7 7-2 3-4-2-13-14-4-6 2-4 16-15 30-30 6-7 8-7 48-48 4-13 2-8v-4l-59 59h-2l-2 4-55 55-3 5-3-1-5-14 2-4 12-11 6-7 8-7 16-17 15-14 9-10 8-7 1-3 1-9 1-10h2l1-13 2-5-1-9v-3z" fill="#FBFCFB"/>
<path transform="translate(596,423)" d="m0 0 14 2 8 3h13l8-3h10l4 6v6l6-5 3-4 5 2 6 10 2 6h2l5 14v3h2l3 11 1 6v13l-10 3-2 4 2 1-9 2-17 7-22 12-5 2-16-7-16-9-10-4-6-2 1-8h-8l-7-3-1-5 1-16 8-20h2l1-3 5 1 7 3-2-7-1-3 3-5h2v-6l4-5z" fill="#FC6B82"/>
<path transform="translate(1020,1095)" d="m0 0 5 1 4 9 4 30v47l-3 27-1 1h-74l-2-7-2-12-1-12v-16l1-20 5-35 3-11 18 1h27z" fill="#21353F"/>
<path transform="translate(996,877)" d="m0 0h7l15 6 13 7 7 6 4 8v13l-3 18-1 13v42l-4 12-2 9 1 1v15l-4 13-2 11-3 6-9 3-24 3 1-6 8-14 1-6-5-13-9-8-5-4-7-9-3-8 1-9 8-24 2-22h2l2-4 4-6 1-8-2-5v-11l6-8 1-5-10 3-7 3h-3l1-5 6-9 7-6z" fill="#21353F"/>
<path transform="translate(1287,1006)" d="m0 0 5 1 16 8 29 13 28 14 10 4 3 2 1 29v35l-2 4v-3l-27-1-37-4-18-3-15-4h-5l-4-5 1-16 8-41 2-12z" fill="#355384"/>
<path transform="translate(1018,582)" d="m0 0h52l1 1 1 146-3 5-7 8-44-1-1-2z" fill="#F9DB69"/>
<path transform="translate(486,499)" d="m0 0h2l4 11 10 33 6 25 2 12 3 12 4 24 4 31 2 15 1 7h-4l-2-10-5-12-9-22-9-17-3-4v-2h-2l4 10 8 15 5 13 5 11 6 18h-31l-11-25v-2h-2l-8-13-6-10-6-26-5-26-3-8 1 9 4 18 2 13v5l-4-5-15-24-24-36-11-16-10-13-6-7v-2l6 2 24 15 13 10 13 11 10 9 13 12 4 5 3 4 4-30 6-19 5-17z" fill="#51B9A0"/>
<path transform="translate(867,1066)" d="m0 0h94l-1 9-4 16v4l3 1-1 8-5 31-2 15-10-1-106-23-30-7-23-5-19-4v-2l102-1 1-40z" fill="#FBE4D2"/>
<path transform="translate(301,1267)" d="m0 0h1v14l-1 18v25l1 4-29 4-10 1h-40l-35-5-16-4-30-10-21-10-5-5 6-4 31-9 26-6 30-4 12-1h26l39 5 14 4z" fill="#52B9A0"/>
<path transform="translate(720,1028)" d="m0 0h92l36 1 1 3v54l-1 3-94 1h-33l-1-1z" fill="#A9895A"/>
<path transform="translate(377,502)" d="m0 0 4 1 10 14 9 12 17 25 10 15 15 24 18 30 15 27 8 16v2l2 1-17 1h-60l-1-2-1-21-8-20-3-8-3-2 1-2-8-27-4-19-3-21-1-11-1-33z" fill="#BEDEA8"/>
<path transform="translate(609,330)" d="m0 0h14l12 5 10 5 5 2 9 11 2 6-1 10-6 14 1 7 6 12 2 6 1 17 2 5-4-1-3 4-4 4h-2l-2-8-2-3h-10l-8 3h-13l-8-3-14-2-4 1-2 4-2 7-3 3-1 4 2 3v5l-5-1-4-2h-3l-2 2v-8l-3-6v-11l3-9 9-15-1-5-6-12-1-4v-8l4-11 6-10 8-10 11-8z" fill="#F5C49B"/>
<path transform="translate(851,458)" d="m0 0 4 1 4 5 15 29 6 10 7 14 1 1 20 1v-15l4 2 1 14 5 2 2 6v57l2 14 6 13 5 14 8 22 5 6 1 13 3 7 1 9-4-4-2-7h-2l-3 10-5 10-8-1-10-4 2-22 3-7 3-1h6l5-5-1-7-8-20-3-10-6-15-5-11v-7l-46 1-21 9-10 3v-62l2-10 2-3 3-1 38-1-1-4-8-16-10-19-6-11-5-7z" fill="#F9F1E7"/>
<path transform="translate(1026,1066)" d="m0 0h73v79l-1 1-9-1-6-1v22l-1 13-23-4-24-5-1-1-2-34-4-30-3-8 1-4h3l-3-18z" fill="#FBE4D3"/>
<path transform="translate(1438,1090)" d="m0 0h1v14l-1 34 16-9 18-10 17-8 10-4h2l-1 4-11 17-14 19-13 15-9 10-7 8-24 24-11 9-9 8-19 14-13 9-3 1-5-10-5-13-3-1-1-14-9-20-4-10h27l16-4 5-2h3l2 4 10-10 14-11 17-13 1-1 1-8 1-30z" fill="#52B9A0"/>
<path transform="translate(310,779)" d="m0 0h1l2 19 6 18 6 20 4 10v6l-10 6-4 5-2 4v12l2 4 5-9 5 2 6 5 3 2h8l6-3 5-6 2 2-1 5 6-1 1 2 1 17 3 7 1 18-2 9-1 2h-2l-2 4-10 11-5 5-5 6h-3l-1-8-3 1-10 15-5 11-2-4-11-33-4-9-8-22-4-26-4-42-1-7 9 2 14 5 4 1z" fill="#52B9A0"/>
<path transform="translate(1072,582)" d="m0 0h55v108l-1 2-16 8-16 10-11 9-5 4-5 1-1-103z" fill="#FC6981"/>
<path transform="translate(1323,908)" d="m0 0h3l5 6 6 4h9l5-2 11 27 5 15 3 12 1 2 3 29v6h2l2 12v6l-1 2h-13l-7-2-13-8-7-4-30-18-24-15-2-2 1-4 11-18 7-11 10-15z" fill="#365483"/>
<path transform="translate(1166,718)" d="m0 0h14l24 3-2 1-2 4-41 41h-2l3-16 6-25 2-5h-7l-2 2 2 4v6l-2 5-2 13h-2v10l-1 9-3 5-13 12-7 8-16 15-12 13-11 10-7 8-8 7-3-4-2-12v-27l5-16 6-15 7-12 11-13 8-8 5-4h3v-2l7-4h3v-2l19-8z" fill="#6C8068"/>
<path transform="translate(830,614)" d="m0 0 14 3 25 9 18 8 18 10 19 12-3 5-4 26 2 1-3 1-2 3-3 9-6 14-3 4-5 12-6 10-3 1h-5l-10-20-7-9-8-6-12-6 2-1-8-25-4-11v-6l7-13 2-8v-9l-3-5-7-4-4-2z" fill="#51B9A0"/>
<path transform="translate(492,501)" d="m0 0 4 2 9 10 7 10 16 26 1 5 13-1 2-1 1 3h-15v53l1 51 153 1 9 1 2-1h19v2l5-3v21l-1-2-9 2h-170l-9-1v566h-1l-1-576-6-37-3-21v-14l5-39h-3l-1 14-3 21-2-3-7-32-8-32-5-15z" fill="#3B4C5A"/>
<path transform="translate(868,829)" d="m0 0h71l6 7 1 3v66l-6-2-20-8-6-2h-43l-5-3-4-5-1-3v-43l4-8z" fill="#FBEEE5"/>
<path transform="translate(203,948)" d="m0 0h71l5 3 2 3v49l-3 5-5 2-43 1-10 4h-3l-3 3-9 3-5-1-2-3v-39l1-23-2-1 4-5z" fill="#FBF1E9"/>
<path transform="translate(1191,487)" d="m0 0 3 3 5 12 8 24 10 37 6 35 2 21v18l-13 14-11 15-9 14-2 3h-17l2-1v-7l5-12 9-16 20-40v-3l-10 19-8 16-13 23h-2l5-40 3-30 4-43 1-15 1-46z" fill="#BFDEA8"/>
<path transform="translate(766,643)" d="m0 0h20l3 20 4 9 1 2v15l-14 7-14 8-11 7-13 11-6 15-2 4h-14v-93l4-2 14-2z" fill="#FCFCFB"/>
<path transform="translate(394,797)" d="m0 0h124l1 5v28l-1 6-41 1h-56l-27-1z" fill="#E18B3C"/>
<path transform="translate(404,748)" d="m0 0h113l2 6v22l-1 11h-114l-9-1-1-1v-36z" fill="#E18B3C"/>
<path transform="translate(1036,1248)" d="m0 0h58l54 1h53l28 1 1 3-8 17-2 2h-201l-1-5v-18z" fill="#FC6981"/>
<path transform="translate(201,1065)" d="m0 0h18l26 1v13h36l11-1v8l-4 26h5l1 1v38l-1 52h-1l-1-20-11-11-28-22-5-14-9-27-4-17-4-13-16-8-2-5h-11z" fill="#51B89F"/>
<path transform="translate(803,606)" d="m0 0 1 2h10l10 2 5 3 2 4 7 2 7 6 1 3v9l-3 10-6 11v6l4 11 7 22v3l-5-1-8-4-15-5-4 10-8 2-8-1-4-5-1-6-2-1v-15l-4-8-2-7-1-16-20 1h-18v-1l14-1h24l1-7 5-12 7-10 1-3-14-1v-1h17z" fill="#F8AFA6"/>
<path transform="translate(1026,1273)" d="m0 0h185l7 1 1 4h-2l-1 5-8 18-1 1-21 2h-18l-36-3-25-3-43-9-29-7-17-5 1-2z" fill="#FBE5D4"/>
<path transform="translate(253,649)" d="m0 0h7l7 2 10 10 7 13 2 1 2 10 4 13 1 6h-116l1-4 21-21 14-11 14-9 16-8z" fill="#52B9A0"/>
<path transform="translate(717,637)" d="m0 0h2v22l-3 3-6-1h-15l-4 1-13-1-147-1-1-1v-19l1-1 184-1z" fill="#21353F"/>
<path transform="translate(1241,975)" d="m0 0 2 1v32l-3 43-2 24-2 6-6 7-10 15-9 14-2 6h-2l-1 4-3 6h-2v-101l6-9 11-18 21-28z" fill="#BEDEA8"/>
<path transform="translate(1309,577)" d="m0 0h2l1 2v38l-4 35-4 21-7 25-6 17-8 20-3-3v-2l-4-2-12-13-9-6 21-21 8-7 8-8 1-2-4 1-9 10-9 7-13 13-2-1 8-19 15-30 4-9 8-19 4-10 5-11 4-11 4-10z" fill="#51B9A0"/>
<path transform="translate(855,1107)" d="m0 0h10l-2 2 31 5 46 7 7 2 1 1 2 14-2 6-1 2 4-1v5l-10-1-106-23-30-7-23-5-19-4v-2z" fill="#E5D3AE"/>
<path transform="translate(1346,824)" d="m0 0 10 1 9 6 3 4v3l-12 3-15 2-2 4-6 3 2 4 3 2h17l9-2h10l-3 1 3 9 1 1v5l-4 2-2 10-7 8-9 4-2 20-5 5h-9l-9-7-2-4-2-1-1-32-3-10-1-7v-17l5-5 3-1 2-5 7-4z" fill="#F8AFA6"/>
<path transform="translate(1161,720)" d="m0 0h8l-6 22-5 23-1 2 8-7 36-36 1-2 7 1 8 5-1 4-3 3h-2l-2 12-3 10-1 5h-3l2-14 2-7-60 60h-2l-2 4-55 55-3 5-3-1-5-14 2-4 12-11 6-7 8-7 16-17 15-14 9-10 8-7 1-3 1-9 1-10h2l1-13 2-5-1-9v-3z" fill="#F9FBF9"/>
<path transform="translate(1405,934)" d="m0 0h3l-1 6-10 30-7 24 13-4 6-1h8v9l-5 6-8 5-15 6-7 1v13l7 1 10 5 4 4-1 5-9 4h-10l-12-3-10-4-15-8-31-14-17-8-11-5v5h-1l-1-7-6-3v-10l3-12 11 6 14 9 29 17 5 4 11 6 7 4 18 2v-8l-2-12-2-20v-15h2l1 5 1 25 5-1 4-6 13-43 4-11z" fill="#F6AFA5"/>
<path transform="translate(999,1033)" d="m0 0h2l1 6-3 7-7 13-1 4 16-3 18-3 3 25 1 11-3 1-2 2-8 1-12 2h-27l-18-2-4-2 1-7 4-18 1-9 3-11 1-1 13-1 12-6 3-3h2l2-4z" fill="#33BEB8"/>
<path transform="translate(1333,1165)" d="m0 0 2 2 3 7 7 2-4 2 11 24 2 5v14l4 1 9 22v2l-9 3h-37l-2-1-6-19-4-15-1-10 10-14 7-9 4-6z" fill="#52763F"/>
<path transform="translate(1347,1113)" d="m0 0h20l8 1 2 4v3h2l4 20 7 20 1 9-8 4-16 4h-22v-2l-7-1-3-5-1-7v-8l7-22 5-17z" fill="#1B2B33"/>
<path transform="translate(830,614)" d="m0 0 14 3 25 9 18 8 18 10 19 12-3 5-4 26 2 1-3 1-2 2v-2l-6-2-10-7-16-10-17-9-24-10 3-10 1-4v-9l-3-5-7-4-4-2z" fill="#A88859"/>
<path transform="translate(596,423)" d="m0 0 14 2 8 3h13l8-3h10l4 6v6l6-5 1 1v31l-2 2-3-5-3-10-3-12-4-1 1 28 1 8-14 4-7 3-7-1-13-5-4-1 1-11 1-24h-4l-2 5-3 15-4 9h-2l-1-2v-36l4-5z" fill="#283940"/>
<path transform="translate(383,501)" d="m0 0 6 2 24 15 13 10 13 11 10 9 13 12 4 5 3 5v24l3 26 3 22-4-5-6-10-6-11-4-20-4-17-3-15-2-5 1 9 4 18 2 13v5l-4-5-15-24-24-36-11-16-10-13-6-7z" fill="#C0DEA8"/>
<path transform="translate(1388,1171)" d="m0 0h3l4 22 3 22 2 3h2l1-10 3-6h3l-1 9-4 8-14 11-17 12-6 3-5-10-5-13-3-1-1-14-9-20-4-10h27l16-4z" fill="#F6B1A6"/>
<path transform="translate(719,555)" d="m0 0h1v59l9-3 17-2 40-1 14 1v4l-7 10-5 12-2 7-38 2-24 3-3 1-1 92h-1z" fill="#A38B5D"/>
<path transform="translate(320,874)" d="m0 0 5 2 6 5 3 2h8l6-3 5-6 2 2-1 5 6-1 1 2 1 17 3 7 1 18-2 9-1 2h-2l-2 4-10 11-5 5-5 6h-3l-1-4v-7l4-4-1-23-9-3-8-7-5-11-1-3v-11l2-9z" fill="#F7B0A6"/>
<path transform="translate(1206,740)" d="m0 0 1 3-2 5-3 14-3 6-48 48-11 10-5 6h-2l-2 4-33 33-8 7-2 1-6-12h2l2-5 62-62z" fill="#6C836A"/>
<path transform="translate(1253,755)" d="m0 0 5 4 5 9-16 20-9 10-24 24-11 9-15 12-21 14-8 4h-2l2-5 4-8 8-9 8-10 35-35 8-7 4-5 8-7 14-15z" fill="#52B9A0"/>
<path transform="translate(135,1308)" d="m0 0h17l59 5 26 3 31 5 28 5 4 1 1-3 1 4-29 4-10 1h-40l-35-5-16-4-30-10-8-4z" fill="#52B9A0"/>
<path transform="translate(894,946)" d="m0 0 4 2 10 9 24 24 7 6 3 5-1 8-7 7-7 1-6 4-4-1-7-6-10-14-7-8-12-12-2-1 1-6 9-11z" fill="#FBE4D2"/>
<path transform="translate(1148,1048)" d="m0 0h1v200h-9l-1-1v-190l7-8z" fill="#FCFBFA"/>
<path transform="translate(1029,1066)" d="m0 0h70v79l-1 1-9-1-6-1v22l-1 13-23-4-24-5-1-1-1-33h1v10l4-9h8l35 5h7l9 2v-52l1-25h-69z" fill="#E4D4AF"/>
<path transform="translate(492,501)" d="m0 0 4 2 9 10 7 10 16 26 1 5 13-1 2-1 1 3h-15v94l-1 20h-1l-6-37-3-21v-14l5-39h-3l-1 14-3 21-2-3-7-32-8-32-5-15z" fill="#52B9A0"/>
<path transform="translate(1166,718)" d="m0 0h14l24 3-2 1-2 4-41 41h-2l3-16 6-25 2-5h-7l-2 2 2 4v6l-2 5-2 13h-2v10l-2 8-3-4-6-9-5-5-1-3-1-14h-7l-1 2v9l-3-2v-8l-2-2 5-5 17-7z" fill="#53B9A0"/>
<path transform="translate(1098,533)" d="m0 0h2l7 12 4 8 1 4 8 11 4 4 2 9h2l1 78 1 11-1 4-1 16 3 1-5 1 1-110h-55l1 39v103l4-1-5 5-1-2-1-143-52-1 1-4v3l52-1 3-2 7-14 4-4 11-4-8-2 1-5 6-11z" fill="#FBE5D4"/>
<path transform="translate(1297,1248)" d="m0 0h65l-5 4-18 10-16 8-5 2h-59l1-4 13-18 3-1z" fill="#FC6C82"/>
<path transform="translate(1154,854)" d="m0 0h2v67l-9-1-18-7-15-8-5-5 9-10 7-7 7-6 7-8 14-13z" fill="#6B826A"/>
<path transform="translate(354,1236)" d="m0 0h2l2 6h2l13 28 7 16 1 5 1 16-12 5-6 1-4-6-5-9-7-10-4-8 2-13 3-19 2-9z" fill="#213640"/>
<path transform="translate(333,850)" d="m0 0h10l10 5 10 7 6 5 1 53-3 2-1-3-1-12-4-8-1-19-6 2-1-3 1-4-5 5-4 3-3 1h-8l-12-9h-2l-5 11-2-4-1-3v-12l5-8 8-6z" fill="#263840"/>
<path transform="translate(943,672)" d="m0 0h2l5 10 6 8 9 14 3 3 8 15v6l-36 1h-15l2-10 4-17 3-9-3-1 4-1z" fill="#A6885A"/>
<path transform="translate(250,823)" d="m0 0 5 1 25 10 1 3 3 1 2 15 4 42 4 21 6 14 4 11 10 28 2 7v5l-2 1-12-33-3-7-3-9-14-37-5-12-6-11-4-11-7-14-6-14-4-8z" fill="#E7F7F4"/>
<path transform="translate(1277,1124)" d="m0 0 2 4 1 11v33l-10 15-11 18-10 16-13 22-4 5-7 1-1-4 4-7 9-17 6-15 7-15 4-10 4-8 3-9 9-10 7-8 2-6-5 3-6 8-1-2 4-9 3-9z" fill="#52B9A0"/>
<path transform="translate(803,606)" d="m0 0 1 2h10l10 2 5 3 2 4 7 2 7 6 1 3v9l-3 10-3 6-2-2-2-10-1-7-10 1-24 5-11 2-2 2-1 7h-1v-8l-20 1h-18v-1l14-1h24l1-7 5-12 7-10 1-3-14-1v-1h17z" fill="#F4C39B"/>
<path transform="translate(628,349)" d="m0 0 7 1 5 10 5 14-4 10-7 13-1 10-5 6h-6l-6-5-2-5-2-10-4-7v-5l7-5h2v-15l3-7z" fill="#E4D5B0"/>
<path transform="translate(361,1174)" d="m0 0h1l2 8 4 11 4 22 5 32 4 29 1 13v16h-1l-1-14-3-9-24-54 1-11 6-31z" fill="#51B89F"/>
<path transform="translate(1151,1213)" d="m0 0h49v27l-48-1-1-6z" fill="#E08B3D"/>
<path transform="translate(373,1113)" d="m0 0h8v133l-2 2-6-42-6-37-1-5h-2l5-28 3-20z" fill="#51B9A0"/>
<path transform="translate(1245,977)" d="m0 0 3 3 10 25 8 32 1 10-20 20-3 4h-2l-2 4 4-46 1-30z" fill="#C0DEA8"/>
<path transform="translate(184,781)" d="m0 0h90l11 1 1 1v8l-9 1h-94l-8-1-2-2v-6l2-1z" fill="#FCE5D4"/>
<path transform="translate(1055,553)" d="m0 0 3 1 4 8h2l1 7 4 6 2 6h-52l1-6 11-20 1-1z" fill="#FBE4D3"/>
<path transform="translate(966,1212)" d="m0 0h25v2h3v5l-14 3-3 1-1 4 2 7h-2l1 5v3 3l5-3 1-6h6l4 4-2 5 1 8 3 2 2 8v5l6 2-4 1-31-10-2-36z" fill="#F9AFA7"/>
<path transform="translate(493,506)" d="m0 0 2 3 5 13 4 17 3 10 3 15 6 26 1-1 4-31h3v9l-4 30v14l5 33 4 25-1 2-39-1v-1l28-1-5-13-5-14-5-11-12-24v-4h2l8 13 9 19 8 21 3 7v7h4l-3-11-4-37-4-23-3-16-2-8-5-23-7-25-5-16 1-3z" fill="#F1F9F6"/>
<path transform="translate(177,754)" d="m0 0h91l18 1v7l-1 1-16 1h-84l-9-1-3-2v-5z" fill="#FBE4D3"/>
<path transform="translate(190,726)" d="m0 0h79l17 1v7l-4 2h-102l-7-2v-6l2-1z" fill="#FCE5D4"/>
<path transform="translate(1375,1183)" d="m0 0h9l1 7 2 2-2 5-1 6h3l3 10-1 6-6 8h-2l-2 4-5 3h-2l-3-6-1-6-3-7 1-7h2v-2l2-1-4-2-1 2-3-4-3-5-3-4v-6l14-1z" fill="#EFAE9C"/>
<path transform="translate(1149,1193)" d="m0 0h50l1 1 1 19h-52z" fill="#D3863C"/>
<path transform="translate(1206,740)" d="m0 0 1 3-2 5-3 14-3 6-43 43h-1v-17l-2-1z" fill="#53B9A0"/>
<path transform="translate(1405,934)" d="m0 0h3l-1 6-10 30-7 24 13-4 6-1h8v9l-5 6-8 5-15 6-7 1v8l-1 5h-5l1-10-2-12-2-20v-15h2l1 5 1 25 5-1 4-6 13-43 4-11z" fill="#EFAE9C"/>
<path transform="translate(1306,1206)" d="m0 0 3 3 4 16 5 16 1 7-32 1-10-1 2-5 14-19 8-11z" fill="#FBFBF9"/>
<path transform="translate(169,1007)" d="m0 0h5l3 5 13 19 15 24 1 2 38-1 1-6 2 1-2 11-3 1 3 1v2h-26l-19-1-11-18-2-5h-2l-6-10-9-14-3-5 1-5z" fill="#3D5462"/>
<path transform="translate(1346,824)" d="m0 0 10 1 9 6 3 4v3l-12 3-13 2-9 5-5 1v10l4 11-7 2h-2l-2-4-2-18 2-10 4-5 4-6 9-4z" fill="#A9895A"/>
<path transform="translate(937,650)" d="m0 0 3 1h3l3 3 1 13 3 7 1 9-4-4-2-7h-2l-3 10-5 10-8-1-10-4 2-22 3-7 3-1h6l5-5z" fill="#F6B0A5"/>
<path transform="translate(1157,719)" d="m0 0h4v2l-2 2 2 4v6l-2 5-2 13h-2v10l-2 8-3-4-6-9-5-5-1-3-1-14h-7l-1 2v9l-3-2v-8l-2-2 5-5 17-7z" fill="#51B89F"/>
<path transform="translate(340,701)" d="m0 0 3 4 5 15 4 20 3 12 4 24 3 19 2 13 3-13 5-42 2-4h2l-2 21-5 36-2 12v10l3 27 4 54v23l-3-4-3-61-6-46-2-18-7-42-7-33-6-21z" fill="#E4DCBD"/>
<path transform="translate(198,1287)" d="m0 0 5 1 17 8 19 10 15 8 18 4 24 4 4 2v3l-16-2-28-5-19-3-38-4-47-4h-17l-2 1-8-4 4-1h20l46 3 35 4h10l-16-9-9-4-17-9z" fill="#E7F6F1"/>
<path transform="translate(1257,1273)" d="m0 0h57l-4 3-26 10-24 7-20 4 3-6 3-1 2-4 7-12z" fill="#FBE5D4"/>
<path transform="translate(369,890)" d="m0 0h1l2 38 3 3 4 9 2 4 1 33v136h-1l-1-73-1-32-5-38-7-34-1-3-2-2 1-9v-15h1l1 12 1 2 1-1z" fill="#5AAF93"/>
<path transform="translate(254,824)" d="m0 0 16 6 10 4 2 24 3 20 1 14h-2l-12-27-3-7-13-29z" fill="#51B9A0"/>
<path transform="translate(1306,573)" d="m0 0h3l3 3-1 3v-2h-2l-1 8-5 12-6 16-4 8-8 20-4 8-4 9-11 23-6 12-3 8 1-1 13-12 13-11 6-7 4 1-7 8-9 9-8 7-13 13h-4v-2l-3-1 1-6 6-10 11-23 8-16 9-20 11-26 8-21 4-9z" fill="#E3F5F1"/>
<path transform="translate(884,853)" d="m0 0h48l2 4-1 6-2 1h-55l-4-4v-6z" fill="#FCE5D4"/>
<path transform="translate(530,719)" d="m0 0h1l1 31 1 18v10l-1 14v72l1 17 1 5-1 4v37l-1 123-1 11h-1z" fill="#1A2A33"/>
<path transform="translate(795,852)" d="m0 0 7 6 9 9v4h-2v2h2l5 5 6 4v2h2l-2 4-4 2-8-1-8-4-9-10-8-12 2-4h2v-2z" fill="#F6AEA4"/>
<path transform="translate(699,532)" d="m0 0h13l4 4v9l-4 5-5 3 12 1v1l-31 1-5-1 1-2v-8l-1-6 5-4z" fill="#365162"/>
<path transform="translate(539,532)" d="m0 0h10l12 3 6 3-1 5-1 8v3h-3v2h-19l1-4-4-1-5-3-2-3v-10z" fill="#355062"/>
<path transform="translate(1275,1118)" d="m0 0h3l-1 9-4 8-3 10-1 4 5-7 5-2v5l-7 7-9 11-3 7-4 9-4 8-4 10-7 16-4 9-9 19-3 4v4h-5l3-10 8-15 9-19 15-35 5-12 5-13 6-17 3-8z" fill="#E8F7F3"/>
<path transform="translate(224,962)" d="m0 0h32l13 1v9l-1 1-21 1-34-1-3-3 1-5 3-2z" fill="#FCE5D4"/>
<path transform="translate(855,553)" d="m0 0h51l1 1v8l-2 1h-57l-2-2v-6z" fill="#FCE5D4"/>
<path transform="translate(992,893)" d="m0 0h5v5l-6 8v11l2 5-1 8-4 6-3 3-4-2-5-8-1-9v-12l5-1 3-9 4-3z" fill="#F7AEA5"/>
<path transform="translate(852,534)" d="m0 0h55v8l-3 2h-51l-5-1-1-2v-6z" fill="#FCE5D4"/>
<path transform="translate(343,1281)" d="m0 0h2l10 16 5 7 4 9-8 3-19 5-2-1 4-19 3-18z" fill="#51B99F"/>
<path transform="translate(917,531)" d="m0 0 2 2 1 52 2 14 6 13 5 14 8 22-1 4-4-4-8-21-5-14-8-20-2-4v-7l-2-1 1-11 1-4 1-21 1-9z" fill="#F3FAF8"/>
<path transform="translate(381,1113)" d="m0 0h1v176h-1l-2-20-6-43-5-29-4-13-2-4v-8l2-8h2l3 10 5 32 5 36 1 4z" fill="#C7E3BB"/>
<path transform="translate(645,438)" d="m0 0 5 1 3 12 4 13h3l2 6 6 5 1 6-6 7h-5l-7-7-5-10-1-5z" fill="#F8DFCA"/>
<path transform="translate(600,438)" d="m0 0 4 1v24l-3 13-9 12h-6l-6-7 1-5 7-7 1-3v2l2-1 4-12 3-14z" fill="#F8DECA"/>
<path transform="translate(1368,836)" d="m0 0h1l2 11v7l-16 3h-17l-6-5 1-3 6-3 4-4 22-4h3z" fill="#FBE3D1"/>
<path transform="translate(1018,578)" d="m0 0 1 3 49-1 60 1 1 78 1 11-1 4-1 16 3 1-5 1 1-110h-55l1 39v103l4-1-5 5-1-2-1-143-52-1z" fill="#EEBBA1"/>
<path transform="translate(834,663)" d="m0 0 3 1 4 11 7 22v3l-5-1-8-4-12-4-4-3 1-6 9-9z" fill="#F7F9F7"/>
<path transform="translate(1150,1239)" d="m0 0h49l1 1 1 9h-51z" fill="#343E3D"/>
<path transform="translate(628,357)" d="m0 0 4 1 3 8v7l-5 9-4 16-1 13-5-1-3-3-1-2v-7l1-4-2-8 3-5 6-7 1-12z" fill="#FCE5D4"/>
<path transform="translate(1297 1e3)" d="m0 0 12 1 3 1v2h3v2l5 1 2 1v2l6 1v2l5 2 8 3 4 3v2h2l-1 4-3 2h-6l-11-5 1-2-15-7-5-5-2-1v-2l-5-2-4-4z" fill="#EFAE9C"/>
<path transform="translate(1217,1279)" d="m0 0 4 1 7 5 11 6 3 4-2 2-16 3-16 1 1-5z" fill="#395A83"/>
<path transform="translate(1353,1219)" d="m0 0 1 2 4 1 9 22v2l-9 3h-16l-1-3 8-13 3-7z" fill="#52B99F"/>
<path transform="translate(609,330)" d="m0 0h14l12 5 10 5 5 2 9 11 2 6-1 10-6 14v7l-2-1-1-4 5-18 1-2v-8l-3-6-5-6-2-1v-2l-6-1-18-8h-10l-14 7-7 5-4 6-6 7-4 8-2 7v9l4 8-1 3-5-9-1-4v-8l4-11 6-10 8-10 11-8z" fill="#E4D5B0"/>
<path transform="translate(1230,1142)" d="m0 0h3v15l-3 29-7 38-5 22-1 3-4-1 4-18 6-31 4-25 2-28z" fill="#E2F5EE"/>
<path transform="translate(490,602)" d="m0 0h2l8 13 9 19 8 21 3 7v7h4l-3-11v-11h1l1 8 1 1 1-7h1l3 22-40-1v-1l28-1-5-13-5-14-5-11-12-24z" fill="#E6F6F2"/>
<path transform="translate(573,537)" d="m0 0 10 3 2 1 4 13v3l-21-1-4-5 1-8 3-5z" fill="#F8E2D0"/>
<path transform="translate(611,408)" d="m0 0 4 2 6 4h8l6-3 3 5v5l-8 4h-2v2l3 2h-13l4-1-3-3-13-5-1-4z" fill="#F96A7F"/>
<path transform="translate(609,327)" d="m0 0h13l13 5 3 2v2l5 2-3 1-14-7-3-1h-14l-10 5-9 7-8 11-6 11-2 7v8l4 10 4 8-1 5-8 13-1-2 3-8 2-4-1-9-5-11-1-7 4-14 7-12 11-12 9-7z" fill="#FCEFE6"/>
<path transform="translate(1029,1066)" d="m0 0h70v79l-1 1-9-1-6-1v22l-1 13-23-4-24-5-1-5 1 3 15 2 16 4 15 3v-35h7l9 2v-52l1-25h-69z" fill="#EFC2A1"/>
<path transform="translate(201,1065)" d="m0 0h18l26 1v13h-15l-16-8-2-5h-11z" fill="#EEC89D"/>
<path transform="translate(851,458)" d="m0 0 4 1 4 5 15 29 6 10 7 14 1 1 20 1v-15l4 2 1 14 1 2-12-1h-14l-6-4-20-38-6-11-5-7z" fill="#ECF8F5"/>
<path transform="translate(673,537)" d="m0 0 3 1-1 1 5 1 3-1 2 6v8l-3 3h-21l3-12 1-3z" fill="#F7E0CB"/>
<path transform="translate(1216,727)" d="m0 0 6 2 9 5-2 4-22 22h-2l2-10 4-15 5-4z" fill="#53BAA0"/>
<path transform="translate(125,1305)" d="m0 0h24l46 3 35 4-3 2 8 1v1h-9l-27-3-47-4h-17l-2 1-8-4z" fill="#DCF2E9"/>
<path transform="translate(1209,603)" d="m0 0 1 4-24 48-7 12-3 8-1 7-4 1-1-1 1-11 2-9 1-9h3v7l-1 2h2l2-5 13-24 8-16 7-13z" fill="#FDFDFD"/>
<path transform="translate(208,1235)" d="m0 0 7 1 15 7 14 7 24 14 22 13 8 4v2l-9-1-7-4-20-13-23-13-16-8-13-6z" fill="#F9FCFC"/>
<path transform="translate(493,506)" d="m0 0 2 3 5 13 4 17 3 10 3 15 6 26-2 8h-1l-3-16-2-8-5-23-7-25-5-16 1-3z" fill="#E7F6F1"/>
<path transform="translate(1290,670)" d="m0 0 4 1-7 8-9 9-8 7-13 13h-4v-2l-3-1 1-6 6-10 4-8 4-2-1 5-7 17 1-1 13-12 13-11z" fill="#E4F6F2"/>
<path transform="translate(365,819)" d="m0 0h1l4 36 4 54v23l-3-4-3-61-4-30v-10z" fill="#C8DAA9"/>
<path transform="translate(957,1066)" d="m0 0h4l-1 9-4 16v4l3 1-1 8-3 18h-3l-1-5 2-3v-9l-3-13 1-7 2-6v-12z" fill="#F6F0E6"/>
<path transform="translate(900,989)" d="m0 0 12 3 12 9 5 6-8 5-4-1-7-6-10-14z" fill="#F5B3A6"/>
<path transform="translate(588,466)" d="m0 0 1 2 6 2 5 3 2-3-1 6-9 12h-6l-6-7 1-5 7-7z" fill="#E8CCAC"/>
<path transform="translate(1275,1118)" d="m0 0h3l-1 9-4 8-3 10-1 4 5-7 5-2v5l-7 7-9 11-4 1 1-6 5-13 6-17 3-8z" fill="#E2F5EF"/>
<path transform="translate(1098,533)" d="m0 0h2l7 12 3 9h-22l1-5 6-11z" fill="#2B3F44"/>
<path transform="translate(363,867)" d="m0 0h4l1 2 2 51-3 2-1-3-1-12-3-5v-23l2-4z" fill="#1D2C33"/>
<path transform="translate(1071,582)" d="m0 0h1l1 39v103l4-1-5 5-1-2z" fill="#EFAE9B"/>
<path transform="translate(363,929)" d="m0 0 1 4-1 2h-2l-2 4-10 11-5 5-5 6h-3l-1-4v-7l4-3h2l2-4 16-10z" fill="#F9FAF6"/>
<path transform="translate(1021,1272)" d="m0 0h153l-1 2h-147l-10 2z" fill="#F2BAA9"/>
<path transform="translate(1369,1044)" d="m0 0 6 2 3 2 1 29v35l-2 4v-3l-27-1v-1l21-1 3-3 1-12v-42l-3-6z" fill="#32495F"/>
<path transform="translate(659,464)" d="m0 0h1l2 6 6 5 1 6-6 7h-5l-7-7-4-7 1-3 3 5 5-6 2-1z" fill="#E7CCAC"/>
<path transform="translate(1161,720)" d="m0 0h8l-6 22-5 23-1 4-3 2-1-1 1-9 1-10h2l1-13 2-5-1-9v-3z" fill="#E3F6F3"/>
<path transform="translate(1024,415)" d="m0 0 1 4-6 15-10 32-10 37-2 9h-2l1-11 9-34 7-23 5-14 4-11z" fill="#E7E1C3"/>
<path transform="translate(292,912)" d="m0 0 2 4 6 14 4 11 10 28 2 7v5l-2 1-12-33-3-7-3-9-5-13z" fill="#ECF8F5"/>
<path transform="translate(650,428)" d="m0 0 3 3v6l6-5 1 1v31l-2 2-3-5-3-10-3-12-3-2 5-1z" fill="#3A4747"/>
<path transform="translate(1043,533)" d="m0 0 3 1 8 17v2h-21l8-16z" fill="#20333D"/>
<path transform="translate(1385,1035)" d="m0 0 5 1 6 3 4 1 1-3 2 2-1 5-9 4h-10l-9-2 3-1 1-5h3l1-4z" fill="#EFAE9D"/>
<path transform="translate(1147,722)" d="m0 0h5l-3 2-6 1v27l-4-1-1-3-1-14h-7l-1 2v9l-3-2v-8l-2-2 5-5 12-5z" fill="#B4D4A3"/>
<path transform="translate(364,1164)" d="m0 0h2l3 10 4 27 1 18-3-4-4-22-5-13v-8z" fill="#EAF8F6"/>
<path transform="translate(425,625)" d="m0 0 5 1 13 12 10 9 16 17 2 5-5-1-7-8-8-8-7-8-13-12-6-5z" fill="#FDFDFD"/>
<path transform="translate(374,749)" d="m0 0h2l-2 21-5 36-2 12-1 1-2 10h-1v-14l2-6 7-56z" fill="#E6DDBC"/>
<path transform="translate(1055,553)" d="m0 0 3 1-1 4-9 1-10-1-9 10-1 2h-2l-2 10h-5l1-5 11-20 1-1z" fill="#FAEDE2"/>
<path transform="translate(1026,1066)" d="m0 0 4 1 3 5v15l-1 7v12l-2 2-4-8-1-6 4-1-3-18z" fill="#F7F1E9"/>
<path transform="translate(1150,1208)" d="m0 0h50v4h-50z" fill="#1B2C36"/>
<path transform="translate(280,835)" d="m0 0 1 2 3 1 2 15 2 22v11l-1 6-2-2-5-45z" fill="#DEF3EB"/>
<path transform="translate(250,823)" d="m0 0h3v3h2l8 16 7 16 3 7-1 8-2-4-5-11-7-15-8-17z" fill="#DFF4ED"/>
<path transform="translate(1128,658)" d="m0 0h3l3 5 2 14v11h-4v2h-4v-16l1-8z" fill="#C8DCAA"/>
<path transform="translate(973,554)" d="m0 0 5 2 6 2v2h2l1 4-5 3-2 1-12 1 1-6-1-6z" fill="#31495F"/>
<path transform="translate(1243,1009)" d="m0 0h1v32l-3 31-2 6-3 1 1-4 3-34 1-17z" fill="#FCF4ED"/>
<path transform="translate(275,949)" d="m0 0 4 2 2 3v49l-3 5-5 1 1-5 4-11 1-15v-15l-4-8-2-5z" fill="#FBFCFC"/>
<path transform="translate(343,1281)" d="m0 0h2l10 16 4 6v3l-5-2-12-6z" fill="#B2D9A5"/>
<path transform="translate(884,962)" d="m0 0 3 3 3 6 9 10 4 6v2l-5-1-17-17-2-1v-4z" fill="#F9EEE3"/>
<path transform="translate(309,811)" d="m0 0h1l1 19v15l-4 1-11-5v-2l-2-1 10-3 2-2 2-7v-13z" fill="#F6FAF9"/>
<path transform="translate(213,1065)" d="m0 0 32 1v11l-2-2 1-5-4 1-1 3-5 1-3-1-2-2-4-2 2 4h-4l1-5-4-1-7-2z" fill="#EFAE9C"/>
<path transform="translate(193,1038)" d="m0 0 4 4 9 15h38v2l-41 1-3-3-7-14z" fill="#628B85"/>
<path transform="translate(282,704)" d="m0 0h12l10 5 5 8v10l-4-1-6-14v-2l-17-4z" fill="#F9F8F3"/>
<path transform="translate(1405,934)" d="m0 0h3l-1 6-10 30-7 23-2 3-2-1 13-43 4-11z" fill="#E3DDBC"/>
<path transform="translate(992,893)" d="m0 0h5v5l-6 8-1 7h-1l-1-5h-6l-2-1 3-9 4-3z" fill="#EFAE9C"/>
<path transform="translate(198,1287)" d="m0 0 5 1 17 8 19 10v3l-2 1-13-7-9-4-17-9z" fill="#E1F5F0"/>
<path transform="translate(1361,943)" d="m0 0 2 3 5 17 3 9 3 29v6l-3-4-3-23-2-12-3-12-2-9z" fill="#31495F"/>
<path transform="translate(1081,1142)" d="m0 0h7l4 2h-9v22l-1 13-23-4-24-5-1-5 1 3 15 2 16 4 15 3z" fill="#F3BB9B"/>
<path transform="translate(1030,1009)" d="m0 0 3 3v15l-4 13h-2l-2-11 2-10z" fill="#31495F"/>
<path transform="translate(379,1031)" d="m0 0h1l1 9v47l-1 22-2-1v-64z" fill="#1A2A33"/>
<path transform="translate(125,1305)" d="m0 0h24l33 2v1l-5 1v1h-13l-12-1h-17l-2 1-8-4z" fill="#C4EDE2"/>
<path transform="translate(573,544)" d="m0 0 5 1 5 5 4 3 1-3 1 7-21-1v-1l6-1-3-3-1-5z" fill="#E0CEA9"/>
<path transform="translate(1021,1277)" d="m0 0 13 1 13 4 19 4 15 4 17 4v1l-11-1-41-9-25-7z" fill="#FCF3EC"/>
<path transform="translate(928,713)" d="m0 0 4 2 6 5 1 2v6l-14 1 2-10z" fill="#51B79E"/>
<path transform="translate(1290,670)" d="m0 0 4 1-7 8-9 9-8 7-7 7-3-1 6-8 8-8 9-7z" fill="#E8F8F7"/>
<path transform="translate(1230,1142)" d="m0 0h3v15l-3 29h-1l-1-6-2 4 1-10 2-28z" fill="#DEF3EA"/>
<path transform="translate(1366,866)" d="m0 0 5 2 3 3-3 1-1 6h-1l-1-6-5 2-5 10-6 1 1-6 3-6 3-5z" fill="#EFAE9C"/>
<path transform="translate(1130,732)" d="m0 0 1 2 6-1 1 1 1 14-1 2-6-2-4-3v-9z" fill="#51B9A0"/>
<path transform="translate(266,1318)" d="m0 0 13 1 20 4 1 4-16-2-28-5v-1h10z" fill="#E9F5EE"/>
<path transform="translate(1309,1273)" d="m0 0h5l-4 3-26 10-24 7-13 3-4-1 4-3 7-1 5-1 21-5 13-5 12-5z" fill="#FCF5EF"/>
<path transform="translate(952,1249)" d="m0 0h8l7 2v9l-12-3-9-4 1-2z" fill="#FC6D83"/>
<path transform="translate(521,558)" d="m0 0h3v9l-4 30-1 12h-1l-1-14-1-2 3-21z" fill="#E6F6F0"/>
<path transform="translate(408,650)" d="m0 0 4 4 8 14-1 2h-11z" fill="#FCFAF9"/>
<path transform="translate(894,946)" d="m0 0 4 2 10 9 24 24 7 6-1 2-15-14-8-6-8-8v-2h-2l-8-8z" fill="#E7CFAB"/>
<path transform="translate(1277,1140)" d="m0 0h2v5l-7 7-9 11-4 1 1-6 2-4 3-2h3l2-5 4-5z" fill="#EFF9F9"/>
<path transform="translate(987,456)" d="m0 0 3 1 2 36v12l-2 3-3-39z" fill="#D7D9AE"/>
<path transform="translate(262,1018)" d="m0 0 5 1 16 11 5 5v2h-6l-5-5-12-9-3-3z" fill="#EEEEDF"/>
<path transform="translate(521,647)" d="m0 0h1l1 8 1 1 1-7h1l3 22-40-1v-1h35l-3-11z" fill="#C5E8D4"/>
<path transform="translate(1124,731)" d="m0 0 2 1v2l1 1v10l-8-2-9-1 4-5h3v-2z" fill="#A9895C"/>
<path transform="translate(340,701)" d="m0 0 3 4 5 15 4 20-1 7-2-4-4-18-5-18z" fill="#EFD8BC"/>
<path transform="translate(268,1265)" d="m0 0 5 2 17 10 8 4v2l-9-1-7-4-14-9v-3z" fill="#EDF8F6"/>
<path transform="translate(1278,649)" d="m0 0h1v6l-10 19-3 7h-3l-1-2 14-29z" fill="#E3F6F1"/>
<path transform="translate(612,405)" d="m0 0 4 1 4 5 2 1h6l5-3 4 1 4 9-1 4-7 1 1-2 3-1v-5l-3-4-5 3h-8l-8-6h-2l-3 3 1-5z" fill="#F4AFA1"/>
<path transform="translate(264,1045)" d="m0 0h6l-1 4-10 3-12 5-1-6 3-2z" fill="#1E2F38"/>
<path transform="translate(1147,722)" d="m0 0h5l-3 2-6 1v27l-4-1-1-3v-13l2-10 1-2z" fill="#BFE7CC"/>
<path transform="translate(574,365)" d="m0 0 1 4-1 3v8l4 10 4 8-1 5-8 13-1-2 3-8 2-4-1-9-4-9v-13z" fill="#FCEADD"/>
<path transform="translate(1021,1272)" d="m0 0h79v2h-74l-10 2z" fill="#F4B6A8"/>
<path transform="translate(829,633)" d="m0 0h6l2 7-2 4-3 1-3-2-1-3-4-2-7-1v-1z" fill="#EFAE9C"/>
<path transform="translate(1277,1124)" d="m0 0 2 4 1 13-4 1-9 9 6-18z" fill="#55BAA0"/>
<path transform="translate(1160,733)" d="m0 0h1l-1 8-1 9 2-3-1 8-2 13-4 3-1-1 1-9 1-10h2l1-13z" fill="#C2E8CF"/>
<path transform="translate(763,1108)" d="m0 0h88v1l-79 1 5 1v1l-10-1-4-1z" fill="#F5C19B"/>
<path transform="translate(1097,930)" d="m0 0 14 8v2l8 2 7 5v1l-7-1-20-11-4-3v-2z" fill="#1B2C35"/>
<path transform="translate(507,563)" d="m0 0 3 1 6 26-2 8h-1l-3-16-2-8z" fill="#EEF8F5"/>
<path transform="translate(908,504)" d="m0 0 4 2 1 14 1 2-12-1h-14l-2-2h22z" fill="#F9FAF8"/>
<path transform="translate(1202,1100)" d="m0 0 4 1 3 9 1 10-1 3h-2l-1 2-2-12-1-1z" fill="#F8FAF8"/>
<path transform="translate(237,1051)" d="m0 0h8v5l-1 1h-18v-4l2-1z" fill="#EBC79D"/>
<path transform="translate(1407,1108)" d="m0 0 1 4-8 7-12 17-4 5-1-4 8-11 7-9z" fill="#D7D7AE"/>
<path transform="translate(748,816)" d="m0 0 9 6 8 11 4 4 1 5-4-2-18-21z" fill="#1B2C36"/>
<path transform="translate(1148,1212)" d="m0 0 3 1 1 26h-2v10l-6 1-4-2h9l-1-22z" fill="#E5B59B"/>
<path transform="translate(790,845)" d="m0 0h2l3 6-2 4-4 2v2l-5 2-3-3v-3l7-4z" fill="#1C2C35"/>
<path transform="translate(1325,835)" d="m0 0v3l-3 4-1 9 2 17 3 3h6l-4 4-4 2-4-12-1-7v-17l5-5z" fill="#EFB69E"/>
<path transform="translate(500,535)" d="m0 0 3 1 4 13 2 9v5h-2l-1 2-6-26z" fill="#EAF7F2"/>
<path transform="translate(611,328)" d="m0 0h8l14 3 5 3v2l5 2-3 1-14-7-3-1h-14l-10 5-6 5-2-1 8-7 9-4z" fill="#FCE5D4"/>
<path transform="translate(292,912)" d="m0 0 2 4 6 14 2 9h-2l-1 3-3-9-5-13z" fill="#E4F5F0"/>
<path transform="translate(1258,1164)" d="m0 0h3l-3 12-7 12-3 1 1-5 6-14z" fill="#E4F5F0"/>
<path transform="translate(1243,1009)" d="m0 0h1v32l-3 8h-1l1-25z" fill="#FCF5F0"/>
<path transform="translate(793,873)" d="m0 0 4 3v2h12l2 6-3 1-1 2-5-2-9-10z" fill="#EFAE9C"/>
<path transform="translate(368,793)" d="m0 0h1v13l-2 12-1 1-2 10h-1v-14l2-6 2-14z" fill="#F4E2CD"/>
<path transform="translate(1130,659)" d="m0 0 4 4 2 14v11h-3l-2-20z" fill="#FDFDFD"/>
<path transform="translate(1022,886)" d="m0 0 6 2 9 7 5 9v9l-2 1-2-11-7-9-9-6z" fill="#1B2C35"/>
<path transform="translate(1013,917)" d="m0 0 4 1-2 4-9 6-4-1 2-5 3-3z" fill="#EBC6A5"/>
<path transform="translate(1406,1202)" d="m0 0h3l-1 9-4 8-6 4 2-5h2l1-10z" fill="#EDF1E4"/>
<path transform="translate(365,819)" d="m0 0h1l2 15v19l-2-1-2-15v-10z" fill="#EFDCC1"/>
<path transform="translate(1065,740)" d="m0 0 1 2-7 10-8 17-3 2 1-6 8-15 4-7z" fill="#1B2C35"/>
<path transform="translate(1210,735)" d="m0 0 1 3-3 12-2 10-1 2h-3l2-14 2-5v-4z" fill="#CDF1EE"/>
<path transform="translate(369,1182)" d="m0 0h1l3 19 1 18-3-4-2-13z" fill="#D4F1E6"/>
<path transform="translate(201,1065)" d="m0 0h12l7 2 4 2v7l-10-5-2-5h-11z" fill="#ECC99F"/>
<path transform="translate(373,1206)" d="m0 0h1l4 28v4l-3 1-3-18v-5l1-4z" fill="#C3ECDD"/>
<path transform="translate(1029,1090)" d="m0 0 3 4v12l-2 2-4-8-1-6 4-1z" fill="#F8ECE1"/>
<path transform="translate(660,356)" d="m0 0h2v12l-4 9-2 7 1 6 3 6-1 4-6-13 1-7 5-11 1-10z" fill="#FCE9DB"/>
<path transform="translate(1081,1142)" d="m0 0h7l4 2h-9v22l-1 10h-1z" fill="#F1BD9D"/>
<path transform="translate(250,823)" d="m0 0h3v3h2l5 10-1 7-2-3-7-14z" fill="#EAF8F5"/>
<path transform="translate(520,632)" d="m0 0h3l2 12v12l-2 1-2-10z" fill="#F1F9F7"/>
<path transform="translate(166,1308)" d="m0 0h29l4 3h-22v-2h-11z" fill="#E9F7F1"/>
<path transform="translate(308,1112)" d="m0 0h63l2 2-3 1-2-1-60-1z" fill="#31495F"/>
<path transform="translate(371,902)" d="m0 0h1v7h2v23l-3-4z" fill="#EBE7CF"/>
<path transform="translate(519,611)" d="m0 0h1l2 13v8h-2l1 4v11h-1l-2-18v-11z" fill="#D7F0E3"/>
<path transform="translate(169,1007)" d="m0 0h5l3 5 13 19 3 5-1 2-3-3-4-7-3-3-4-7-6-9z" fill="#71BC9B"/>
<path transform="translate(587,431)" d="m0 0h1v5l-3 3-1 4 2 3v5l-5-1-4-2h-3l-2 2 1-4h9v-7z" fill="#F5B0A3"/>
<path transform="translate(597,420)" d="m0 0 10 1 13 5v1h-7l-14-3z" fill="#F7DCC6"/>
<path transform="translate(370,881)" d="m0 0 2 1 1 12v15l-3 3z" fill="#D4D9AC"/>
<path transform="translate(1230,1142)" d="m0 0h3v15h-2l-1 5h-1v-16z" fill="#E2F4EC"/>
<path transform="translate(379,1031)" d="m0 0h1l1 9v23l-3-2v-17z" fill="#1C2D37"/>
<path transform="translate(943,668)" d="m0 0 1 3-6 15-3 6-1-2 2-5-1-5-4-1-1-3 5-1 2 2h3z" fill="#EEAF9C"/>
<path transform="translate(1285,630)" d="m0 0 2 3-1 6-5 10-2 3-2-4z" fill="#D9F2EB"/>
<path transform="translate(1309,1273)" d="m0 0h5l-4 3-26 10-8 1 4-2 13-5 12-5z" fill="#FCF3ED"/>
<path transform="translate(1228,1179)" d="m0 0h1v13l-2 6-3 1 1-14z" fill="#EBF7F1"/>
<path transform="translate(1032 1e3)" d="m0 0h1l2 8v13l-5 16-2 2 1-5 3-11v-15l-1-4z" fill="#537743"/>
<path transform="translate(769,806)" d="m0 0 4 4 8 15-1 4-6-8-5-12z" fill="#1B2C35"/>
<path transform="translate(1024,415)" d="m0 0 1 4-6 15-2 7-2-4 4-13 4-8z" fill="#DDE5C8"/>
<path transform="translate(352,1229)" d="m0 0 3 1 4 9-1 3-2-6-4 3-2 9h-1l1-13z" fill="#314962"/>
<path transform="translate(272,868)" d="m0 0h2l6 12v6l-5-5-3-7z" fill="#EDF9F9"/>
<path transform="translate(157,812)" d="m0 0 7 1 5 4v3l-5 1-6-5z" fill="#FAF9F5"/>
<path transform="translate(223,1299)" d="m0 0 6 2 10 5v3l-2 1-13-7z" fill="#DBF4EF"/>
<path transform="translate(1217,1230)" d="m0 0 3 3-1 10-2 6-4-1z" fill="#C4EDE1"/>
<path transform="translate(518,579)" d="m0 0 2 3 2-2-3 29h-1l-1-14-1-2z" fill="#C4EDE3"/>
<path transform="translate(1088,554)" d="m0 0 13 1v1l-14 4-4 1-2 4v-3l5-7z" fill="#FCF2EA"/>
<path transform="translate(275,949)" d="m0 0 4 2 2 3v10l-2-1-4-8-2-5z" fill="#F5FAF7"/>
<path transform="translate(1222,1216)" d="m0 0h1v8l-2 9h-2l-1 2v-11l3-7z" fill="#E9F7F2"/>
<path transform="translate(984,914)" d="m0 0 2 3v7l-2 3-3-2-2-5 3-5z" fill="#EFAE9C"/>
<path transform="translate(813,877)" d="m0 0 5 2 4 3v2h2l-2 4-3-1 2-4h-2v3l-6 1-1-5 5-1z" fill="#F0B19B"/>
<path transform="translate(260,838)" d="m0 0 3 4 3 7v6l-3-1-4-9z" fill="#DDF3EC"/>
<path transform="translate(944,665)" d="m0 0 5 5 2 9-1 4-4-7-1-4-2-1z" fill="#E9F3EA"/>
<path transform="translate(1278,649)" d="m0 0h1v6l-5 9-4 1 1-5 5-10z" fill="#E6F6F3"/>
<path transform="translate(125,1305)" d="m0 0h24v1l-5 1v1l-9 1-2 1-8-4z" fill="#BFE1B1"/>
<path transform="translate(1270,1137)" d="m0 0h1v6l-3 6v3l-5 2 2-9 2-6z" fill="#E6F7F5"/>
<path transform="translate(1373,972)" d="m0 0h2l1 5v18h-2l-1-8z" fill="#E6CFA8"/>
<path transform="translate(445,558)" d="m0 0 2 1 3 8 1 12-3-2-3-13z" fill="#FCFBFA"/>
<path transform="translate(987,456)" d="m0 0 3 1v22l-2-2-1-8z" fill="#EDDABD"/>
<path transform="translate(633,409)" d="m0 0 4 1 4 9-1 4-7 1 1-2 3-1v-5l-3-4-5 3-2-1 2-3z" fill="#F1AE9E"/>
<path transform="translate(347,720)" d="m0 0h1l4 20-1 7-2-4-3-15z" fill="#ECD7B8"/>
<path transform="translate(622,551)" d="m0 0h8l1 3 2 1h-18l3-3z" fill="#87B192"/>
<path transform="translate(369,890)" d="m0 0h1l1 22v16l-4-4 2-4z" fill="#67855D"/>
<path transform="translate(1261,697)" d="m0 0 2 1-2 3v3l-4 4h-4v-2l-2-1 3-3 1-2 2 1 1-1z" fill="#C1EBDC"/>
<path transform="translate(589,449)" d="m0 0h1v10h4l-3 9h-2l-1-2v-11z" fill="#5E5E52"/>
<path transform="translate(981,892)" d="m0 0h4l5 1v2l-10 4h-3l1-5z" fill="#243034"/>
<path transform="translate(1163,846)" d="m0 0 2 1-4 7-3 5-1 7h-1l-1-13z" fill="#C3ECDE"/>
<path transform="translate(891,707)" d="m0 0h6l7 5v3l-5-1-8-5z" fill="#E3F6F5"/>
<path transform="translate(1339,844)" d="m0 0 2 1-3 3-5 2 2 4 3 2 12 1v1h-13l-7-3 1-7 7-3z" fill="#EACAA6"/>
<path transform="translate(1306,573)" d="m0 0h3l3 3-1 3v-2h-2l-1 8-1 3-4 1 1-6 4-9z" fill="#D3F0E6"/>
<path transform="translate(607,412)" d="m0 0v3l-1 4 15 6 1 3h-5l1-2-15-5-1-4z" fill="#F4AFA3"/>
<path transform="translate(1249,1188)" d="m0 0h2l-1 5-4 9h-3l-1-2 5-11z" fill="#E0F5F1"/>
<path transform="translate(1257,693)" d="m0 0h1v6l-3 1-2 5h-3l1-6 5-5z" fill="#ECF8F3"/>
<path transform="translate(640,422)" d="m0 0 4 1-1 2-11 3h-5l1-3z" fill="#F6D8C3"/>
<path transform="translate(213,1311)" d="m0 0 17 1-3 2 8 1v1h-9l-15-2z" fill="#C3EAD8"/>
<path transform="translate(1282,1239)" d="m0 0 1 2-1 6h11l4 2h-10l-10-1 2-5z" fill="#FCEBDF"/>
<path transform="translate(178,1020)" d="m0 0 4 2 3 5 4 5 3 5 2 4-4-1-5-9-4-4-2-5z" fill="#3D5980"/>
<path transform="translate(1014,439)" d="m0 0h2l-1 8-4 10h-1v-7z" fill="#EAE8D1"/>
<path transform="translate(371,776)" d="m0 0h1l-1 14-1 9h-1l-1-12 2-10z" fill="#DCE0BE"/>
<path transform="translate(1121,733)" d="m0 0h2l-2 6-4 2h-5l2-4h3v-2z" fill="#DAA48D"/>
<path transform="translate(852,746)" d="m0 0 5 3 3 12h-2l-6-11z" fill="#1B2C35"/>
<path transform="translate(892,738)" d="m0 0 1 3-4 6-1 3-3-1-1-5-2-1 1-2h7z" fill="#5F7658"/>
<path transform="translate(1162,735)" d="m0 0h1v7l-1 5h-2l-1 7h-1v-8l3-10z" fill="#E3F6F2"/>
<path transform="translate(925,658)" d="m0 0h4l-1 9-3 3-1-1z" fill="#E2A790"/>
<path transform="translate(1009,454)" d="m0 0 2 3-4 16-3-1 3-11z" fill="#E2E3C5"/>
<path transform="translate(1233,1246)" d="m0 0 1 2-4 5-1-2-28-1v-1l29-1z" fill="#EDAD9A"/>
<path transform="translate(463,659)" d="m0 0 6 5 2 5-5-1-6-8z" fill="#FDFDFD"/>
<path transform="translate(1196,1240)" d="m0 0h4l1 9h-6v-4z" fill="#223137"/>
<path transform="translate(366,908)" d="m0 0h3l1 12-3 2-1-3z" fill="#21353F"/>
<path transform="translate(919,969)" d="m0 0 7 6 13 12-1 2-15-14-4-4z" fill="#ECC5A3"/>
<path transform="translate(266,1318)" d="m0 0 13 1v1h-6v2l-10-1-7-1v-1h10z" fill="#CEEEDE"/>
<path transform="translate(1224,1237)" d="m0 0 1 3 3 1-3 4v4h-5l3-10z" fill="#C3EBDB"/>
<path transform="translate(1202,1105)" d="m0 0h1l1 7 1 4-1 10-2 2z" fill="#E5D7B3"/>
<path transform="translate(1329,849)" d="m0 0 2 1v10l3 10-3-3-3-8v-8z" fill="#EFAE9C"/>
<path transform="translate(368,793)" d="m0 0h1v13l-3 6-1-3 2-14z" fill="#EEEBD9"/>
<path transform="translate(1007,736)" d="m0 0h6l2 2-1 2 2 1h-10z" fill="#1A2A33"/>
<path transform="translate(1128,674)" d="m0 0h1l2 13 1 3h-4zm4 1h1v13h-1z" fill="#E5D7B4"/>
<path transform="translate(455,651)" d="m0 0 4 2 4 5v2l-5-1-4-4z" fill="#FCF4EE"/>
<path transform="translate(512,576)" d="m0 0h1l3 16h-1l-1 6h-1l-2-10 1-6z" fill="#C4EDE5"/>
<path transform="translate(1230,1169)" d="m0 0h1l-1 17h-1l-1-6-2 4 1-10z" fill="#D6F1E6"/>
<path transform="translate(1325,835)" d="m0 0v3l-3 4-2 16h-1v-17l5-5z" fill="#ECC2A3"/>
<path transform="translate(1291,620)" d="m0 0 1 4-4 9h-2v-6l4-6z" fill="#E4F7F6"/>
<path transform="translate(595,334)" d="m0 0m-1 1v3l-10 13-2 1 2-6 6-7z" fill="#FCECE0"/>
<path transform="translate(1204,1116)" d="m0 0h2l1 10-3 4-1 3h-2v-5h2z" fill="#C8DCAA"/>
<path transform="translate(292,1034)" d="m0 0h2l-1 4-5 3-4 1 1-4z" fill="#1B2B35"/>
<path transform="translate(1391,978)" d="m0 0 2 3-3 12-2 3-2-1z" fill="#CCDBAF"/>
<path transform="translate(1350,894)" d="m0 0h2l-1 16-2 2v-14z" fill="#FADFCD"/>
<path transform="translate(1295,610)" d="m0 0h2l-1 4-3 7-4 1 3-9z" fill="#E0F3E9"/>
<path transform="translate(198,1287)" d="m0 0 5 1 6 3v2h-6l-5-3z" fill="#E5F6F0"/>
<path transform="translate(268,1265)" d="m0 0 5 2 5 3v4l-5-2-5-4z" fill="#DAF5F6"/>
<path transform="translate(1242,1044)" d="m0 0h1l-1 19h-1l-1-6h-1v-6z" fill="#FCF8F4"/>
<path transform="translate(1241,975)" d="m0 0 2 1v32h-1l-1-30z" fill="#E4D5B0"/>
<path transform="translate(894,946)" d="m0 0 4 2 9 8-3 1-6-4z" fill="#ECC4A4"/>
<path transform="translate(658,432)" d="m0 0 2 1v31h-1v-29h-2z" fill="#84663B"/>
<path transform="translate(363,929)" d="m0 0 1 4-1 2h-2l-1 3h-7l4-4z" fill="#F3E6D5"/>
<path transform="translate(991,897)" d="m0 0 4 4-4 5-1 7h-1v-11l-1-2h2z" fill="#EBA99A"/>
<path transform="translate(1161,720)" d="m0 0 4 1-3 11h-1l-3-10z" fill="#BEDFA8"/>
<path transform="translate(1230,1230)" d="m0 0h1v5l-3 5h-3l1-6z" fill="#EEF9F7"/>
<path transform="translate(1024,1099)" d="m0 0 3 1 1 10-5-4-1-5z" fill="#1D2C33"/>
<path transform="translate(992,893)" d="m0 0h5v5l-4 2-2-3z" fill="#F0BC97"/>
<path transform="translate(373,763)" d="m0 0h1l-1 13-3 1v-8z" fill="#E1DEBC"/>
<path transform="translate(594,450)" d="m0 0h1v9l-3 1-1-1v-8z" fill="#223236"/>
<path transform="translate(1270,1287)" d="m0 0h7l-2 2-11 3h-4v-2z" fill="#FCFAF7"/>
<path transform="translate(1013,917)" d="m0 0 4 1-2 4-3 2-3-1 2-5z" fill="#F5D4BE"/>
<path transform="translate(365,805)" d="m0 0 1 4-3 12h-1l-1-15h2l1 2z" fill="#EDCE9A"/>
<path transform="translate(360,787)" d="m0 0h1l2 19h-2l-2-8z" fill="#D2D9AC"/>
<path transform="translate(351,743)" d="m0 0h2l1 5v10l-2-1-1-5z" fill="#EEE4CE"/>
<path transform="translate(803,860)" d="m0 0 7 6 1 5h-2l-1 2-4-3v-2l4 1 2 1-7-8z" fill="#EFAE9C"/>
<path transform="translate(629,330)" d="m0 0 7 3 2 1v2l5 2-3 1-11-6z" fill="#FCEADC"/>
<path transform="translate(300,1324)" d="m0 0 2 4-6 1h-10v-2l10-1 4 1z" fill="#43BBAB"/>
<path transform="translate(1402,1212)" d="m0 0 1 2 3-1-2 6-6 4 2-5h2z" fill="#C7EADA"/>
<path transform="translate(1149,1193)" d="m0 0h2l1 14h-3z" fill="#EFAF9B"/>
<path transform="translate(1380,1019)" d="m0 0 2 3-1 7h-5z" fill="#F0C8A1"/>
<path transform="translate(519,611)" d="m0 0h1l1 13h-2v5h-1v-11z" fill="#D7F2EB"/>
<path transform="translate(1151,1187)" d="m0 0 6 1 1 4h-7z" fill="#1A2A33"/>
<path transform="translate(281,1031)" d="m0 0 4 1 3 3v2h-6z" fill="#E1F5F3"/>
<path transform="translate(365,819)" d="m0 0h1l1 14h-2l-1 4v-10z" fill="#E8DABB"/>
<path transform="translate(1138,735)" d="m0 0h1l2 12 2 4-3 1-2-4z" fill="#BEDFA8"/>
<path transform="translate(567,493)" d="m0 0 11 1v7h-5l3-6h-7z" fill="#F9ECDF"/>
<path transform="translate(587,431)" d="m0 0h1v5l-3 3-1 4v3l-2-2 1-7z" fill="#EFAE9C"/>
<path transform="translate(1240,1065)" d="m0 0h1v7l-2 6-3 1 2-11z" fill="#F9FAF7"/>
<path transform="translate(1129,949)" d="m0 0 10 2 5 2v1l-9-1-6-3z" fill="#1C2D36"/>
<path transform="translate(997,497)" d="m0 0 2 4-2 11h-2l1-11z" fill="#CCDCAD"/>
<path transform="translate(954,1113)" d="m0 0h1v9h-3l-1-5z" fill="#F9EADE"/>
<path transform="translate(313,969)" d="m0 0h1l2 7v5l-2 1-2-5z" fill="#C5EFE9"/>
<path transform="translate(1e3 472)" d="m0 0h2l-1 8-2 5h-1l1-10z" fill="#EAECD8"/>
<path transform="translate(1018,426)" d="m0 0 2 3-3 12-2-4z" fill="#DADBB3"/>
<path transform="translate(371,1206)" d="m0 0h2l1 13-3-4z" fill="#F1F9F5"/>
<path transform="translate(1407,1108)" d="m0 0 1 4-7 5v-3z" fill="#DBE0BC"/>
<path transform="translate(1025,1041)" d="m0 0h2v10h-2l-1-7z" fill="#1A2A33"/>
<path transform="translate(262,1018)" d="m0 0 5 1 4 4-5 1-4-4z" fill="#F9FBF9"/>
<path transform="translate(1395,969)" d="m0 0h1l-1 8-2 4h-1l1-10h2z" fill="#EAE0C3"/>
<path transform="translate(1397,958)" d="m0 0 2 3-2 9-3 1 2-9z" fill="#D7D8AC"/>
<path transform="translate(1302,588)" d="m0 0h4l-1 4-2 4-1-2-2 2 1-6z" fill="#DCF3EB"/>
<path transform="translate(449,578)" d="m0 0 3 1 1 9-2 2-2-8z" fill="#FDFDFD"/>
<path transform="translate(1098,533)" d="m0 0h2l2 6-8 1z" fill="#294448"/>
</svg>
